<?xml version="1.0" encoding="utf-8"?>
<!-- Generator: Adobe Illustrator 13.0.2, SVG Export Plug-In . SVG Version: 6.00 Build 14948)  -->
<!DOCTYPE svg PUBLIC "-//W3C//DTD SVG 1.1//EN" "http://www.w3.org/Graphics/SVG/1.1/DTD/svg11.dtd">
<svg version="1.1" id="Layer_1" xmlns="http://www.w3.org/2000/svg" xmlns:xlink="http://www.w3.org/1999/xlink" x="0px" y="0px"
	 width="1331.07px" height="699.001px" viewBox="0 0 1331.07 699.001" enable-background="new 0 0 1331.07 699.001"
	 xml:space="preserve">
<g id="XMLID_2_">
	<g>
		<path fill="#563D7C" d="M1301.541,641.067c1.93,17.34-12.3,31.77-30,29.52c-8.5-1.08-16.49-4.18-24.721-5.04
			c-10.5-2.86-21.18-5.54-31.199-8.88c-82.58-27.71-148.11-73.52-203.04-129.12c-18.301-18.53-34.53-38.77-50.88-59.76
			c-3.931-5.04-7.771-10.72-11.521-16.32c-10.87-16.24-21.58-34.26-30.24-52.56c-6.06-12.8-12.609-24.85-16.8-38.64
			c-6.35-20.87-6.479-51.23-3.12-74.16c3.38-23.1,16.101-39.17,34.561-48.24c12.64-6.22,30.64-8.51,47.04-5.04
			c14.939,3.16,25.72,10.81,34.56,20.64c9.22,12.06,15.2,25.95,14.64,45.84c-0.97,34.85-25.239,58.7-58.079,62.4
			c-19.91,2.24-37.881-4.04-48.721-12.48c6.601,19.68,15.99,37.46,25.44,54.48c9.45,17.03,20.1,32.97,32.16,47.52
			c18.37,22.16,36.6,42.72,57.6,61.92c6.93,6.34,14.51,11.83,21.84,18c29,24.4,60.521,46.31,98.641,60.72
			c28.739,10.87,58.729,20.38,93.359,25.68c5.57,0.85,11.63,1.46,17.76,2.16c6.011,0.68,14.37,0,19.44,2.4
			C1296.991,625.287,1300.69,633.397,1301.541,641.067z"/>
		<path fill="#563D7C" d="M1219.701,286.587c4.18,6.95,3.899,17.03,0,23.52c-5.75,9.57-20.11,14.73-31.44,7.92
			c-3.06-1.84-5.82-4.68-7.44-7.2c-7.529-11.72-1.949-26.11,6.721-31.68c2.34-1.51,5.88-2.91,10.08-3.36
			C1208.05,274.677,1216.241,280.827,1219.701,286.587z"/>
		<path fill="#563D7C" d="M1213.46,344.907c4.18,6.95,3.899,17.03,0,23.52c-5.75,9.57-20.11,14.73-31.44,7.92
			c-3.06-1.84-5.819-4.68-7.439-7.2c-7.53-11.72-1.95-26.11,6.72-31.68c2.34-1.51,5.88-2.91,10.08-3.36
			C1201.8,332.997,1210,339.147,1213.46,344.907z"/>
		<path fill="#563D7C" d="M1212.02,227.307c4.181,6.95,3.9,17.03,0,23.52c-5.75,9.57-20.109,14.73-31.439,7.92
			c-3.061-1.84-5.82-4.68-7.44-7.2c-7.53-11.72-1.95-26.11,6.72-31.68c2.341-1.51,5.881-2.91,10.08-3.36
			C1200.36,215.397,1208.56,221.547,1212.02,227.307z"/>
		<path fill="#563D7C" d="M1193.06,398.907c4.181,6.95,3.9,17.03,0,23.52c-5.75,9.57-20.109,14.73-31.439,7.92
			c-3.061-1.84-5.82-4.68-7.44-7.2c-7.53-11.72-1.95-26.11,6.72-31.68c2.341-1.51,5.88-2.91,10.08-3.36
			C1181.4,386.997,1189.6,393.147,1193.06,398.907z"/>
		<path fill="#563D7C" d="M1191.14,172.827c4.17,6.95,3.9,17.03,0,23.52c-5.75,9.57-20.11,14.73-31.439,7.92
			c-3.061-1.84-5.82-4.68-7.44-7.2c-7.53-11.72-1.95-26.11,6.72-31.68c2.34-1.51,5.88-2.91,10.08-3.36
			C1179.48,160.917,1187.68,167.067,1191.14,172.827z"/>
		<path fill="#563D7C" d="M1160.18,449.307c4.18,6.95,3.9,17.03,0,23.52c-5.75,9.57-20.11,14.73-31.439,7.92
			c-3.061-1.84-5.82-4.68-7.44-7.2c-7.54-11.72-1.94-26.11,6.72-31.68c2.34-1.51,5.88-2.91,10.08-3.36
			C1148.52,437.397,1156.72,443.547,1160.18,449.307z"/>
		<path fill="#563D7C" d="M1157.78,123.387c4.181,6.95,3.9,17.03,0,23.52c-5.75,9.57-20.109,14.73-31.439,7.92
			c-3.061-1.84-5.82-4.68-7.44-7.2c-7.529-11.72-1.949-26.11,6.721-31.68c2.34-1.51,5.88-2.91,10.08-3.36
			C1146.13,111.477,1154.32,117.627,1157.78,123.387z"/>
		<path fill="#563D7C" d="M1155.38,291.147c0,22.19,0,46.61,0,67.92c-6.4,0-12.8,0-19.2,0c0-17.72,0-35.71,0-54
			c0-24.38,2.4-49.16-15.12-56.16c-10.41-4.16-23.189-1.52-30.24,3.6c-12.1,8.79-15.6,24.46-15.6,45.6c0,20.18,0,41.87,0,60.96
			c-6.4,0-12.8,0-19.2,0c0-41.68,0-83.36,0-125.04c6.32,0,12.641,0,18.96,0c0.561,5.44,0.08,11.92,0.24,17.76
			c7.47-11.14,18.31-19.78,36.48-20.64c23.29-1.1,36.409,10.87,41.279,28.32C1155.541,268.617,1155.38,278.977,1155.38,291.147z"/>
		<path fill="#563D7C" d="M1118.42,486.987c4.18,6.95,3.899,17.03,0,23.52c-5.75,9.57-20.11,14.73-31.44,7.92
			c-3.06-1.84-5.819-4.68-7.439-7.2c-7.53-11.72-1.95-26.11,6.72-31.68c2.34-1.51,5.88-2.91,10.08-3.36
			C1106.76,475.077,1114.96,481.227,1118.42,486.987z"/>
		<path fill="#563D7C" d="M1113.621,84.267c4.18,6.95,3.899,17.03,0,23.52c-5.75,9.57-20.11,14.73-31.44,7.92
			c-3.06-1.84-5.82-4.68-7.439-7.2c-7.53-11.72-1.95-26.11,6.72-31.68c2.34-1.51,5.88-2.91,10.08-3.36
			C1101.97,72.357,1110.161,78.507,1113.621,84.267z"/>
		<path fill="#563D7C" d="M1061.3,54.747c4.17,6.95,3.9,17.03,0,23.52c-5.75,9.57-20.11,14.73-31.44,7.92
			c-3.06-1.84-5.819-4.68-7.439-7.2c-7.53-11.72-1.95-26.11,6.72-31.68c2.34-1.51,5.88-2.91,10.08-3.36
			C1049.64,42.837,1057.84,48.987,1061.3,54.747z"/>
		<path fill="#563D7C" d="M1002.98,532.587c4.181,6.95,3.9,17.03,0,23.52c-5.75,9.57-20.109,14.73-31.439,7.92
			c-3.061-1.84-5.82-4.68-7.44-7.2c-7.53-11.72-1.95-26.11,6.72-31.68c2.341-1.51,5.881-2.91,10.08-3.36
			C991.32,520.677,999.52,526.827,1002.98,532.587z"/>
		<path fill="#563D7C" d="M1002.741,40.587c4.18,6.95,3.899,17.03,0,23.52c-5.75,9.57-20.11,14.73-31.44,7.92
			c-3.06-1.84-5.82-4.68-7.44-7.2c-7.529-11.72-1.949-26.11,6.721-31.68c2.34-1.51,5.88-2.91,10.08-3.36
			C991.081,28.677,999.28,34.827,1002.741,40.587z"/>
		<path fill="#563D7C" d="M940.82,532.347c4.181,6.95,3.9,17.03,0,23.52c-5.75,9.57-20.109,14.73-31.439,7.92
			c-3.061-1.84-5.82-4.68-7.44-7.2c-7.529-11.72-1.949-26.11,6.721-31.68c2.34-1.51,5.88-2.91,10.08-3.36
			C929.161,520.437,937.36,526.587,940.82,532.347z"/>
		<path fill="#563D7C" d="M940.1,40.587c4.18,6.95,3.9,17.03,0,23.52c-5.75,9.57-20.109,14.73-31.439,7.92
			c-3.061-1.84-5.82-4.68-7.44-7.2c-7.53-11.72-1.95-26.11,6.72-31.68c2.34-1.51,5.88-2.91,10.08-3.36
			C928.44,28.677,936.64,34.827,940.1,40.587z"/>
		<path fill="#563D7C" d="M881.06,517.707c4.181,6.95,3.9,17.03,0,23.52c-5.75,9.57-20.109,14.73-31.439,7.92
			c-3.061-1.84-5.82-4.68-7.44-7.2c-7.54-11.72-1.939-26.11,6.72-31.68c2.341-1.51,5.88-2.91,10.08-3.36
			C869.4,505.797,877.6,511.947,881.06,517.707z"/>
		<path fill="#563D7C" d="M880.82,55.947c4.181,6.95,3.9,17.03,0,23.52c-5.75,9.57-20.109,14.73-31.439,7.92
			c-3.061-1.84-5.82-4.68-7.44-7.2c-7.529-11.72-1.949-26.11,6.721-31.68c2.34-1.51,5.88-2.91,10.08-3.36
			C869.161,44.037,877.36,50.187,880.82,55.947z"/>
		<path fill="#563D7C" d="M860.42,180.507c8.5-1.13,17.3,6.67,12.96,16.32c-1.79,3.99-5.66,6.98-9.601,7.44
			c-7.829,0.91-17.859-6.64-12.96-17.28C852.02,184.377,855.06,181.217,860.42,180.507z"/>
		<path fill="#563D7C" d="M871.46,234.027c0,41.68,0,83.36,0,125.04c-6.32,0-12.641,0-18.96,0c0-41.44,0-82.88,0-124.32
			c-0.021-0.34-0.04-0.68,0.24-0.72C858.98,234.027,865.22,234.027,871.46,234.027z"/>
		<path fill="#563D7C" d="M828.98,86.187c4.181,6.95,3.9,17.03,0,23.52c-5.75,9.57-20.109,14.73-31.439,7.92
			c-3.061-1.84-5.82-4.68-7.44-7.2c-7.53-11.72-1.95-26.11,6.72-31.68c2.341-1.51,5.881-2.91,10.08-3.36
			C817.32,74.277,825.52,80.427,828.98,86.187z"/>
		<path fill="#563D7C" d="M828.98,488.187c4.17,6.95,3.9,17.03,0,23.52c-5.75,9.57-20.109,14.73-31.439,7.92
			c-3.061-1.84-5.82-4.68-7.44-7.2c-7.54-11.72-1.95-26.11,6.72-31.68c2.341-1.51,5.881-2.91,10.08-3.36
			C817.32,476.267,825.52,482.427,828.98,488.187z"/>
		<path fill="#563D7C" d="M812.42,144.987c0,71.36,0,142.72,0,214.08c-6.32,0-12.641,0-18.96,0c0-71.12,0-142.24,0-213.36
			c-0.021-0.34-0.04-0.68,0.24-0.72C799.94,144.987,806.18,144.987,812.42,144.987z"/>
		<path fill="#563D7C" d="M785.78,126.027c4.181,6.95,3.9,17.03,0,23.52c-5.75,9.57-20.109,14.73-31.439,7.92
			c-3.061-1.84-5.82-4.68-7.44-7.2c-7.529-11.72-1.949-26.11,6.721-31.68c2.34-1.51,5.88-2.91,10.08-3.36
			C774.13,114.117,782.32,120.267,785.78,126.027z"/>
		<path fill="#563D7C" d="M785.3,448.347c4.17,6.95,3.9,17.03,0,23.52c-5.75,9.57-20.11,14.73-31.44,7.92
			c-3.06-1.84-5.819-4.68-7.439-7.2c-7.54-11.72-1.95-26.11,6.72-31.68c2.34-1.51,5.88-2.91,10.08-3.36
			C773.64,436.437,781.84,442.587,785.3,448.347z"/>
		<path fill="#563D7C" d="M749.06,249.627c10.96,11.69,16.59,27.88,16.561,49.92c-35.28,0-70.561,0-105.841,0
			c1,24.49,13.66,40.75,34.32,45.84c26.12,6.43,44.3-8.38,53.28-24c5.33,1.31,10.439,2.84,15.84,4.08
			c-9.63,20.3-25.479,33.38-50.88,36.24c-27.42,3.09-48.61-8.88-60.24-26.4c-6.07-9.15-9.77-19.47-10.8-32.88
			c-1.08-13.97,1.6-26.09,6.479-36.48c8.771-18.66,27.051-33.57,53.04-34.8C722.991,230.097,738.57,238.437,749.06,249.627z
			 M660.26,286.107c28.8,0,57.6,0,86.4,0c-4.19-24.16-17.551-41.68-46.32-39.84C677.581,247.727,663.25,263.987,660.26,286.107z"/>
		<path fill="#563D7C" d="M752.18,174.267c4.18,6.95,3.9,17.03,0,23.52c-5.75,9.57-20.11,14.73-31.439,7.92
			c-3.061-1.84-5.82-4.68-7.44-7.2c-7.53-11.72-1.95-26.11,6.72-31.68c2.34-1.51,5.88-2.91,10.08-3.36
			C740.52,162.357,748.72,168.507,752.18,174.267z"/>
		<path fill="#563D7C" d="M752.18,398.907c4.18,6.95,3.9,17.03,0,23.52c-5.75,9.57-20.11,14.73-31.439,7.92
			c-3.061-1.84-5.82-4.68-7.44-7.2c-7.53-11.72-1.95-26.11,6.72-31.68c2.34-1.51,5.88-2.91,10.08-3.36
			C740.52,386.997,748.72,393.147,752.18,398.907z"/>
		<path fill="#563D7C" d="M711.86,505.707c5.021,10.22,1.65,21.7-4.56,27.84c-8.71,8.62-24.89,8.61-33.6,0
			c-14.58-14.43-4.98-38.49,14.399-40.56C699.28,491.787,708.11,498.067,711.86,505.707z M692.18,535.227
			c9.09-0.85,18.12-8.84,17.04-20.4c-0.97-10.44-9.66-18.15-20.88-16.8c-6.4,0.77-10.8,4.05-13.44,7.92
			c-0.8,1.17-2.81,4.2-3.12,9.36C671.02,528.057,681.791,536.197,692.18,535.227z"/>
		<path fill="#563D7C" d="M702.5,528.507c-2.32,0-4.641,0-6.96,0c-2.5-3.5-2.09-9.91-8.641-9.36c-0.56,2.64-0.08,6.32-0.239,9.36
			c-2.24,0-4.48,0-6.721,0c0-8.32,0-16.64,0-24.96c6.74,0.58,15.48-1.62,18.48,2.64c2.189,3.11,1.109,9.69-3.12,10.32
			C698.89,519.317,700.55,524.057,702.5,528.507z M692.18,513.627c0.9-1.23,0.82-3.32,0-4.56c-1.33-0.75-3.35-0.81-5.52-0.72
			c0,2,0,4,0,6C688.69,514.297,691.11,514.637,692.18,513.627z"/>
		<path fill="#563D7C" d="M654.5,516.747c1.35,12.46-8.21,23.16-21.84,23.28c-12.131,0.11-18.75-6.02-24-14.88
			c1.8-2.04,3.89-3.79,6.239-5.28c2.42,5.23,7.851,11.19,15.12,12c10.42,1.17,19.63-9.43,12.721-17.76
			c-7.141-8.61-27.261-7.63-29.04-22.08c-1.391-11.28,6.159-19.26,17.76-20.16c9.47-0.74,15.6,2.83,20.399,8.88
			c-1.659,2.1-3.34,4.18-5.52,5.76c-2.94-5.77-14.65-9.59-20.4-3.84c-3.439,3.44-3.35,9.63,0.48,12.72
			C635.041,502.347,652.93,502.297,654.5,516.747z"/>
		<path fill="#563D7C" d="M616.1,144.987c0,71.36,0,142.72,0,214.08c-6.479,0-12.96,0-19.439,0c0-7.12,0-14.24,0-21.36
			c-1.4,0.48-1.881,2.08-2.641,3.12c-5.68,7.81-14.67,14.67-24.96,18.24c-12.88,4.47-29.97,3.42-42-1.44
			c-22.54-9.11-37.3-29.68-38.16-60.48c-0.85-30.52,15.66-52.57,37.2-61.44c12.33-5.08,29.021-5.8,42-1.68
			c12.49,3.97,21.43,11.34,28.561,20.64c0-36.32,0-72.64,0-108.96c-0.021-0.34-0.04-0.68,0.239-0.72
			C603.3,144.987,609.701,144.987,616.1,144.987z M591.38,322.587c4.7-9.07,7.68-21.56,6-34.56c-1.49-11.54-6.57-20.26-13.44-27.6
			c-8.18-7.4-18.22-13.56-34.08-12.72c-24.46,1.3-39.13,18.02-41.76,41.04c-2.97,26.01,9.69,45.72,27.84,53.52
			c10.311,4.43,24.69,4.44,34.32,0.24C579.411,338.517,587.05,330.937,591.38,322.587z"/>
		<path fill="#563D7C" d="M597.14,538.347c-3.36,0-6.72,0-10.08,0c-0.64-14.1,0.851-30.27,0-43.92
			c-0.34-5.53-2.35-10.97-6.479-12.96c-4.19-2.02-10.351-1.6-13.92,0.24c-13.29,6.84-5.57,38.92-7.681,56.64
			c-3.359,0-6.72,0-10.08,0c0-8.45,0-18.06,0-27.84c0-15.52,1.2-31.07-14.399-30.48c-20.92,0.79-11.82,38.18-13.92,58.32
			c-3.28,0-6.561,0-9.84,0c0-21.68,0-43.36,0-65.04c3.279,0,6.56,0,9.84,0c0,2.72,0,5.44,0,8.16c3.04-4.63,7.64-8.94,15.12-9.6
			c10.279-0.9,18.06,4.64,21.119,11.76c3.521-9.78,19.271-15.34,30.48-9.6C603.371,482.257,595.09,515.267,597.14,538.347z"/>
		<path fill="#563D7C" d="M497.78,507.387c-18.319,0-36.64,0-54.96,0c0.221,13.14,8.41,23.26,20.881,24.48
			c11.18,1.09,20.319-5.07,24.479-13.2c2.771,0.75,5.4,1.64,8.4,2.16c-5.61,11.32-14.811,19.2-30.721,19.2
			c-20.51,0-34.3-16.08-32.88-37.2c1.07-15.91,12.721-29.71,29.761-30.96C485.94,470.157,497.52,485.677,497.78,507.387z
			 M443.06,500.427c14.88,0,29.76,0,44.641,0c-1.91-13.01-9.65-21.79-24.48-20.64C451.46,480.697,444.741,489.087,443.06,500.427z"
			/>
		<path fill="#563D7C" d="M464.661,291.147c0,22.19,0,46.61,0,67.92c-6.4,0-12.801,0-19.2,0c0-17.72,0-35.71,0-54
			c0-24.38,2.399-49.16-15.12-56.16c-10.41-4.16-23.19-1.52-30.24,3.6c-12.09,8.79-15.6,24.46-15.6,45.6c0,20.18,0,41.87,0,60.96
			c-6.4,0-12.8,0-19.2,0c0-41.68,0-83.36,0-125.04c6.32,0,12.64,0,18.96,0c0.56,5.44,0.08,11.92,0.24,17.76
			c7.47-11.14,18.31-19.78,36.479-20.64c23.29-1.1,36.41,10.87,41.28,28.32C464.82,268.617,464.661,278.977,464.661,291.147z"/>
		<path fill="#563D7C" d="M428.9,473.307c0,3.04,0,6.08,0,9.12c-3.84,0-7.68,0-11.52,0c0,18.64,0,37.28,0,55.92
			c-3.36,0-6.72,0-10.08,0c0-18.64,0-37.28,0-55.92c-2.4,0-4.8,0-7.2,0c-0.399-2.5-0.399-6.62,0-9.12c2.32,0,4.641,0,6.96,0
			c0.72-6.88-0.24-15.44,0.48-22.32c3.2,0,6.399,0,9.6,0c0.561,6.88,0.08,14.8,0.24,22.08
			C420.741,473.627,425.14,473.147,428.9,473.307z"/>
		<path fill="#563D7C" d="M390.02,516.747c1.351,12.46-8.21,23.16-21.84,23.28c-12.13,0.11-18.75-6.02-24-14.88
			c1.8-2.04,3.89-3.79,6.24-5.28c2.42,5.23,7.85,11.19,15.12,12c10.42,1.17,19.63-9.43,12.72-17.76
			c-7.14-8.61-27.25-7.63-29.04-22.08c-1.39-11.28,6.16-19.26,17.76-20.16c9.471-0.74,15.601,2.83,20.4,8.88
			c-1.66,2.1-3.34,4.18-5.521,5.76c-2.939-5.77-14.649-9.59-20.399-3.84c-3.44,3.44-3.351,9.63,0.479,12.72
			C370.56,502.347,388.451,502.297,390.02,516.747z"/>
		<path fill="#563D7C" d="M332.42,473.307c3.52,0,7.04,0,10.56,0c-14.87,34.01-29.819,67.94-44.88,101.76c-3.359,0-6.72,0-10.08,0
			c5.28-12.64,10.95-24.89,16.32-37.44c-9.9-21.78-20.79-42.57-30.72-64.32c3.6,0,7.199,0,10.8,0c8.55,17.61,16.57,35.75,25.2,53.28
			C317.46,509.067,324.741,490.987,332.42,473.307z"/>
		<path fill="#563D7C" d="M332.42,234.027c0,41.68,0,83.36,0,125.04c-6.32,0-12.641,0-18.96,0c0-7.2,0-14.4,0-21.6
			c-8.9,13.27-21.7,23.13-41.521,24.48c-20.939,1.43-36.26-6.18-47.04-16.8c-10.75-10.59-18.32-26.19-18.96-44.64
			c-0.71-20.41,5.07-36.74,15.12-48.48c9.87-11.53,23.24-19.39,42.96-20.64c24.16-1.53,39.09,9.83,49.44,23.52
			c0-6.96,0-13.92,0-20.88C319.78,234.027,326.1,234.027,332.42,234.027z M303.621,329.307c6.689-8.88,11.26-21.38,10.56-36.48
			c-0.66-14.22-6.64-25.84-13.92-33.12c-7.75-7.76-20.06-13.35-35.04-12.24c-14.23,1.05-24.77,7.73-31.2,16.32
			c-6.54,8.73-10.98,21.73-9.84,37.2c1.05,14.21,6.78,24.54,14.64,32.4c7.69,7.69,19.35,13.65,34.32,12.48
			C287.01,344.787,296.73,338.457,303.621,329.307z"/>
		<path fill="#563D7C" d="M245.54,480.747c12.51,5.73,26.27,12.11,24.96,31.68c-1.17,17.48-15.6,28.87-34.56,27.6
			c-14.65-0.98-22.99-8.69-28.8-20.16c1.69-2.79,4.5-4.46,6.96-6.48c3.86,9.34,12.06,16.11,21.6,17.04
			c15.24,1.49,23.87-7.73,24-19.2c0.06-5.41-1.99-10.02-4.8-12.96c-12.09-12.63-43.27-13.01-41.04-39.84
			c1.08-12.95,11.86-22.12,25.2-23.04c14.17-0.98,22.7,5.93,28.8,13.68c-1.63,2.69-4.05,4.59-6,6.96
			c-5.479-7.85-19.229-15.21-30.479-8.64c-6.57,3.83-9.72,14.95-3.84,22.32C231.6,474.787,239.06,477.777,245.54,480.747z"/>
		<path fill="#563D7C" d="M147.14,180.987c23.27,16.13,40.8,42.4,40.8,80.64c0,37.74-18.14,64.85-41.04,80.4
			c-12.15,8.25-26.74,14.26-44.4,16.32c-18.48,2.16-38.31-0.11-60,0.72c0-64.88,0-129.76,0-194.64c-0.02-0.34-0.04-0.68,0.24-0.72
			c21.8,0.97,41.6-1.62,60.24,0.72C120.09,166.577,135.32,172.797,147.14,180.987z M167.06,261.627c0-29.21-11.42-50.48-28.56-63.6
			c-17.73-13.56-42.24-18.38-75.84-16.32c-0.28,0.04-0.26,0.38-0.24,0.72c0,52.88,0,105.76,0,158.64
			c16.42-0.04,31.09,0.66,43.92-1.92c12.41-2.5,23.14-7.64,31.92-14.16C155.24,312.377,167.06,290.467,167.06,261.627z"/>
	</g>
	<g>
	</g>
</g>
</svg>
