<?xml version="1.0" encoding="UTF-8" standalone="no"?>
<svg id="svg2" xmlns:rdf="http://www.w3.org/1999/02/22-rdf-syntax-ns#" xmlns="http://www.w3.org/2000/svg" viewBox="0 0 640 145.51" version="1.1" xmlns:cc="http://creativecommons.org/ns#" xmlns:dc="http://purl.org/dc/elements/1.1/">
 <defs id="defs4"></defs>
 <metadata id="metadata7">
  <rdf:RDF>
   <cc:Work rdf:about="">
    <dc:format>image/svg+xml</dc:format>
    <dc:type rdf:resource="http://purl.org/dc/dcmitype/StillImage"/>
    <dc:title/>
   </cc:Work>
  </rdf:RDF>
 </metadata>
 <g id="layer1" transform="translate(-63.285728,-43.353301)">
  <g id="g2830" transform="matrix(0.3292368,0,0,0.3292368,260.6867,10.037906)" fill="#FFF">
   <path id="path2836" d="m318.9,541.9c-0.25893-0.6875-0.58231-40.376-0.71861-88.196l-0.24783-86.946-8.5-1.7011c-4.675-0.93563-11.524-3.0724-15.219-4.7485l-6.7193-3.0473-6.0132,4.0155c-3.3073,2.2085-6.9517,5.3335-8.0988,6.9444-1.2422,1.7446-2.9904,2.9289-4.3232,2.9289-1.2307,0-3.7625,1.125-5.6262,2.5-3.5737,2.6366-6.4319,3.2957-5.7774,1.3323,0.21408-0.64226,3.7043-3.4851,7.7561-6.3174,7.0242-4.9101,11.486-9.5149,9.22-9.5149-0.57489,0-2.3173,1.0358-3.872,2.3017-5.0565,4.1173-39.451,28.809-40.909,29.368-0.81335,0.31211-1.4177-0.0612-1.4177-0.87584,0-0.78091,8.3091-7.3906,18.465-14.688,19.113-13.734,26.213-19.106,25.252-19.106-0.30725,0-4.5316,2.3221-9.3875,5.1602-14.658,8.5672-16.163,9.3388-16.86,8.6424-1.2743-1.2743,0.62293-2.6955,14.981-11.222,7.9321-4.7106,14.702-9.0182,15.045-9.5725,1.0244-1.6575-5.1261-1.1574-6.5272,0.53072-0.7023,0.84622-5.0872,4.0479-9.7443,7.1148s-11.324,7.9996-14.815,10.961c-3.4914,2.9619-6.769,5.3852-7.2835,5.3852-0.51449,0-7.3208,4.7251-15.125,10.5-7.8044,5.7752-14.604,10.244-15.111,9.9309-1.5704-0.97054-0.14829-2.2322,15.966-14.166,8.6048-6.372,16.158-12.301,16.786-13.176,0.62749-0.87454,2.6245-3.1369,4.4378-5.0275s2.8602-3.583,2.3265-3.7609c-0.53373-0.17791-3.6557,0.75335-6.9378,2.0695-17.697,7.0966-80.486,32.447-96.467,38.948-11.398,4.6367-18.865,7.1714-19.45,6.6029-0.6-0.58269-0.6-1.2439,0-1.7948,0.5225-0.47973,11.188-4.9797,23.7-10s32.988-13.235,45.5-18.256c23.064-9.2538,26.412-10.872,22.489-10.872-1.1886,0-3.0107-0.91199-4.0492-2.0266l-1.8881-2.0266-8.2395,3.5266c-8.5615,3.6645-11.062,4.2323-11.062,2.5119,0-1.4412,5.3895-4.5507,13.25-7.6445l6.75-2.6568v-5.342c0-5.6903-0.30008-5.9614-4.6849-4.2313-3.9683,1.5657-20.399,5.6341-26.066,6.4542-5.9837,0.86596-7.2494,1.8886-7.2494,5.8575,0,4.7668-1.477,5.5776-10.161,5.5776-6.4502,0-8.073-0.33481-9.6079-1.9823-2.05-2.2004-1.0207-2.4007-31.173,6.0656-5.7433,1.6126-10.825,2.5495-11.292,2.082-1.5032-1.5032,1.5944-3.0054,11.509-5.5815,14.323-3.7213,20.725-5.6558,25.52-7.7104l4.2942-1.8402-0.29415-7.1628-0.29414-7.1628-9,0.3187c-15.768,0.55838-17.989,0.49519-18.5-0.52641-0.45256-0.90511,15.853-3.1491,24.75-3.4061,3.2208-0.0931,3.25-0.13879,3.25-5.0939,0-3.3295-0.41763-5.0024-1.25-5.0072-0.6875-0.004-7.0141,0.51606-14.059,1.1556l-12.809,1.1628-2.0876,4.0944c-7.743,15.187-24.239,27.458-41.986,31.232-10.829,2.3033-29.125,1.4134-37.928-1.8448-9.9938-3.6987-15.67-7.3889-23.381-15.201-8.2975-8.36-13.521-17.95-16.666-30.55-4.191-16.78-1.1412-38.62,7.3337-52.52,7.8685-12.906,20.72-23.463,33.6-27.602,10.26-3.2966,27.365-3.7593,38.149-1.0322,25.924,6.5557,41.993,26.947,45.017,57.128,0.41466,4.1378,0.3521,8.2913-0.13943,9.256-0.83187,1.6327-4.3646,1.75-52.69,1.75-28.489,0-52.029,0.23094-52.311,0.51321-0.28227,0.28226-0.12323,3.0001,0.35342,6.0397,3.805,24.264,22.677,39.512,47.309,38.224,7.6259-0.39888,10.213-1.0065,15.955-3.747,6.7392-3.2163,13.77-9.2893,20.076-17.341l2.9854-3.8118,5.2728,1.2388c4.1818,0.98247,8.113,0.98535,19,0.0139,21.194-1.8912,20.227-1.5743,20.227-6.631v-4.2793l-11.171-0.85938c-7.4021-0.56942-11.31-1.2811-11.583-2.1094-0.31381-0.95178,2.3514-1.25,11.171-1.25h11.583v-5.8032-5.8032l-9.4985-2.2899c-8.9044-2.1466-11.532-3.4062-10.099-4.84,0.5488-0.5488,14.878,2.1391,18.2,3.4142,1.1455,0.43958,1.3968-1.5208,1.3968-10.898v-11.434l-8.0128-2.7894c-7.8174-2.7213-9.8691-4.0082-8.528-5.3493,0.5498-0.54979,6.9726,1.3324,14.791,4.3345,1.5649,0.60088,1.75-0.0749,1.75-6.3883,0-8.2283,1.1406-7.0123-15.927-16.98-10.463-6.1109-14.148-9.1736-11.037-9.1736,0.66174,0,6.6617,3.2118,13.333,7.1372,6.6716,3.9255,12.468,7.327,12.88,7.559,0.4125,0.23198,0.75-2.8825,0.75-6.921v-7.3428l-11.25-5.8485c-13.106-6.8132-14.182-7.5519-12.889-8.8453,0.59469-0.59469,4.9146,1.1636,11.632,4.7345,5.8774,3.1243,10.956,5.4106,11.286,5.0806,0.32995-0.32995-0.38544-1.2901-1.5898-2.1336-2.982-2.0887-2.8064-3.7919,0.31033-3.0097l2.5,0.62746v-12.926-12.926l-5-4.1862c-2.75-2.3024-5-4.5943-5-5.0931,0-1.6059,2.227-0.97108,5.5889,1.5931,1.8027,1.375,3.5327,2.5,3.8444,2.5s0.56672-3.7367,0.56672-8.3038c0-8.1773-0.0534-8.3555-3.5-11.696-3.1896-3.0915-4.5492-6-2.8047-6,0.38241,0,1.9574,1.2092,3.5,2.6871l2.8047,2.6871v-12.616c0-15.654,0.072-15.759,10.871-15.759,4.6778,0,8.2023,0.47369,8.9286,1.2,0.75591,0.75591,1.2014,4.5492,1.2037,10.25,0.004,10.723-0.3577,10.013,14.131,27.712,5.7009,6.9641,17.115,21.014,25.365,31.222s15.795,18.831,16.767,19.161c0.97184,0.33022,2.386,2.0302,3.1426,3.7776,0.75657,1.7475,3.5614,5.7604,6.233,8.9175,16.003,18.911,26.09,28.717,24.036,23.366-1.212-3.1586-10.132-13.844-16.193-19.397-6.4533-5.9133-7.8476-8.2086-4.9863-8.2086,0.825,0,1.5-0.36409,1.5-0.80908,0-0.92551-13.847-23.365-18.792-30.455-2.0537-2.9439-4.3109-4.9599-6-5.359-5.9753-1.4116-10.572-8.118-9.6697-14.107,0.53499-3.5498-0.28365-5.0449-13.985-25.541-13.338-19.952-17.379-27.319-12.987-23.674,0.86161,0.71507,7.5965,10.445,14.966,21.622,7.3699,11.177,14.02,20.322,14.778,20.322,0.75822,0,2.1637-0.86757,3.1234-1.9279,1.6819-1.8585,1.4353-2.363-6.845-14.003-4.7244-6.6414-8.5898-12.561-8.5898-13.155,0-2.5472,2.9227,0.35524,9.2319,9.168,10.789,15.071,11.564,15.918,14.561,15.922,7.2729,0.01,12.821,7.1698,11.857,15.303-0.58574,4.9456-0.5803,4.957,8.1319,17.032,4.7949,6.6458,9.393,13.077,10.218,14.291,6.4181,9.4458,14.554,20.116,14.802,19.414,0.16603-0.47-13.221-27.72-29.75-60.556s-30.052-60.366-30.052-61.178c0-0.81173,0.4923-1.3118,1.094-1.1112,0.60171,0.20057,15.51,29.056,33.129,64.124,17.993,35.81,32.527,63.595,33.156,63.386,0.61636-0.20519,1.2667-1.1261,1.4452-2.0464,0.29373-1.5146-11.725-25.648-47.45-95.279-6.8058-13.265-12.374-24.665-12.374-25.333,0-2.3999,2.4555-0.32802,4.7644,4.02,1.2942,2.4373,10.618,20.631,20.719,40.431,19.993,39.189,22.508,44.015,27.616,53,4.1722,7.3383,6.4116,11.84,8.3274,16.74,1.4282,3.6529,3.7919,4.3529,4.8384,1.4328,0.23116-0.64497-9.8354-28.398-22.37-61.673s-22.814-61.325-22.843-62.333c-0.14032-4.897,2.8354,0.38548,8.107,14.391,3.1967,8.4932,7.3626,19.492,9.2576,24.442s7.7963,20.7,13.114,35c10.417,28.012,13.53,35.773,14.115,35.188,0.2053-0.2053-1.4504-6.1815-3.6792-13.28-2.2289-7.0989-5.4508-17.407-7.1598-22.907s-4.3451-13.825-5.8581-18.5c-9.2875-28.699-9.9898-31.505-7.6986-30.761,1.1292,0.36658,2.0611,2.705,7.0779,17.761,0.8247,2.475,2.6144,7.65,3.9771,11.5s3.0434,9.475,3.735,12.5c0.69156,3.025,2.5026,9.325,4.0246,14s4.3956,13.788,6.3857,20.25c3.4977,11.358,5.5595,14.707,5.5406,9-0.011-3.3243-4.4189-20.945-6.4636-25.839-0.80688-1.9311-2.1788-6.9762-3.0486-11.211-0.86987-4.235-2.9494-12.875-4.6212-19.2s-4.2919-16.225-5.8225-22c-1.5305-5.775-4.4829-16.919-6.5608-24.765-3.5947-13.573-3.882-16.223-1.6063-14.817,1.0424,0.64422,1.8108,3.1608,7.0481,23.082,1.7352,6.6,4.4904,16.95,6.1227,23s4.3271,16.175,5.9883,22.5c4.6506,17.706,7.1404,26.325,8.1896,28.348,0.92321,1.78,1.0088,1.7754,2.3407-0.1261,1.2157-1.7356,0.76717-4.3718-3.7168-21.848-2.8046-10.931-5.4452-21.449-5.8679-23.374-0.42276-1.925-4.0218-16.23-7.9979-31.789s-6.9363-28.582-6.5782-28.94c1.2778-1.2778,3.4752,2.3112,4.4266,7.2299,0.53193,2.75,4.4545,18.5,8.7169,35s8.3257,32.629,9.0296,35.841c1.4066,6.4199,2.4232,8.3233,2.4435,4.5752,0.0148-2.7324-3.1001-29.028-6.0688-51.231-2.852-21.331-3.4571-29.685-2.1501-29.685,2.0562,0,1.2199-5.4708,9.2475,60.5,6.8467,56.267,8.9741,69.5,11.173,69.5,0.51934,0,0.70177-1.2375,0.40541-2.75-0.56707-2.8941-1.8018-14.08-3.6704-33.25-0.6165-6.325-1.9569-17.575-2.9786-25s-2.5789-19.8-3.4603-27.5c-0.88144-7.7-2.0134-16.921-2.5155-20.491-0.50206-3.5702-0.55233-6.8518-0.11171-7.2924,1.6655-1.6655,2.9713,2.0964,3.9169,11.284,0.5378,5.225,2.1796,18.95,3.6486,30.5,5.984,47.052,6.0613,47.483,10.606,59.09,4.3818,11.191,6.9451,15.617,6.9451,11.99,0-1.861-3.726-33.199-6.4891-54.579-0.81746-6.325-2.1948-17.575-3.0607-25-0.86594-7.425-2.678-22.006-4.0269-32.402s-2.2403-19.114-1.981-19.374c0.25932-0.25932,1.0748-0.23998,1.8122,0.043,0.92577,0.35525,1.8871,5.2679,3.1061,15.874,0.97096,8.4475,2.383,20.084,3.138,25.859,0.75491,5.775,2.1008,16.8,2.9907,24.5,2.3031,19.926,5.414,42.502,6.3252,45.904,0.98956,3.6938,3.9127-19.586,5.232-41.667,1.7646-29.534,4.1739-57.247,5.0586-58.186,2.4614-2.6129,2.5135,2.825,0.2921,30.45-3.6842,45.815-6.4614,88.269-5.8166,88.914,1.1314,1.1314,1.7472-1.7492,2.4858-11.627,1.1777-15.752,2.9704-29.626,3.9863-30.85,1.2685-1.5285,1.794-8.0332,3.4688-42.937,1.7018-35.465,2.2784-41.733,3.7931-41.228,1.3086,0.4362,1.1461,10.545-0.82366,51.228-2.0808,42.978-3.4889,67.42-4.1404,71.869-0.43743,2.9872-0.25699,3.7663,0.79146,3.4173,1.4611-0.48633,1.5916-1.2236,4.9199-27.787,2.1645-17.275,2.9829-20.355,4.899-18.439,0.61452,0.61452-0.1244,8.3215-2.0499,21.38-3.4172,23.176-3.445,26.411-0.23131,26.869,1.8813,0.26785,2.258-0.27971,2.752-4,0.73702-5.5509,3.3617-36.421,4.5751-53.81,1.6406-23.511,4.8579-58.198,5.4533-58.793,0.3153-0.31531,1.0482-0.0984,1.6286,0.48201,0.7404,0.7404,0.26325,10.12-1.599,31.433-1.4599,16.708-2.8295,34.878-3.0435,40.378l-0.38918,10,1.8889-9c1.0389-4.95,3.3281-17.55,5.0871-28,7.2467-43.051,9.5758-54.87,10.9-55.311,1.6029-0.5343,1.1146,4.3941-2.5002,25.236-1.3284,7.6589-2.2461,14.094-2.0395,14.301,0.49976,0.49977,2.607-5.6089,2.607-7.5575,0-3.9536,4.3178-17.169,5.6096-17.169,1.8979,0,1.9043-0.0441-2.5674,17.75-15.346,61.067-22.285,94.843-19.806,96.417,2.7857,1.7683,2.5258,2.1945,7.7244-12.667,1.7315-4.95,3.4935-9.6482,3.9155-10.44,1.176-2.2078,3.1162-2.4465,3.1921-0.39285,0.0614,1.6633,0.14752,1.6478,0.92838-0.16667,0.47338-1.1,3.6439-11.225,7.0456-22.5s7.4461-24.55,8.9875-29.5,5.3655-17.55,8.4981-28c5.5375-18.473,8.4727-25.168,8.4727-19.328,0,1.4302-1.7765,8.3892-3.9477,15.464-2.1713,7.0751-5.9963,19.536-8.5,27.692-2.5038,8.1554-4.5523,15.442-4.5523,16.192,0,1.9464-6.5026,23.513-9.944,32.98-4.1842,11.511-11.107,34.783-10.521,35.369,0.27398,0.27399,0.9051,0.0782,1.4025-0.43518,0.49739-0.51333,7.0526-18.483,14.567-39.933,7.5146-21.45,15.017-42.825,16.671-47.5,1.6545-4.675,4.3433-12.325,5.975-17,1.6318-4.675,3.5079-10.039,4.1692-11.92,0.6614-1.8812,1.8194-3.6261,2.5734-3.8774,2.112-0.70402,1.0926,3.2719-5.8455,22.798-3.4201,9.625-8.3978,23.8-11.062,31.5-2.6638,7.7-6.0511,17.375-7.5272,21.5-8.4353,23.572-13.377,38.313-12.559,37.466,0.51241-0.53104,4.3672-8.8405,8.5662-18.466,4.199-9.625,8.9267-20.425,10.506-24s3.5585-8.1875,4.3983-10.25c1.481-3.6373,3.629-5.0876,3.629-2.4504,0,0.71477-2.9761,8.2523-6.6137,16.75-3.6375,8.4977-7.4094,17.729-8.3819,20.514-0.97255,2.7849-3.2047,8.3361-4.9603,12.336-1.7556,4-2.9207,7.9797-2.5892,8.8437,0.33729,0.87896-0.55001,3.3131-2.0142,5.5257-1.6746,2.5306-2.2709,4.3009-1.6557,4.9161,0.61518,0.61518,1.6876-0.23534,2.9781-2.3618,1.9696-3.2455,8.8529-22.103,11.16-30.573,1.5052-5.5267,4.857-5.9304,4.1518-0.5-0.4034,3.1072,1.2829,0.497,5.8148-9,30.1-63.077,37.442-77.81,38.567-77.389,0.5739,0.21421,0.9219,0.92267,0.7734,1.5744-0.1484,0.65169-8.1609,17.633-17.805,37.736-9.6445,20.103-17.328,36.759-17.075,37.012,0.2533,0.25326,2.6009-2.8343,5.2169-6.8613,5.2469-8.0767,31.52-48.991,37.285-58.063,3.2146-5.0584,6.1485-7.4001,6.1485-4.9074,0,0.46827-7.3302,12.281-16.289,26.25-8.9591,13.969-18.429,29.124-21.044,33.678-2.6148,4.5534-9.5326,15.578-15.373,24.5-9.9293,15.168-19.111,32.238-17.96,33.389,0.27853,0.27853,2.893-2.6828,5.81-6.5807s5.6528-7.0872,6.0795-7.0872c1.7971,0,0.4755,2.9722-4.2241,9.5-2.75,3.8198-5,7.6194-5,8.4436,0,2.9278,13.212-11.598,19.504-21.444,16.712-26.149,24.47-38.24,34.01-53,5.6878-8.8,14.275-22.188,19.083-29.75,4.808-7.5625,9.3886-13.75,10.179-13.75,2.0701,0,1.4658,1.1428-9.8928,18.71-5.615,8.6843-14.696,22.765-20.181,31.29-19.348,30.073-22.914,35.611-30.268,47-4.0839,6.325-7.4275,11.908-7.4303,12.408,0,0.49919-1.7487,3.1992-3.8797,6-4.6126,6.0622-6.3859,9.3109-5.8917,10.794,0.4212,1.2635,12.95-12.367,17.031-18.527,1.5204-2.2955,4.269-5.5237,6.108-7.1737,3.6364-3.2626,33.051-37.034,64.628-74.2,8.4932-9.9965,12-13.048,12-10.441,0,0.47232-14.4,17.615-32,38.095s-32,37.696-32,38.258c0,1.7491,16.196-13.28,47-43.614,21.701-21.37,22.554-22.127,23.401-20.756,0.5439,0.88-50.909,53.081-57.819,58.66-2.0438,1.65-4.1942,3.9-4.7787,5-0.7865,1.4802-0.3001,1.2853,1.8716-0.75,5.6351-5.2811,7.3791-2.8413,1.8249,2.5529-1.925,1.8695-3.5,3.6912-3.5,4.0481,0,0.35694,2.1375,0.64444,4.75,0.63889,4.6093-0.01,5.4971-0.5726,29.97-19,13.871-10.444,25.978-18.99,26.905-18.99,1.5139,0,1.493,0.21164-0.2055,2.0885-1.0396,1.1487-13.259,10.612-27.155,21.029l-25.265,18.941v5.0709,5.0709l5.6209-5.1372c8.5512-7.8153,14.969-10.613,27.742-12.091,6.1919-0.71682,9.4341-0.56489,15.259,0.71511,5.8538,1.2863,7.932,1.3815,9.9624,0.45633,3.2546-1.4829,4.7341-0.6261,3.1896,1.847-1.0141,1.6239-0.7601,2.2308,1.7599,4.2036,1.6198,1.2682,3.7667,3.1226,4.7709,4.1209,1.3243,1.3167,2.6316,1.6381,4.7605,1.1705,2.2096-0.4853,2.9349-0.2807,2.9349,0.82787,0,0.80985-0.7217,1.7494-1.6038,2.0879-1.0803,0.41459-1.3609,1.1838-0.8597,2.357,4.8436,11.339,5.716,15.162,6.3295,27.742,0.5816,11.926,0.7925,13,2.5521,13.004,2.9805,0.007,3.046,2.3688,0.097,3.4901-2.1161,0.80453-2.5841,1.5587-2.3313,3.7562,0.1999,1.7374,0.8343,2.6382,1.7232,2.4472,0.7737-0.16625,4.3223-0.57452,7.8858-0.90728,5.3064-0.49553,6.395-0.35034,6.0151,0.80227-0.2724,0.82644-2.7016,1.7458-5.8857,2.2275-2.9821,0.45112-6.444,1.0246-7.6931,1.2743l-2.271,0.4541,0.271,19.681,0.2711,19.681,2.4259,0.57194c3.4701,0.81815,3.7095,2.8132,0.3834,3.1946-2.6886,0.3083-2.8225,0.57834-3.1156,6.2876-0.1685,3.281-0.7445,6.4933-1.28,7.1385-0.5354,0.6452-3.4027,1.4766-6.3717,1.8476-5.616,0.70167-4.8866,0.88115-59.191-14.565-13.335-3.793-13.351-3.7916-13.351,1.1347,0,4.7554-0.4925,4.493,16.5,8.7927,50.12,12.682,59.884,15.355,61.464,16.824,3.2673,3.0384-0.9546,2.1934-38.964-7.7986-6.325-1.6627-12.625-3.2605-14-3.5507-1.375-0.29016-7.3981-1.8383-13.385-3.4404-5.9865-1.602-10.993-2.7859-11.126-2.6307-0.1326,0.15513-0.521,1.1958-0.8631,2.3126-0.5487,1.7914,0.9386,2.752,12.626,8.1552,14.101,6.5189,17.872,8.1441,43.748,18.85,16.869,6.9794,19,8.0545,19,9.5872,0,1.4595-2.4791,1.0013-8.1292-1.5025-2.9539-1.309-9.1958-3.9662-13.871-5.9048-4.675-1.9386-13.9-5.7829-20.5-8.5429s-19.083-7.9778-27.74-11.595c-10.324-4.314-17.091-6.577-19.667-6.577-3.0425,0-4.3398-0.5665-5.7603-2.5153-1.1743-1.6111-4.3498-3.3752-8.8334-4.9072-3.85-1.3156-11.5-4.2817-17-6.5914-11.034-4.6338-14.5-5.6684-14.5-4.3282,0,0.48999,4.275,3.0145,9.5,5.61,8.7032,4.3233,11.616,6.7322,8.1398,6.7322-0.748,0-5.2999-1.8202-10.115-4.0449-10.378-4.7946-13.041-4.7473-5.3188,0.0945,3.0268,1.8977,9.5062,6.0866,14.399,9.3087,4.8925,3.222,9.908,6.4949,11.146,7.273,2.3813,1.4974,3.0087,3.3687,1.1295,3.3687-0.6163,0-6.3538-3.2201-12.75-7.1558-15.801-9.7224-20.598-12.411-19.777-11.083,0.38164,0.6175,10.359,9.116,22.171,18.885,18.788,15.539,23.688,20.354,20.711,20.354-0.4212,0-11.085-8.5362-23.697-18.969s-23.13-18.771-23.373-18.528c-0.24264,0.24263,3.0062,4.3055,7.2197,9.0285,11.313,12.681,8.3287,13.024-3.476,0.39877-7.9155-8.4656-9.9955-10.191-11.045-9.1643-1.0544,1.0316-0.51473,2.8352,2.9219,9.7647,4.5568,9.188,4.9118,10.47,2.899,10.47-0.72395,0-3.257-4.05-5.629-9s-4.5213-9-4.7764-9c-0.25503,0-3.6845,1.129-7.621,2.509-3.9366,1.3799-10.982,2.8424-15.657,3.25l-8.5,0.74105-0.25543,88.25c-0.22673,78.333-0.42691,88.25-1.7814,88.25-0.83927,0-1.7378-0.5625-1.9967-1.25zm-74.97-187.93c0.68237-0.70072-0.30796-0.81456-3.1178-0.3584-3.2105,0.52119-4.2475,0.33058-4.7063-0.86505-0.77699-2.0248-0.62021-2.0903,9.8242-4.1036,6.7457-1.3003,9.6888-2.3777,11.75-4.3015,3.1453-2.9357,3.7709-5.8463,1-4.6526-0.9625,0.41464-4.225,1.6008-7.25,2.6358-10.286,3.5194-18.43,8.1186-19.402,10.957-0.49604,1.4481-0.63535,3.3276-0.30957,4.1766,0.52204,1.3604,1.2224,1.3059,5.9019-0.45902,2.9203-1.1014,5.7596-2.4647,6.3096-3.0295zm250.5-0.77574c0-7.0451,2.6623-6.0886-25-8.9816-30.276-3.1662-34-3.4095-34-2.2214,0,0.59254,1.6875,1.5494,3.75,2.1264,15.112,4.2276,44.554,12.475,48.25,13.516,7.162,2.0171,7,2.1198,7-4.4391zm-210,1.8477c0-1.4376-1.7351-1.0257-2.3421,0.55606-0.37166,0.96852-0.0755,1.2647,0.89301,0.89301,0.79699-0.30583,1.4491-0.95791,1.4491-1.4491zm-27.405-1.0385c1.8918-2.1306,1.8898-2.1375-0.28932-0.99462-2.4307,1.2749-3.9274,3.1401-2.5197,3.1401,0.49721,0,1.7613-0.96548,2.809-2.1455zm157.4,1.2045c0-1.3117-1.0504-1.8356-5.8372-2.9111-5.317-1.1946-5.2876-0.5607,0.087,1.879,4.8351,2.1947,5.75,2.3589,5.75,1.0321zm-229.11-7.4766c4.7346-1.3044,12.321-3.3816,16.858-4.616,7.3702-2.005,8.25-2.4961,8.25-4.6054,0-2.7915,0.88977-2.7301-18.852-1.2996-20.535,1.488-19.148,0.95993-19.148,7.2909,0,5.7378,0.59077,7.0186,2.8393,6.1558,0.7941-0.30473,5.3176-1.6213,10.052-2.9257zm228.61-2.5766c0-4.0384-0.2338-4.4118-3.5-5.5906-1.925-0.69473-6.1572-1.2974-9.405-1.3392-5.7406-0.074-5.8571-0.0232-4.1848,1.8246,2.7036,2.9875,0.6758,3.1109-7.2788,0.44305-4.0492-1.3581-7.9852-2.2301-8.7468-1.9379-2.7375,1.0505-1.2911,2.5651,3.8654,4.0478,11.914,3.4257,27.316,7.293,28.25,7.0934,0.55-0.11757,1-2.1611,1-4.5412zm-177.8-0.50498c1.1771-0.8245,6.1148-2.8994,10.973-4.6108,4.8577-1.7114,10.407-3.942,12.332-4.9567l3.5-1.845-5.5-0.0288c-5.191-0.0272-17.045,2.4468-23.362,4.8756-2.3007,0.88466-2.7446,1.5382-2.2637,3.3326,0.32908,1.2277,0.60447,2.7947,0.61198,3.4822,0.018,1.6505,1.1006,1.5778,3.7089-0.24909zm31.78-0.49146c2.225-0.84595,2.4484-1.2839,1.5299-3-1.4644-2.7362-2.4969-2.5318-5.0051,0.99055-2.3645,3.3206-1.416,3.869,3.4751,2.0094zm226.31-10.759-0.2862-9.75-8.5,0.36367c-4.675,0.20002-17.725,0.87502-29,1.5l-20.5,1.1363-0.1283,5.1547-0.1284,5.1547,4.1284,0.57121c2.2706,0.31417,11.103,1.2888,19.628,2.1659,8.525,0.87706,18.2,1.9539,21.5,2.393,3.3,0.43907,7.7038,0.85731,9.7862,0.92942l3.7862,0.13112-0.2862-9.75zm-312.54,1.1082c2.4074-0.39792,3.75-1.1614,3.75-2.1325,0-1.2889,1.3365-1.4118,9.0357-0.83054,11.215,0.84659,15.964,0.10086,15.964-2.5064,0-1.5718-0.75505-1.8887-4.5-1.8887-3.3333,0-4.5-0.38889-4.5-1.5s1.1667-1.5,4.5-1.5c3.4741,0,4.5-0.36786,4.5-1.6135,0-1.3265-0.75613-1.506-4.25-1.0088-2.3375,0.33259-10.534,1.0921-18.216,1.6878-7.681,0.59567-14.329,1.3076-14.773,1.582-0.59886,0.37012-0.47502,7.3921,0.17817,10.103,0.10796,0.448,4.475,0.24208,8.3102-0.39185zm232.57-3.6082c0.302-2.6249,0.1201-2.7497-4-2.744-7.7609,0.0108-20.764,1.27-20.332,1.9689,0.362,0.58581,3.8405,1.4997,13.016,3.4197,1.1,0.23019,4.025,0.34807,6.5,0.26195,4.1202-0.14337,4.5267-0.38866,4.8164-2.9066zm-175.32-2.75c0.36706-0.59391-0.80328-1-2.882-1-1.925,0-3.7781,0.45-4.118,1-0.36706,0.59391,0.80328,1,2.882,1,1.925,0,3.7781-0.45,4.118-1zm175.13-4.2956c0.3142-0.31422,0.3182-0.98081,0.01-1.4813-0.5762-0.93221-18.525,1.2927-19.577,2.4267-0.7118,0.76761,18.798-0.17491,19.568-0.94535zm-157.18-0.61588c-1.5369-1.4746-19.701-4.9964-22.7-4.4012-2.607,0.51745-3.723,3.0064-2.0833,4.646,0.36666,0.36667,6.3067,0.66667,13.2,0.66667,7.5725,0,12.157-0.36078,11.583-0.91151zm210.55-1.6099c9.075-0.30819,18.862-0.79933,21.75-1.0914l5.25-0.53108v-4.7614c0-2.6188-0.2322-4.9936-0.5161-5.2774-0.2838-0.28383-9.1713,0.79231-19.75,2.3914s-23.509,3.4605-28.734,4.1364c-9.3759,1.2128-9.5043,1.2663-9.8309,4.0924l-0.331,2.8635,7.831-0.63106c4.307-0.34708,15.256-0.88321,24.331-1.1914zm-275.6-2.0529c8.2946-0.86589,15.235-1.7288,15.424-1.9175,0.51692-0.51692-8.9117-1.3581-22.104-1.9721-9.9149-0.46143-11.871-0.30984-12.357,0.95788-0.84344,2.198,0.31655,4.5061,2.2646,4.5061,0.93026,0,8.4778-0.70845,16.772-1.5743zm205.6,0.046c2.3882-1.3923,2.2988-1.4294-2-0.8308-6.0797,0.84663-8.6145,2.2999-4,2.2933,1.925-0.003,4.625-0.66088,6-1.4625zm12-6.2062c3.6864-0.66641,4.5613-1.2427,4.839-3.1876,0.3246-2.2741,0.1475-2.3479-4.2039-1.7515-4.7022,0.64451-18.635,5.6526-18.635,6.6983,0,0.62762,10.442-0.39292,18-1.7592zm-161.75,0.53934c1.5125,0.063,2.7496-0.20476,2.749-0.59512-0.00096-0.69732-15.377-9.4147-17.671-10.018-0.80312-0.21129-1.1118,1.3486-0.98126,4.9593,0.16871,4.6678,0.47288,5.3512,2.6716,6.0018,1.3647,0.40383,4.2812,0.46493,6.4812,0.13577,2.2-0.32915,5.2375-0.54688,6.75-0.48383zm234.11-6.1774c5.9715-0.90307,11.259-1.8902,11.75-2.1937,0.4911-0.30347,0.8928-1.8752,0.8928-3.4927,0-3.689,0.7324-3.678-26.435-0.3966-33.998,4.1066-31.997,3.7449-32.404,5.8552-0.4025,2.09-1.6695,2.1294,16.059-0.49892,4.7963-0.71108,9.0413-0.97213,9.4333-0.58012,1.625,1.625-1.9248,2.8132-12.59,4.2145-11.518,1.5134-13.452,2.0276-12.63,3.3586,0.2568,0.41552,8.2516-0.45496,17.766-1.9344,9.5147-1.4794,22.185-3.4288,28.157-4.3319zm-271.86,4.3726c-0.33992-0.55-1.379-1.0032-2.309-1.0072-0.93004-0.004-8.216-1.5757-16.191-3.4928-18.907-4.545-19.207-4.541-18.81,0.25l0.31037,3.75,10,0.55633c18.295,1.0178,27.652,0.99827,27-0.0563zm0.5-11.031c0-4.7418-0.40703-7.1637-1.25-7.4376-3.2717-1.0632-21.944-7.907-27.511-10.083-3.4433-1.3462-6.8714-2.4476-7.618-2.4476-1.0331,0-1.3873,2.1429-1.4822,8.9687-0.1475,10.612-0.85087,9.9298,13.361,12.955,5.5,1.1708,12.475,2.7421,15.5,3.4919,9.3487,2.3173,9,2.5283,9-5.4469zm197,3.2936c5.5012-1.5276,6.956-2.5899,6.9847-5.1001,0.024-2.0889-7.3151-0.50509-15.735,3.3956-3.9875,1.8474-7.25,3.6181-7.25,3.935,0,0.86454,9.7482-0.49439,16-2.2305zm-158-0.67471c0-0.49893-15.653-9.5875-16.512-9.5875-1.921,0,1.6343,2.5482,8.3372,5.9755,8.4281,4.3094,8.1752,4.1977,8.1752,3.612zm6.9328-1.3375c-0.17152-1.9141-21.716-18.153-24.183-18.227-0.4125-0.0124-0.75,1.092-0.75,2.4544,0,2.754,0.23513,2.9375,14,10.927,9.5811,5.5608,11.055,6.2144,10.933,4.8465zm108.89-3.464c2.3-1.7677,4.1818-3.8346,4.1818-4.5931,0-0.79787-2.1073,0.38521-5,2.8071-2.75,2.3024-5,4.3693-5,4.5931,0,1.0871,2.0186,0.11315,5.8182-2.8071zm95.182,0.29369c9.625-1.0813,20.616-2.2608,24.424-2.6211,3.8083-0.36031,7.5208-0.88404,8.25-1.1638,1.4411-0.55304,1.9631-13.804,0.5757-14.615-0.4125-0.24123-13.688,3.849-29.5,9.0894-19.939,6.6078-28.75,9.9692-28.75,10.967,0,1.0972,0.8917,1.3051,3.75,0.87439,2.0625-0.31078,11.625-1.4498,21.25-2.531zm-168.68,0.17031c0.67279-1.1426-1.1199-5.25-2.2914-5.25-0.56772,0-1.0322,1.35-1.0322,3,0,2.7955,2.1467,4.2488,3.3236,2.25zm19.17-8c-0.37259-4.2625-1.5854-11.125-2.6952-15.25-1.1097-4.125-2.5151-9.8625-3.1229-12.75-0.60787-2.8875-1.3652-5.25-1.6828-5.25-0.84331,0,1.6996,19.412,3.5368,27,4.0522,16.735,5.0131,18.25,3.9641,6.25zm90.024,5.7562c2.7404-0.58987,6.7826-2.0843,8.9826-3.321,3.9155-2.201,4.0019-2.3693,4.0888-7.9668,0.049-3.1451-0.2794-5.7184-0.7293-5.7184-1.3462,0-20.752,10.162-21.725,11.377-0.4949,0.61764-0.6714,2.6202-0.3922,4.4501,0.4282,2.806,0.8433,3.2429,2.6503,2.7893,1.1784-0.29576,4.3847-1.0204,7.1252-1.6102zm-115.52-3.2507c0-2.8501-3.2051-7.7554-5.0673-7.7554-2.0587,0-1.6642,3.6572,0.80804,7.492,3.0933,4.7981,4.2593,4.8702,4.2593,0.26345zm-28.187-0.4886c-0.28956-1.5036-9.949-7.5702-15.359-9.6461-3.4329-1.3173,1.5185,3.2867,8.0461,7.4815,6.7468,4.3357,7.7905,4.6447,7.3129,2.1646zm61.187-0.62014c0-1.2943,0.28295-5.2318,0.62877-8.75,0.42052-4.278,0.29643-6.0655-0.37465-5.3967-1.3118,1.3074-2.3956,16.5-1.177,16.5,0.50759,0,0.92289-1.059,0.92289-2.3533zm143-5.2634c33.943-11.004,32-10.194,32-13.341,0-3.5344-2.7868-11.62-4.4929-13.036-1.0381-0.8616-7.2015,1.681-26.878,11.088-14.042,6.7131-25.792,12.889-26.113,13.723-0.9352,2.4371,0.8601,3.2963,4.3474,2.0806,6.1619-2.1481,5.302,1.2519-0.9493,3.7532-3.7788,1.512-5.2396,3.3484-2.6649,3.3501,0.6875,0.00047,11.825-3.4274,24.75-7.6175zm-251.55,1.7811c-0.87871-0.77288-9.8237-6.0606-28.45-16.818-4.125-2.3823-7.8375-4.3349-8.25-4.339-1.2684-0.0126-0.82889,7.6822,0.50183,8.7866,0.68851,0.57141,7.776,3.3741,15.75,6.2282s15.173,5.578,15.998,6.0531c1.9482,1.122,5.71,1.1973,4.45,0.0891zm-105.73-3.4144c-1.875-11.311-8.778-22.518-17.507-28.424-7.6891-5.2021-14.498-6.7398-26.961-6.0882-7.7156,0.40343-10.283,0.99421-15.517,3.5707-8.7841,4.3244-14.865,10.503-19.035,19.344-3.5236,7.4685-5.105,13.112-3.9874,14.23,0.33993,0.33993,19.277,0.61806,42.082,0.61806h41.464l-0.53874-3.25zm262.28-5.2068c0-4.5201-1.8383-3.5914-3.9237,1.9824-2.7025,7.2231-2.6015,7.6162,0.95302,3.7086,1.6339-1.7962,2.9707-4.3571,2.9707-5.691zm-73.385,1.8046c-1.6301-3.133-2.5375-4.1403-2.5651-2.8478-0.0472,2.2067,3.7528,9.0303,4.5725,8.2106,0.28324-0.28324-0.62006-2.6965-2.0073-5.3628zm62.355-2.1175c3.239-4.8899,3.9425-7.2332,1.5841-5.2759-1.6756,1.3906-7.5549,10.344-7.5549,11.506,0,1.4322,2.9-1.5935,5.9708-6.2297zm-145.15,2.5197c-0.24955-1.7572-4.2564-4.4952-18.292-12.5-9.885-5.6375-18.323-10.25-18.75-10.25-1.3471,0-0.84319,2.7004,0.75078,4.0233,2.2679,1.8822,34.837,20.966,35.792,20.972,0.45075,0.003,0.67575-1.0076,0.5-2.2451zm38.598-5c-7.044-7.4825-14.5-13.75-16.357-13.75-1.2416,0-1.3829,2.9431-0.22852,4.7616,0.71112,1.1202,22.11,16.189,23.04,16.224,0.20412,0.008-2.7002-3.2484-6.454-7.236zm36.583,6.6843c0-1.3018-2.1441-4.4343-3.0352-4.4343-1.3502,0-1.2041,2.3607,0.23518,3.8,1.2547,1.2547,2.8,1.6048,2.8,0.63426zm117.4-9.4821c11.438-8.9201,12.13-9.7659,10.778-13.174-0.5601-1.412-1.94-0.46816-7.6797,5.253-3.8484,3.8359-9.1345,8.6405-11.747,10.677-4.3304,3.3754-6.1157,6.2915-3.8517,6.2915,0.494,0,6.119-4.0715,12.5-9.0478zm9.8517,0.22951c1.8646-1.5894,2.3702-4.1817,0.8155-4.1817-1.0044,0-16.066,11.712-16.066,12.493,0,0.65582,13.116-6.4928,15.25-8.3114zm-69.25,4.7003c0-1.1-0.45-1.7219-1-1.382-0.55,0.33992-1,1.518-1,2.618s0.45,1.7219,1,1.382c0.55-0.33992,1-1.518,1-2.618zm-28.889-3.632c0.14969-6.3882,0.52885-10.827,1.4055-16.454,0.91739-5.8882,0.25274-7.8105-2.4556-7.1022-1.8034,0.47161-2.0612,1.3184-2.0612,6.7715,0,9.5568,1.194,21.534,2.1467,21.534,0.46929,0,0.90335-2.1375,0.96456-4.75zm21.264,1.625c0.89046-4.4523,0.72504-6.9507-0.28968-4.375-1.5174,3.8519-2.1154,7.5-1.2294,7.5,0.49173,0,1.1753-1.4062,1.519-3.125zm124.82-8.4932c12.268-5.84,22.755-11.047,23.305-11.571,1.8306-1.7441-3.209-4.5806-9.4189-5.3014-5.8548-0.67952-6.1317-0.59534-18.589,5.6504l-12.646,6.3402-2.9232,6.2083c-2.6618,5.653-3.6325,9.2917-2.4787,9.2917,0.2445,0,10.482-4.7782,22.75-10.618zm-135.19,3.9182c0-3.0491-0.34206-4.3579-0.97383-3.7262-0.86529,0.86529-0.32271,8.4262,0.60467,8.4262,0.20304,0,0.36916-2.115,0.36916-4.7zm-115-0.10216c0-3.6885-0.26165-3.9688-8.75-9.3767-8.5875-5.471-27.291-15.821-28.59-15.821-0.36306,0-0.6601,1.8111-0.6601,4.0248,0,3.2254,0.44687,4.2136,2.25,4.9756,1.2375,0.523,9.45,5.1933,18.25,10.378,8.8,5.1852,16.338,9.4711,16.75,9.5244,0.4125,0.0532,0.75-1.6142,0.75-3.7054zm25,2.3022c-0.68469-0.825-1.7523-1.4857-2.3724-1.4682-0.62016,0.0175-0.25405,0.6925,0.81357,1.5,2.4937,1.8861,3.1397,1.8729,1.5589-0.0318zm18.812-1.25c-0.8241-0.9625-4.5749-5.575-8.3352-10.25-8.1792-10.169-12.583-15-13.673-15-0.44211,0-0.80383,1.4746-0.80383,3.2768,0,2.7207,1.1456,4.4077,6.75,9.9402,7.1372,7.0456,15.142,13.646,16.655,13.732,0.49774,0.0283,0.23072-0.73606-0.59339-1.6986zm38.662-2.5c-0.77581-3.6819-2.4741-6.0824-2.4741-3.497,0,1.7487,2.0298,6.747,2.74,6.747,0.23042,0,0.11078-1.4625-0.26587-3.25zm6.0146-3.804c-1.2876-6.1702-2.0186-7.7495-3.0906-6.6775-0.5137,0.5137,2.0244,9.7454,3.294,11.981,1.0312,1.8161,0.97469,0.34161-0.20343-5.304zm35.535-4.5517c1.4428-6.3335,1.8476-9.9227,1.1928-10.578-1.5093-1.5093-2.1499,0.18646-3.7437,9.9094-1.705,10.401-1.7648,11.572-0.55301,10.823,0.50606-0.31277,1.9028-4.8825,3.104-10.155zm72.226-4.6204c6.0912-4.6087,7.75-6.4071,7.75-8.4022,0-1.3961-0.4234-2.3884-0.9409-2.2051-1.4123,0.50039-23.57,21.055-24.959,23.154-1.1939,1.8036,3.1791-1.2193,18.15-12.546zm-58.649,5.6009c1.135-2.972,1.3722-4.8017,0.70835-5.4655-0.66381-0.66381-1.7195,0.88795-3.1536,4.6354-1.1856,3.0983-2.1557,6.0983-2.1557,6.6667,0,2.2114,2.9628-1.5471,4.601-5.8366zm-79.993-1.1248c0.73065-0.9625,1.3428-2.48,1.3602-3.3723,0.0175-0.89226-5.2557-9.0017-11.718-18.021-6.4625-9.0192-12.425-17.361-13.25-18.536-8.9995-12.825-13.244-18.387-13.816-18.1-0.37643,0.18896-1.9393,0.97178-3.4731,1.7396-1.5338,0.76781-2.5734,1.9568-2.3104,2.6422,0.26302,0.68541,7.9803,12.545,17.149,26.354,13.859,20.872,16.989,25.007,18.552,24.511,1.3687-0.43441,2.1994,0.10157,3.0497,1.9678,1.3697,3.0062,2.6187,3.2346,4.4555,0.81482zm-59.023-2.5c-0.91231-1.2375-1.9155-3.0216-2.2294-3.9647-0.31383-0.94306-2.7723-3.1275-5.4632-4.8542-2.6909-1.7268-4.8926-3.7677-4.8926-4.5353,0-1.9437,1.0001-1.7556,5.0179,0.94361,1.9152,1.2866,4.7196,3.1384,6.2321,4.115l2.75,1.7756v-4.0388c0-3.9522-0.23064-4.2173-10.75-12.356-17.999-13.926-25.925-19.835-26.603-19.835-0.35587,0-0.64703,5.1053-0.64703,11.345,0,9.5727,0.27339,11.577,1.75,12.829,4.8399,4.105,33.251,20.685,35.622,20.788,0.47959,0.0208,0.12553-0.97461-0.78679-2.2121zm117.41-4.309c0-2.7847-0.38919-4.3185-1-3.941-1.7205,1.0633-1.1372,8.5,0.66667,8.5,0.18333,0,0.33333-2.0516,0.33333-4.559zm-134.11-36.07c-10.087-10.098-18.705-18.36-19.15-18.36-0.44552,0-0.67508,2.5814-0.51013,5.7365l0.2999,5.7365,10,7.8135c23.228,18.149,26.985,20.769,27.35,19.067,0.22323-1.0409-6.3007-8.2914-17.99-19.993zm219.73,18.897c-0.6935-0.69349-2.5907,0.71555-2.5907,1.9241,0,0.6631,0.5738,0.58723,1.5242-0.20152,0.8383-0.69572,1.3182-1.4709,1.0665-1.7226zm-115.59-2.2388c0-3.2249-2.1592-16.353-3.0458-18.519-1.2836-3.1353-1.14,10.876,0.16456,16.057,1.1435,4.5412,2.8813,6.0257,2.8813,2.4614zm-76-1.1007c0-0.59519-3.7125-4.9912-8.25-9.7689-17.478-18.403-33.282-35.461-34.012-36.711-0.41931-0.71754-0.3762-1.5433,0.0958-1.835,0.47201-0.29171,5.4276,4.113,11.012,9.7884,5.5848,5.6753,10.154,10.129,10.154,9.8981,0-0.23138-2.5875-3.6974-5.75-7.7022-13.952-17.668-19.707-24.587-20.451-24.587-0.43924,0-0.79862,4.8253-0.79862,10.723v10.723l20.277,20.277c19.107,19.107,20.492,20.277,24,20.277,2.0476,0,3.7229-0.48698,3.7229-1.0822zm202.5-0.91783c0.3399-0.55,0.168-1-0.382-1s-1.2781,0.45-1.618,1-0.168,1,0.382,1,1.2781-0.45,1.618-1zm-112.5-1.0321c0-0.56766-0.76391-2.7052-1.6976-4.75l-1.6976-3.7179-0.37289,3.3452c-0.20509,1.8398-0.1303,3.9774,0.16619,4.75,0.6195,1.6144,3.6018,1.923,3.6018,0.37268zm414.26,181.78c0.2656-1.7875,2.5103-7.75,4.9882-13.25,11.251-24.974,16.989-38.157,17.426-40.034,0.4647-2.0001-2.0947-7.7214-19.445-43.466-21.934-45.187-25.93-53.873-25.272-54.937,0.4675-0.75642,3.4347-1.0516,8.6258-0.85806l7.9132,0.295,4.0179,8c4.2683,8.4987,10.589,21.817,24.203,51,4.6186,9.9,8.7504,18.357,9.1817,18.794,0.6998,0.70813,5.3951-9.8906,27.154-61.294,3.3758-7.975,6.5991-15.062,7.163-15.75,1.4558-1.7749,15.666-1.7128,16.35,0.0715,0.581,1.5141-2.1304,7.922-29.06,68.679-6.5701,14.823-26.381,59.742-31.535,71.5-2.8926,6.6-5.7004,12.562-6.2395,13.25-0.6284,0.80142-3.6669,1.25-8.4671,1.25h-7.4869l0.483-3.25zm-1111.8-50.708c-18.42-3.9931-33.516-16.303-42.015-34.261-7.4387-15.718-8.6244-37.876-2.9299-54.757,8.7747-26.012,30.861-42.024,57.965-42.024,15.745,0,29.435,5.1214,39.43,14.75,2.9973,2.8875,5.5666,5.25,5.7096,5.25,0.14293,0,0.39057-3.7125,0.55032-8.25l0.29044-8.25h10,10l0.25768,61.888c0.18686,44.88-0.0529,62.263-0.87244,63.25-1.3688,1.6493-15.016,1.8976-17.951,0.32654-1.6756-0.89674-1.9343-2.1534-1.9343-9.3959v-8.3608l-5.804,5.6459c-10.506,10.22-20.52,14.177-37.196,14.697-6.325,0.19723-13.3-0.0316-15.5-0.50853zm33.5-20.215c8.3059-3.8151,15.358-10.744,19.497-19.156,13.375-27.182,5.3295-57.74-18.274-69.406-7.5364-3.7247-7.7516-3.7659-19.672-3.7659-11.412,0-12.4,0.16518-18.614,3.1094-15.75,7.4632-24.829,23.474-24.888,43.891-0.0632,21.734,11.531,39.739,29.95,46.513,8.0956,2.9772,24.239,2.3789,32-1.1859zm249.5,20.151c-17.765-3.5658-33.015-15.88-41.457-33.478-5.4175-11.292-6.5428-16.882-6.5428-32.5,0-12.198,0.27986-14.354,2.9022-22.355,6.9128-21.092,22.391-35.877,43.058-41.13,8.7078-2.2135,22.285-1.9518,31.789,0.61269,8.7992,2.3743,20.172,9.1435,25.407,15.123,1.7357,1.9825,3.4232,3.3372,3.75,3.0103,0.32681-0.3268,0.59419-24.321,0.59419-53.321,0-47.157,0.16708-52.79,1.5818-53.333,2.604-0.99926,15.402-0.68582,17.484,0.42819,1.8938,1.0135,1.9343,3.2644,1.9343,107.46,0,122.17,1.3677,108.5-10.852,108.5-10.382,0-10.148,0.23399-10.148-10.107,0-4.8912-0.28384-8.893-0.63076-8.893s-3.0947,2.4444-6.1062,5.4319c-6.2026,6.1534-16.155,11.784-24.815,14.04-6.2154,1.6189-21.065,1.888-27.948,0.50638zm32.785-19.911c7.4203-2.8686,16.4-11.11,20.458-18.775,11.426-21.583,8.531-46.312-7.2436-61.868-13.382-13.197-33.798-16.111-51.366-7.3327-7.6391,3.8173-13.384,10.123-17.915,19.665-3.3873,7.1327-3.6494,8.3841-4.0378,19.276-0.32058,8.9916-0.0255,12.989,1.2941,17.528,4.7925,16.486,14.974,27.85,29.123,32.504,7.99,2.6284,21.482,2.1753,29.687-0.99699zm709.24,19.866c-13.097-2.1892-29.029-13.861-34.99-25.633l-2.8703-5.6688,4.7663-4.3152c2.6215-2.3734,5.3839-4.3152,6.1388-4.3152s2.8854,2.365,4.7345,5.2556c8.0207,12.538,20.036,19.282,34.2,19.195,9.4114-0.0577,15.884-2.4876,21.688-8.1429,8.6332-8.411,10.939-22.833,5.3013-33.164-4.1293-7.5676-7.7329-10.187-27.101-19.699-20.672-10.152-28.099-15.383-33.328-23.473-4.8559-7.513-6.5021-14.164-5.744-23.206,2.6281-31.348,39.518-46.588,69.293-28.626,6.6548,4.0143,13.39,11.004,13.39,13.896,0,1.1443-1.9855,4.182-4.4122,6.7504l-4.4123,4.6699-5.5578-5.2564c-8.1304-7.6894-16.169-11.201-25.618-11.189-12.183,0.0146-20.256,4.7945-23.466,13.894-3.1248,8.8566-1.2883,17.378,5.1306,23.807,3.1116,3.1161,9.2833,6.6921,23.738,13.754,16.311,7.9687,20.578,10.521,25.869,15.47,8.1498,7.6238,11.465,13.738,12.942,23.869,4.8744,33.443-23.457,58.185-59.691,52.129zm199.41,0.0587c-5.6184-0.9513-13.661-4.9368-18.453-9.1445-4.4965-3.948-9.4948-11.12-9.4266-13.527,0.049-1.7094,7.1917-8.3198,8.9904-8.3198,0.4542,0,2.1022,1.9006,3.6623,4.2235s5.0724,5.9133,7.8051,7.9787c14.513,10.969,33.491,4.2732,33.491-11.817,0-7.8139-4.3838-11.52-22.858-19.323-17.806-7.5211-24.152-14.523-24.132-26.628,0.019-11.457,8.3868-22.693,19.318-25.939,6.4571-1.9176,16.941-1.9131,23.241,0.01,5.875,1.7933,14.057,7.579,15.644,11.062,1.0221,2.2434,0.7487,2.8878-2.7416,6.4622-2.1324,2.1837-4.3765,3.9704-4.987,3.9704-0.6104,0-2.3834-1.3292-3.9399-2.9539-4.0965-4.2758-8.5497-6.0466-15.195-6.0424-7.073,0.005-11.292,2.2498-13.679,7.2793-2.1282,4.4848-2.1085,7.164,0.08,10.879,1.7512,2.9726,3.472,3.9314,24.75,13.79,15.095,6.9939,20.866,14.326,20.896,26.548,0.039,15.769-10.895,28.371-27.317,31.485-5.9699,1.1322-8.4907,1.1332-15.147,0.006zm147.57,0.0316c-14.466-2.414-27.333-11.313-34.757-24.037-3.9521-6.7743-6.7434-18.171-6.7434-27.533,0-24.906,14.853-45.357,37.077-51.051,8.691-2.2265,24.247-1.5182,31.9,1.4526,17.675,6.8608,28.752,22.728,30.741,44.036,0.5137,5.5005,0.3369,6.5962-1.2513,7.7576-1.481,1.0829-9.7821,1.3524-41.658,1.3524h-39.809v3.4625c0,9.3037,8.9524,22.662,18.324,27.343,15.559,7.7704,33.76,3.6442,44.521-10.093,4.1597-5.3099,4.7868-5.7375,7.5943-5.1785,6.9965,1.3929,9.5602,2.6167,9.5602,4.5637,0,4.7898-10.502,16.775-18.735,21.38-10.413,5.825-25.251,8.4664-36.765,6.545zm40.833-61.773c0.9308-1.5473-3.4628-12.918-6.6651-17.25-1.9621-2.654-5.5505-5.7156-8.7474-7.4633-4.7091-2.5743-6.6891-3.0157-15.084-3.3628-8.6389-0.3572-10.234-0.13829-15.046,2.0644-2.9601,1.3552-7.0778,3.953-9.1506,5.7728-5.0818,4.462-11.631,17.577-10.052,20.131,0.6499,1.0516,64.114,1.1571,64.745,0.10763zm213.45,61.764c-11.029-1.9619-24.253-11.498-27.792-20.043-1.3538-3.2684-1.3209-3.348,2.9501-7.1382,2.3755-2.1081,4.6729-3.8329,5.1053-3.8329,0.4325,0,2.3576,2.1375,4.2782,4.75,6.3907,8.693,13.431,12.607,22.734,12.639,11.52,0.0395,17.945-5.8539,17.945-16.46,0-9.1296-2.5126-11.28-24-20.541-11.716-5.0498-17.281-9.3037-20.426-15.615-6.1411-12.324-0.8011-26.9,12.567-34.305,5.0303-2.7862,6.0331-2.9682,16.359-2.9682,9.5537,0,11.565,0.30152,15.295,2.2933,5.6265,3.0042,12.205,8.9979,12.205,11.12,0,1.7981-6.9023,9.0866-8.6051,9.0866-0.5614,0-2.3424-1.4054-3.9578-3.1232-3.9425-4.1923-8.2424-5.8768-15.001-5.8768-9.1724,0-14.709,4.9594-14.709,13.176,0,6.4111,3.6738,9.1592,23.052,17.243,10.54,4.3972,17.515,9.5243,20.984,15.426,2.3712,4.0337,2.7344,5.7224,2.7214,12.655-0.011,6.0115-0.5425,9.149-2.1373,12.622-6.4376,14.021-22.863,21.863-39.567,18.892zm-1837.2-2.5854c-1.4066-1.4066-1.5714-11.586-1.5714-97.066,0-63.914,0.34234-96.134,1.0352-97.429,0.98332-1.8373,2.3576-1.9343,27.428-1.9343,28.598,0,37.119,0.78293,49.786,4.5746,16.971,5.0795,30.872,13.557,42.77,26.083,11.756,12.376,19.098,25.769,23.696,43.224,3.4768,13.198,3.7018,34.097,0.5153,47.863-9.7237,42.01-42.873,70.548-87.394,75.237-5.135,0.5409-19.542,0.99125-32.015,1.0008-19.299,0.0147-22.913-0.21683-24.25-1.5541zm66.652-21.797c14.655-3.7727,24.567-9.3503,34.82-19.595,9.6973-9.689,15.282-19.506,19.079-33.537,2.9092-10.75,3.1474-33.568,0.45757-43.836-5.5911-21.343-16.212-36.117-33.081-46.018-15.016-8.8133-29.657-11.942-53.5-11.433l-13.5,0.28803-0.25848,77.5c-0.14216,42.625-0.018,78.13,0.27591,78.899,0.94554,2.4759,33.567,0.85751,45.706-2.2676zm256.46,22.118c-1.5753-1.1572-1.6823-5.8506-1.4411-63.25l0.26047-62h10,10l0.29569,6.75c0.16263,3.7125,0.6405,6.75,1.0619,6.75,0.42144,0,1.7906-1.3855,3.0425-3.0788,3.3259-4.4985,13.093-10.426,20.468-12.423,8.8194-2.3873,23.818-1.7084,31.962,1.4466,6.8389,2.6494,15.241,10.461,18.475,17.174,4.9554,10.29,5.1954,13.177,5.1954,62.484,0,41.19-0.171,46.249-1.5818,46.79-2.499,0.95895-15.759,0.67663-17.418-0.37084-1.284-0.81079-1.5809-7.5416-2.062-46.735-0.6072-49.468-0.67453-50.086-6.1906-56.778-4.6597-5.653-9.7189-7.7046-19.256-7.8087-7.0314-0.0768-8.978,0.30248-13.891,2.7062-9.7297,4.7603-16.181,15.118-18.565,29.806-0.5611,3.4576-1.0236,22.358-1.0277,42.001-0.007,34.283-0.0851,35.756-1.9418,36.75-2.7255,1.4586-15.319,1.303-17.385-0.21482zm1180.6,0.43255c-0.946-0.60084-1.3006-10.702-1.5-42.735l-0.2611-41.948-5-0.5-5-0.5v-7-7l5-0.5,5-0.5,0.5-16.5,0.5-16.5,6.84-0.29774c4.1819-0.18204,7.388,0.15701,8.25,0.87244,1.105,0.91706,1.41,4.6048,1.41,17.048v15.878h7.8c4.7333,0,8.2718,0.47179,9,1.2,1.3208,1.3208,1.6203,10.59,0.4041,12.504-0.463,0.72845-3.9129,1.3209-8.7347,1.5l-7.9694,0.29601-0.2536,41.5c-0.2298,37.597-0.4124,41.618-1.9412,42.75-1.8525,1.3723-12.069,1.6869-14.044,0.43255zm156.85-0.54657c-0.8167-0.98401-1.0598-14.984-0.8725-50.25l0.2596-48.886h8,8l0.3058,4.216,0.3059,4.216,5.2603-4.2846c6.6369-5.4058,12.32-7.0422,22.374-6.4419,9.5311,0.56917,14.904,3.0728,21.503,10.019l4.7482,4.9987,5.4233-5.5106c7.6858-7.8096,13.914-10.035,26.58-9.4974,7.2014,0.30555,10.499,0.923,13.628,2.5519,6.1926,3.2234,11.724,10.117,14.221,17.723,2.0432,6.2239,2.1507,8.39,2.1507,43.33,0,27.273-0.3102,37.089-1.2,37.979-1.5819,1.5819-11.96,1.545-14.078-0.05-1.4835-1.117-1.6901-5.0807-1.9412-37.25l-0.2809-36-2.5-4.9832c-3.4272-6.8313-7.4264-9.0168-16.5-9.0168-8.0994,0-12.62,2.0705-16.236,7.4364-4.3222,6.4136-4.623,9.0991-4.9922,44.564-0.4016,38.573,0.097,36.5-8.7717,36.5-8.9025,0-8.3821,2.2703-8.7105-38-0.2851-34.965-0.3254-35.579-2.6748-40.778-3.1382-6.9444-6.6157-9.3317-14.517-9.966-12.422-0.99716-19.45,5.2099-22.247,19.649-0.8557,4.4179-1.2895,16.515-1.3141,36.645-0.027,21.996-0.3584,30.372-1.2368,31.25-1.6962,1.6962-13.25,1.5671-14.687-0.16402zm246.11-1.1738c-12.505-6.3236-17.293-21.212-10.71-33.306,2.9687-5.4546,8.1415-10.313,12.91-12.126,4.6708-1.7758,15.212-1.2577,19.562,0.96163,9.5829,4.8888,14.53,13.605,13.843,24.39-0.3376,5.3025-1.0161,7.3543-3.7625,11.379-4.9893,7.3115-10.895,10.648-19.552,11.047-5.9983,0.27625-7.7746-0.0628-12.29-2.346zm17.884-6.121,4.146-1.6589-3.3744-1.0911c-2.2981-0.74312-4.0127-2.2834-5.3757-4.8293-2.7289-5.097-4.5014-5.6097-4.5014-1.3019,0,5.0701-3.1344,7.5769-7.4182,5.933-1.3197-0.50641-1.5818-2.5776-1.5818-12.5,0-7.3769-0.3853-11.893-1.0147-11.893-2.111,0-4.9778,6.5028-4.9816,11.3,0,5.45,1.5544,9.0022,5.657,12.893,5.2602,4.9885,11.279,6.0158,18.445,3.1484zm9.2859-9.3614c1.9032-4.7565,2.0098-7.481,0.4725-12.081-3.1858-9.5324-14.398-14.541-23.364-10.435-2.9502,1.3509-2.9005,1.375,3,1.4564,3.5568,0.0491,7.4252,0.79473,9.5,1.8312,2.9289,1.4631,3.5502,2.3535,3.8078,5.4561,0.1694,2.0392-0.1797,4.6188-0.7757,5.7324-0.8646,1.6156-0.5698,3.0387,1.459,7.0423,1.3984,2.7597,2.9362,5.0176,3.4172,5.0176s1.5984-1.8091,2.4831-4.0202zm-15.568-11.659c-0.4294-2.2299-2.2079-2.278-2.6329-0.0711-0.2108,1.0946,0.2796,1.75,1.3096,1.75,1.0034,0,1.5203-0.65585,1.3233-1.6789zm-1188.4-2.32c0.33992-0.55,1.4915-1,2.559-1s1.941,0.45,1.941,1-1.1516,1-2.559,1c-1.4514,0-2.2915-0.43284-1.941-1z"/>
   <path id="path2834" d="m319.18,453.4-0.25546-87.75-7.2077-1.1932c-3.9642-0.65624-10.039-2.3815-13.5-3.8339-3.4608-1.4524-7.6423-3.1655-9.2923-3.8068-1.65-0.64138-3.5351-1.8411-4.1891-2.6661-1.0035-1.2659-1.5259-1.2941-3.3474-0.18071-2.4832,1.5179-3.771,0.85855-2.1464-1.0989,0.83626-1.0076,0.49905-1.9783-1.398-4.0242-2.8106-3.0311-5.1234-3.3871-7.978-1.228-1.0676,0.8075-3.1413,1.4825-4.6082,1.5-3.0747,0.0367-11.292,3.348-12.282,4.949-0.95577,1.5465-2.5512,1.3381-2.5512-0.33321,0-0.77878,1.6875-2.7365,3.75-4.3505,2.9378-2.299,4.508-2.8439,7.25-2.5162,3.6746,0.43918,11-2.0434,11-3.7278,0-0.54103-1.5-2.6725-3.3332-4.7366-1.8333-2.0641-3.5915-4.4684-3.9072-5.3428-0.45844-1.27-1.75-1.5132-6.4168-1.2085-3.2135,0.20982-7.4178,0.67161-9.3428,1.0262-1.925,0.35458-6.7142,0.51699-10.643,0.36092l-7.1427-0.28378-0.58835,4.8476c-0.32359,2.6662-0.46603,9.2312-0.31653,14.589l0.27183,9.7415-3.0407,0.97883c-3.4984,1.1262-14.025-0.0462-15.731-1.7519-0.71383-0.71383-1.0653-5.5056-0.97759-13.328,0.0801-7.1462-0.29175-12.73-0.89628-13.459-0.6146-0.74054-0.65929-1.4761-0.1103-1.8154,1.4835-0.91686,1.3767-63.359-0.11054-64.644-0.6684-0.57774-3.8839-2.6913-7.1456-4.6969-7.3267-4.5051-5.8366-5.4966,1.9866-1.3218,3.1489,1.6803,5.8007,3.0552,5.893,3.0552s0.22744-4.8375,0.30042-10.75c0.073-5.9125,0.15915-11.964,0.1915-13.448,0.0553-2.5346,0.37147-2.716,5.2302-3,2.8443-0.16624,5.3379-0.80811,5.5414-1.4264,0.20348-0.61826-0.77365-2.4832-2.1714-4.1444-4.4056-5.2358-2.771-4.6595,3.6527,1.2877,7.1665,6.6349,10.59,11.966,8.26,12.86-0.97883,0.37561-1.454,2.053-1.454,5.1322,0,4.0619,0.51932,5.1294,4.6368,9.5314,4.7152,5.0409,4.8946,6.5017,0.36316,2.9572-4.3854-3.4303-5.1399-2.7011-4.681,4.5239,0.26316,4.1437,1.0103,7.1824,2.0477,8.3287,0.89834,0.99266,1.6334,2.1008,1.6334,2.4626,0,0.36179,1.6875,2.2267,3.75,4.1442,4.3797,4.0718,3.1579,4.6459-2.1792,1.024-2.0396-1.3841-4.1324-2.2544-4.6508-1.934-1.0058,0.62162-0.52787,12.765,0.61846,15.713,0.37691,0.96951,0.16016,2.3955-0.48166,3.1688-0.66663,0.80324-1.0362,3.6882-0.86187,6.7289,0.275,4.7982,0.60078,5.4642,3.3051,6.7568l3,1.4339-3.2375,1.3222c-3.1428,1.2835-3.2279,1.4757-2.9094,6.5744l0.32815,5.2522,11.909-0.32148c8.5491-0.23077,12.355-0.72454,13.488-1.75,0.86831-0.78568,2.3308-1.4285,3.25-1.4285,0.91919,0,1.6651-0.5625,1.6576-1.25-0.0616-5.6338-3.8175-8.051-9.9617-6.411-3.7749,1.0076-11.025,0.17399-11.025-1.2676,0-1.1212,3.6612-2.0409,8.191-2.0577,2.03-0.008,3.9701-0.4653,4.3113-1.0173,0.34116-0.55202,1.7177-0.72824,3.059-0.39159,2.9925,0.75108,3.2232-0.94186,0.39794-2.9207-1.9504-1.3661-1.9577-1.4511-0.16542-1.9198,2.8564-0.74697,2.378-7.535-0.68103-9.6616-4.3794-3.0445-9.6089-8.0486-8.4394-8.0755,0.64538-0.0149,3.192,1.5138,5.6592,3.397,4.8826,3.7269,5.6674,3.6564,5.6674-0.50922,0-2.0488-0.8654-3.2866-3.3876-4.8454-1.8632-1.1515-3.9802-2.8077-4.7045-3.6804-1.1977-1.4432-0.97052-1.4421,2.5097,0.0121,2.1046,0.87937,4.1669,1.5989,4.5829,1.5989,0.41593,0,1.2435-1.9125,1.8391-4.25,1.081-4.2425,1.0744-4.2588-3.7097-9.25-5.4327-5.6678-11.13-12.886-11.13-14.102,0-1.4039,9.033,7.8873,12.252,12.602,1.6897,2.475,3.2134,4.6766,3.386,4.8925,0.17258,0.21588,0.99965-0.17672,1.8379-0.87244,2.22-1.8424,1.8696-4.7706-0.93733-7.8338-6.8163-7.4386-13.437-16.186-12.251-16.186,1.3845,0,5.2975,3.8337,7.8887,7.7289,1.4502,2.18,8.1994,7.2711,9.6393,7.2711,0.39957,0,1.8421-2.1172,3.2056-4.7049,2.3071-4.3784,9.4013-12.295,11.018-12.295,0.3922,0,2.4323-1.977,4.5335-4.3933s4.3184-4.2022,4.927-3.9686c0.60861,0.23354,2.8162-0.28969,4.9057-1.1628,3.1634-1.3218,3.6983-1.9545,3.1966-3.7813-1.453-5.291-1.8149-9.694-0.79664-9.694,1.0978,0,1.5882,1.2251,2.6975,6.7385,0.73334,3.6448,1.9063,4.7623,3.7477,3.5705,0.6875-0.44496,3.95-1.259,7.25-1.809l6-1,0.31875-4.4804c0.36958-5.1948,2.0352-8.032,3.3432-5.6948,0.44667,0.79816,0.32067,2.861-0.28,4.5841-1.6286,4.6718-0.25105,5.609,8.063,5.4852,3.9133-0.0582,7.3532,0.27925,7.6441,0.75,0.94512,1.5292,5.3161,0.90341,6.2444-0.89407,0.4971-0.9625,1.1293-4.7031,1.405-8.3124,0.27564-3.6094,1.2561-7.8844,2.1788-9.5,1.6368-2.8659,1.6624-2.7181,1.0501,6.0624-1.1263,16.152-1.2962,14.827,2.0327,15.847,4.2215,1.2944,7.7472,2.8684,9.5,4.2413,0.825,0.64617,2.4918,1.4768,3.704,1.8459,1.88,0.57242,2.5714-0.0349,4.7034-4.1317,2.3098-4.4384,2.503-4.5869,2.546-1.9571,0.0256,1.5651-0.69583,4.1025-1.6032,5.6385-1.7794,3.0124-1.2806,6.0158,0.99922,6.0158,0.77673,0,3.056-3.2625,5.0652-7.25,4.9317-9.7881,11.311-20.017,13.112-21.025,2.2982-1.2862,1.7565,0.46117-1.7765,5.73-4.4323,6.61-5.0922,7.8305-9.3574,17.306-3.5016,7.7792-3.6197,8.3628-2.0241,10,3.8964,3.9978,6.7195,7.8789,7.2657,9.9887,0.83065,3.208,2.4158,2.8072,6.8478-1.7316,2.1384-2.1899,4.081-3.7886,4.317-3.5526,0.7075,0.70752-3.7235,7.2912-5.3193,7.9036-1.658,0.63622-2.0462,6.1625-0.5,7.1181,0.5388,0.33303,3.3513-1.1322,6.25-3.256,6.2427-4.574,7.7702-5.5252,7.7702-4.8386,0,0.28104-1.9125,1.84-4.25,3.4645-7.8705,5.4696-8.8946,6.8501-8.1315,10.962,0.3758,2.0245,1.3223,4.6632,2.1034,5.8638,1.0206,1.5687,1.1379,2.7105,0.4169,4.0577-0.5518,1.0311-0.7949,3.6488-0.5402,5.8171s0.4283,5.6764,0.3856,7.7959l-0.077,3.8536,6.2966-0.65354c10.42-1.0816,17.763-3.5707,18.435-6.2499,0.8054-3.209-0.3073-5.6449-2.2399-4.9033-0.8715,0.33441-2.7348,0.89673-4.1408,1.2496-3.6695,0.92099-2.0322-1.2697,2.5685-3.4365l3.6736-1.7302,0.091-17.242c0.0537-10.245-0.2935-17.242-0.856-17.242-0.5207,0-2.2837,1.125-3.9178,2.5s-3.4172,2.5-3.9624,2.5c-1.611,0,3.0176-5.8248,5.1718-6.5086,3.1293-0.99321,3.999-3.8254,3.4951-11.383-0.364-5.4591-0.1453-7.2202,0.9747-7.847,0.7943-0.44449,5.3547-0.34222,10.134,0.22728l8.6902,1.0354-0.1684,7.9878-0.1684,7.9878,4.2577-4.6475c6.0231-6.5744,12.078-10.562,19.535-12.865,7.5383-2.3283,19.435-2.7592,26.723-0.96773,2.75,0.67598,5.748,1.3117,6.6622,1.4128,0.9143,0.10106,4.7393,2.81,8.5,6.0198,5.3472,4.5638,7.34,7.0581,9.1413,11.442,5.064,12.324,5.3248,15.374,5.3334,62.384,0,24.151-0.2403,44.159-0.5438,44.462-2.1025,2.1025-16.843,2.2823-18.117,0.22098-0.2761-0.44661-0.6333-20.983-0.794-45.637-0.2797-42.924-0.3817-45.049-2.4053-50.112-2.6008-6.5076-8.8213-12.743-14.141-14.176-6.4611-1.7398-21.304-0.71387-25.284,1.7476-7.9672,4.9278-16.852,18.744-16.852,26.206,0,1.6038-0.5162,4.0488-1.147,5.4334-0.8853,1.943-0.8574,2.8665,0.1224,4.0471,0.8394,1.0114,0.9431,1.9531,0.306,2.7796-1.4219,1.8448-1.4582,43.832-0.039,45.542,0.8019,0.9662,0.8164,1.5562,0.05,2.0346-0.654,0.40829-1.0665,4.4391-1.0467,10.23,0.02,5.7621-0.4607,10.478-1.2096,11.877-1.1292,2.1098-1.7104,2.2647-6.389,1.7026-2.8307-0.34011-6.1272-0.62229-7.3254-0.62707-4.3307-0.0173-5.1356-2.1623-4.6565-12.411,0.4261-9.1172,0.3517-9.5409-1.9397-11.042-1.3105-0.8587-5.7224-2.008-9.804-2.5539-4.0817-0.54594-9.2212-1.4339-11.421-1.9733-5.277-1.2938-5.5-1.2757-5.5,0.4466,0,1.1101-0.7526,1.3245-3.0422,0.86656-2.2907-0.45814-3.3944-0.1432-4.4682,1.275-2.3802,3.1438-1.733,3.9879,4.3558,5.6807,6.7648,1.8808,11.206,5.5227,5.135,4.2108-1.9142-0.41365-5.15-1.5972-7.1906-2.6301-2.0409-1.0329-4.2228-1.878-4.8491-1.878-1.5657,0-6.941,5.8901-6.941,7.6058,0,0.76683-0.81515,1.3942-1.8114,1.3942-0.99629,0-2.7775,0.9-3.9582,2s-2.6926,2-3.3598,2c-0.66719,0-1.9235,0.60272-2.7918,1.3394-2.8359,2.4059-17.914,6.6729-25.834,7.3107-4.2598,0.34306-8.3076,1.0672-8.995,1.6093-0.98285,0.77489-1.25,19.553-1.25,87.863,0,56.934-0.34279,86.878-0.99454,86.878-0.64988,0-1.0831-30.409-1.25-87.75zm95.788-125.25c0.067-9.9151-0.579-11.563-4.381-11.186-4.1823,0.4152-3.994-0.40676,0.5874-2.564,2.8578-1.3456,3.75-2.3586,3.75-4.2579,0-3.856-5.5062-3.8491-15.184,0.019-10.076,4.0271-10.811,4.4408-10.842,6.1013-0.015,0.76318-0.3919,1.9716-0.8386,2.6855-1.0333,1.6511,0.022,4.532,1.3579,3.7065,0.5539-0.34232,1.4856-0.32665,2.0705,0.0348,0.6124,0.37845-0.6602,1.9248-3,3.6455-2.2349,1.6436-4.0634,3.3145-4.0634,3.7132s3.4875,1.473,7.75,2.3873c4.2625,0.91433,8.65,1.8567,9.75,2.0941,1.1,0.23743,4.475,0.36171,7.5,0.27616l5.5-0.15555,0.044-6.5zm-15.102-7.4296c2.1828-1.7659,8.6536-2.2651,6.9226-0.5341-0.57,0.56997-2.7975,1.2766-4.95,1.5704-3.6818,0.50245-3.7987,0.44104-1.9726-1.0363zm-29.191-12.084c-0.3684-1.4534-2.5123-1.1994-3.0318,0.3592-0.29207,0.8762,0.20206,1.2202,1.4167,0.98631,1.0258-0.19756,1.7527-0.80304,1.6152-1.3455zm-3.5335-6.2723c-1.5464-0.32387-1.3734-0.84068,1.302-3.8878,3.1424-3.579,3.4418-5.6105,0.89868-6.0976-1.5162-0.2904-11.917,8.3055-11.917,9.849,0,0.50735,1.3234,0.92245,2.941,0.92245,1.6175,0,3.2198,0.45122,3.5607,1.0027,0.4032,0.65239,1.3846,0.58033,2.809-0.20625,1.9433-1.0731,1.9889-1.2509,0.40577-1.5825zm-74.908-2.0741c1.9044-1.2078,0.40555-6.0854-2.2404-7.291-3.1217-1.4223-4.9659-4.6641-3.5939-6.3172,0.80808-0.97368,0.53334-2.2527-1.0662-4.9638-2.258-3.827-4.1875-4.2292-4.7255-0.98499-0.17486,1.0544-0.97371,3.3591-1.7752,5.1214-1.3707,3.0139-1.2937,3.4974,1.297,8.1375,3.2709,5.8584,8.5039,8.5813,12.104,6.298zm20.537-0.76483c-1.0533-5.961-1.3953-14.375-0.58433-14.375,1.8733,0,2.9863,2.5039,3.4713,7.8089,0.52641,5.758,2.2326,8.6749,3.6924,6.3128,0.68045-1.101,1.0288-1.027,1.82,0.38678,1.4016,2.5044,2.308,0.54519,2.9074-6.2842,0.27632-3.1484,0.97438-6.7008,1.5512-7.8942,0.60572-1.2532,0.86542-6.006,0.6147-11.25-0.23877-4.994-0.0791-9.08,0.3548-9.08,0.43391,0,1.0713-1.125,1.4164-2.5,1.266-5.0443,2.2412-2.2984,1.7044,4.7994-0.43801,5.7915-0.23226,7.6192,0.99597,8.8474,0.85141,0.85141,1.697,2.8542,1.8792,4.4506,0.19593,1.7173,0.92351,2.9026,1.7818,2.9026,1.0523,0,1.9389-2.7462,3.2287-10,0.97796-5.5,2.1666-10.891,2.6414-11.979,0.83393-1.9122,0.90594-1.8998,2.1187,0.36626,0.99632,1.8616,1.0041,3.2433,0.0377,6.6949-0.66973,2.392-0.96359,5.0113-0.65304,5.8206,0.65167,1.6982-2.2091,9.5978-3.4758,9.5978-0.46657,0-0.84831,1.575-0.84831,3.5,0,3.2921,1.2071,4.592,2.4287,2.6153,0.80811-1.3075,6.4674-1.9268,6.8595-0.75053,0.96683,2.9005,11.952-10.185,13.866-16.518,0.97525-3.2262,0.85484-3.9208-1.0305-5.9445-2.687-2.8841-4.2138-1.6244-4.529,3.7367-0.12488,2.1235-1.1769,5.691-2.3378,7.9278-2.2513,4.3377-5.2569,7.5141-5.2569,5.5555,0-0.61734-0.708-1.1224-1.5733-1.1224-0.96872,0-1.4352-0.6725-1.2138-1.75,0.20197-0.98298,1.0899-1.626,2.0259-1.467,1.2053,0.20466,1.9833-0.89407,2.8118-3.9709,0.63-2.3396,1.7763-5.1546,2.5474-6.2554,0.77108-1.1009,1.402-2.8712,1.402-3.9341,0-1.8691-0.0656-1.8732-2-0.12251-1.9398,1.7555-2,1.7466-2-0.29532,0-1.1579,0.77813-2.5408,1.7292-3.073,1.6244-0.90907,1.615-1.0939-0.15499-3.0497-1.0363-1.1451-2.7144-2.082-3.7292-2.082s-1.845-0.45-1.845-1-0.7875-1.0028-1.75-1.0062c-0.9625-0.003-3.1-0.71817-4.75-1.5884-2.9202-1.5401-16.008-2.8275-17.757-1.7467-0.48036,0.29688-0.13425,1.3565,0.76914,2.3548,0.90339,0.99823,1.5386,2.6411,1.4115,3.6507-0.12709,1.0097,0.13298,2.6799,0.57795,3.7117,0.46209,1.0715,0.32071,3.2264-0.3297,5.025-0.7001,1.9361-0.89682,5.7394-0.51073,9.874,0.42543,4.5558,0.27782,6.725-0.4576,6.725-2.0545,0-2.5113-2.3348-2.5113-12.836,0-6.856-0.46744-11.425-1.34-13.097-0.73699-1.4123-1.3428-3.1037-1.3462-3.7588-0.0102-1.9789-1.6042-2.3451-5.0218-1.1537l-3.2454,1.1314,0.60419,8.6067c0.33231,4.7337,0.89351,9.8442,1.2471,11.357,0.36789,1.5736,0.22164,2.75-0.34188,2.75-1.4272,0-4.2484-10.835-4.2484-16.316,0-5.1688-0.59103-5.5741-4.1151-2.822-1.3117,1.0243-3.3978,2.1798-4.6359,2.5677-2.4647,0.77223-4.4327,3.6656-3.9092,5.7474,0.18289,0.72734,0.14377,0.98494-0.0869,0.57244-0.74621-1.3343-4.0217-0.79465-4.6186,0.76094-0.31889,0.83101-0.31079,2.856,0.018,4.5,0.38034,1.9017,0.18856,2.9891-0.52719,2.9891-0.61875,0-1.125-0.675-1.125-1.5,0-1.8741-1.394-1.9351-2.8948-0.12675-1.3791,1.6617-0.4253,4.6268,1.4884,4.6268,1.8633,0,4.3009,6.1011,3.6979,9.2555-0.34317,1.7952,0.28456,3.4084,2.134,5.4841,1.4411,1.6174,3.1724,3.6422,3.8474,4.4996,0.67492,0.85738,2.2396,1.8596,3.4771,2.2272,1.8776,0.55775,2.2508,0.28483,2.255-1.649,0.003-1.2746-0.63322-4.3424-1.4132-6.8174-2.7639-8.7704-5.671-20.254-5.2371-20.688,0.46014-0.46013,5.6453,10.326,5.6453,11.744,0,0.44773,0.48362,2.0809,1.0747,3.6292,0.98145,2.5708,1.1851,2.6648,2.3471,1.0831,1.1377-1.5486,1.3945-1.3246,2.4253,2.116,0.63409,2.1164,1.1529,5.461,1.1529,7.4323,0,2.3593,0.59807,3.932,1.75,4.6017,1.9236,1.1184,3.8379,0.82921,3.5954-0.54307zm6.6699-6.125c-0.008-1.7875,0.43469-3.25,0.98469-3.25,1.2702,0,1.2702,3.0345,0,5-0.7356,1.1383-0.97307,0.71622-0.98469-1.75zm-17.767-18.75c-0.68047-2.2-1.203-5.8-1.1612-8l0.076-4,1.4685,3.3657c0.81396,1.8655,1.3315,5.4313,1.1612,8l-0.30726,4.6343-1.2372-4zm43.752-2.2551c0-0.55,0.675-1.5602,1.5-2.2449,0.83674-0.69443,1.5-0.80272,1.5-0.24489,0,0.55-0.675,1.5602-1.5,2.2449-0.83674,0.69443-1.5,0.80272-1.5,0.24489zm-65.5,26.755c-0.33992-0.55-1.068-1-1.618-1s-0.72189,0.45-0.38197,1,1.068,1,1.618,1,0.72189-0.45,0.38197-1zm70.37-4.058c1.2493-3.5836,0.24569-3.7589-2.8226-0.49283-1.4245,1.5164-2.0577,3.0827-1.6625,4.1126,0.85003,2.2152,3.0778,0.41719,4.4851-3.6198zm-13.343,3.0142c0.91815-1.4856-1.3977-3.9431-3.1002-3.2898-0.78479,0.30115-1.4269,0.0119-1.4269-0.64277,0-1.695-2.4945-0.64597-2.5264,1.0624-0.0145,0.77765-0.3786,1.9764-0.80902,2.6639-0.57729,0.9221,0.2667,1.25,3.2174,1.25,2.2,0,4.2903-0.46971,4.6451-1.0438zm19.096-2.9636c0.48223-1.0399,2.4518-2.9436,4.3768-4.2304,4.5728-3.0567,8.1112-9.4449,6.9305-12.512-1.3438-3.491-3.1652-2.6952-6.4305,2.8097-6.909,11.648-8.4545,14.503-8.4766,15.659-0.0336,1.7529,2.5642,0.50727,3.5999-1.726zm-25.233-6.2887c1.4402-1.0531,1.608-1.931,0.89519-4.682-1.1535-4.4515-2.862-4.8893-3.6527-0.93596-1.348,6.7398-0.66885,8.1233,2.7575,5.6179zm402.07,216.7c0-1.4791,2.3604-7.0567,17.951-42.419,2.7767-6.2979,5.0486-12.188,5.0486-13.09,0-0.90156-3.825-9.3809-8.5-18.843-4.675-9.462-8.5-17.351-8.5-17.53,0-0.17944-6.3-13.236-14-29.015s-14-29.338-14-30.13c0-1.1277,1.6465-1.4409,7.5754-1.4409h7.5753l6.1747,13.206c21.684,46.375,31.299,66.066,32.175,65.892,0.55-0.10941,7.409-15.364,15.242-33.898,7.8331-18.535,15.453-36.287,16.934-39.449l2.6917-5.75h6.7572c3.7164,0,6.9974,0.38882,7.2911,0.86404,0.5497,0.88952-2.8504,8.9872-20.422,48.636-5.6062,12.65-12.352,27.95-14.99,34-12.002,27.521-26.254,59.488-28.757,64.5l-2.7468,5.5-6.75,0.29569c-5.6824,0.24892-6.75,0.039-6.75-1.3275zm-488-45.968c0.68469-0.825,1.6949-1.5,2.2449-1.5,0.55783,0,0.44954,0.66326-0.24489,1.5-0.68469,0.825-1.6949,1.5-2.2449,1.5-0.55783,0-0.44954-0.66326,0.24489-1.5zm32-2.3776c0-1.2788,2.9404-3.5154,3.6667-2.7891,0.72629,0.72629-1.5104,3.6667-2.7891,3.6667-0.48266,0-0.87756-0.3949-0.87756-0.87756zm-27-2.1436c0-1.811,6.3008-6.9807,8.4729-6.9519,1.7179,0.0228,1.4932,0.48419-1.4729,3.0244-4.7139,4.0371-7,5.3198-7,3.9275zm-629.5-1.9987c-22.299-4.4638-41.47-24.642-46.024-48.44-4.539-23.723,1.2017-46.571,15.557-61.917,12.402-13.258,27.434-19.224,46.362-18.4,15.836,0.68947,27.59,5.7183,37.611,16.091,2.4715,2.5585,4.8136,4.6592,5.2047,4.6683,0.39108,0.009,0.84108-3.921,1-8.7335l0.28893-8.75h9,9l0.25776,61.436c0.20343,48.487-0.007,61.604-1,62.235-2.0066,1.2739-15.209,0.97822-16.558-0.37088-0.75152-0.75152-1.2-4.4889-1.2-10,0-4.84-0.24875-8.8-0.55277-8.8-0.30403,0-3.0563,2.7041-6.1162,6.0091-6.3312,6.8385-18.078,13.311-27.218,14.997-6.2354,1.1504-19.806,1.1366-25.614-0.0261zm33.675-18.173c15.494-7.1752,25.275-23.164,26.494-43.307,1.2869-21.273-8.1883-38.962-25.534-47.669-6.4636-3.2446-6.9587-3.3306-19.182-3.3306-12.449,0-12.606,0.029-20,3.6889-16.079,7.9584-24.979,23.665-24.938,44.008,0.047,23.242,12.53,41.861,32.485,48.454,2.5589,0.84535,7.783,1.2248,14.5,1.0531,8.8797-0.22698,11.376-0.67397,16.175-2.8966zm248.84,18.095c-2.4665-0.48309-8.1247-2.625-12.574-4.7598-20.065-9.6278-32.671-29.546-34.094-53.868-2.0172-34.485,15.02-60.824,44.164-68.278,20.918-5.3499,42.038-0.0751,56.309,14.063,3.2562,3.2261,6.2038,5.5822,6.5502,5.2359,0.34637-0.34637,0.62976-24.582,0.62976-53.856,0-47.613,0.16682-53.29,1.5818-53.833,2.8554-1.0957,14.973-0.65267,16.218,0.59301,0.91811,0.91811,1.2,25.889,1.2,106.3s-0.28189,105.38-1.2,106.3c-1.2457,1.2457-13.363,1.6887-16.218,0.59301-1.2842-0.4928-1.5818-2.3426-1.5818-9.8333,0-5.0745-0.26071-9.487-0.57935-9.8057-0.31864-0.31864-3.6246,2.5208-7.3466,6.3098-7.5027,7.6378-17.41,13.121-26.961,14.921-6.3639,1.1994-19.77,1.1571-26.098-0.0823zm30.192-16.885c16.691-5.1554,28.031-20.214,30.993-41.157,2.5089-17.741-4.5908-35.727-18.114-45.888-13.849-10.406-32.776-11.737-49.12-3.4555-6.8105,3.4512-15.119,12.94-18.502,21.131-2.4182,5.8542-2.892,8.5698-3.2539,18.65-0.47602,13.258,0.30108,17.496,5.0194,27.374,5.4984,11.511,17.567,21.63,29.052,24.359,6.2838,1.4934,17.325,1.0261,23.926-1.0126zm123.63,17.01c-6.491-1.19-16.215-5.61-23.461-10.68-10.588-7.4-18.187-18.31-22.548-32.36-1.988-6.41-2.3189-9.55-2.2662-21.5,0.05742-13.02,0.27322-14.57,3.0767-22.17,7.4365-20.14,20.114-33.081,38.695-39.5,8.4422-2.9163,25.403-3.5999,35.667-1.4375,20.586,4.3373,35.816,18.759,42.7,40.436,2.8725,9.0447,4.4813,23.771,2.7535,25.205-0.67109,0.55696-22.4,1.0495-53.045,1.2025l-51.908,0.25908,0.36011,4.5c1.4958,18.691,14.336,34.661,32.243,40.1,10.473,3.1812,22.955,2.4701,32.141-1.831,6.3233-2.9608,14.879-10.32,21.468-18.464,1.948-2.408,2.5326-2.5947,5.478-1.75,1.8135,0.52011,4.6502,0.95254,6.3039,0.96096,5.5719,0.0284,6.0686,1.1815,2.965,6.8837-3.7688,6.9244-12.231,16.092-19.003,20.587-3.0608,2.0317-9.2529,5.0508-13.76,6.7091-7.1574,2.6334-9.7779,3.0588-20.695,3.3598-6.875,0.18954-14.598-0.0398-17.162-0.50962zm55.842-75.653c0.68437-1.7834-1.835-10.566-4.9258-17.172-3.2455-6.9362-10.147-13.796-17.547-17.439-6.4541-3.1781-7.0533-3.2806-19.185-3.2806-11.963,0-12.819,0.14027-19.146,3.1382-7.7719,3.6824-13.563,8.6327-17.739,15.165-3.527,5.5159-7.6459,17.429-6.7937,19.65,0.52285,1.3625,5.618,1.5473,42.657,1.5473,37.725,0,42.126-0.16587,42.68-1.6082zm533.32,75.473c-13.422-2.2005-28.512-13.048-34.448-24.762l-2.6808-5.2904,4.2309-3.906c2.327-2.1483,4.7185-3.8966,5.3145-3.8852s2.8255,2.7524,4.9546,6.0911c4.5049,7.0646,13.051,13.836,20.88,16.544,8.1848,2.8306,19.842,2.5054,26.748-0.74637,7.6064-3.581,11.468-7.1158,14.426-13.205,3.5034-7.2124,4.2408-14.9,2.1267-22.172-2.8399-9.7686-8.6236-14.556-31.3-25.906-21.712-10.868-28.874-16.432-33.616-26.116-8.878-18.131-0.152-41.308,18.864-50.103,12.766-5.904,30.939-4.8189,44.035,2.6293,5.7836,3.2895,14.465,11.464,14.465,13.621,0,2.188-6.0951,9.3425-7.9592,9.3425-0.8934,0-3.5607-1.973-5.9274-4.3844-6.4156-6.537-14.028-10.022-22.866-10.468-9.465-0.47796-13.008,0.25923-18.394,3.8268-7.8769,5.2174-11.575,15.967-8.8999,25.866,2.2638,8.3766,7.3033,12.308,30.007,23.408,18.262,8.9284,21.157,10.686,26.577,16.136,7.1938,7.2325,9.9487,12.53,11.63,22.366,2.4424,14.284-1.9539,27.988-12.36,38.528-11.242,11.387-26.892,15.687-45.808,12.586zm199.78,0.0722c-6.0832-0.91212-9.7393-2.4827-16.425-7.056-4.4514-3.0447-11.351-11.664-11.351-14.181,0-0.84259,1.7139-2.8894,3.8087-4.5486l3.8088-3.0166,5.6602,6.3283c7.3131,8.1763,12.868,10.949,21.94,10.949,5.8545,0,7.281-0.38665,10.906-2.9559,2.2934-1.6257,5.0039-4.5239,6.0233-6.4403,2.2529-4.2352,2.3967-11.065,0.3176-15.085-1.9453-3.7618-8.1872-8.3082-14.819-10.794-9.6616-3.6212-20.141-9.0945-23.518-12.283-9.7104-9.1689-9.2812-26.656,0.8637-35.192,7.1652-6.0291,10.645-7.1613,22.009-7.1613,9.1101,0,11.121,0.31743,15.192,2.3981,2.5805,1.319,6.3355,4.0815,8.3446,6.139,4.0829,4.1813,3.8771,5.9193-1.171,9.8902l-2.6474,2.0824-4.2629-3.4931c-5.4936-4.5016-8.3075-5.5175-15.27-5.5129-9.0622,0.006-14.843,4.6478-15.828,12.708-0.3287,2.6925,0.1272,4.7284,1.5762,7.0394,2.048,3.2663,3.5882,4.1267,25.124,14.035,15.165,6.9772,20.264,13.45,20.253,25.714-0.017,20.3-18.014,33.813-40.534,30.437zm147.58,0.11407c-8.7849-1.0394-20.133-6.6962-26.792-13.355-15.353-15.353-19.066-41.805-8.7989-62.696,5.4679-11.126,19.357-22.176,31.348-24.94,6.5218-1.5036,19.668-1.2676,26.35,0.47302,12.066,3.1428,22.453,11.451,27.999,22.396,3.2518,6.4171,6.5362,18.845,6.5362,24.731v4.34h-39.918c-21.955,0-40.63,0.27314-41.5,0.60699-3.709,1.4232-0.5233,15.032,5.4485,23.276,6.5708,9.0708,20.514,14.934,32.469,13.654,9.3167-0.99774,15.972-4.5386,23.501-12.503l6.5-6.8763,4.8553,1.114c2.6704,0.61267,5.0789,1.6967,5.3522,2.409,0.8149,2.1236-4.2899,9.7589-9.8919,14.796-11.51,10.348-26.244,14.612-43.458,12.575zm40.838-62.41c-0.6881-6.4504-4.5235-14.099-9.6308-19.207-6.8808-6.8808-12.483-8.745-24.858-8.2717-11.282,0.43154-16.671,2.831-23.749,10.575-5.8358,6.3853-10.486,17.401-8.2773,19.609,0.374,0.37396,15.562,0.56146,33.75,0.41667l33.07-0.26322-0.305-2.8596zm213.25,62.387c-6.9237-1.0432-13.372-4.0667-18.481-8.6649-4.7346-4.2615-9.9637-11.003-9.9637-12.845,0-0.65043,1.7919-2.6226,3.9819-4.3825l3.9819-3.1999,1.7681,2.1894c5.5326,6.8507,8.6605,9.77,12.964,12.1,9.0323,4.8896,18.851,4.552,25.294-0.86965,4.4046-3.7062,6.0096-7.4388,6.0096-13.976,0-5.4476-0.2083-5.9207-4.3588-9.8976-2.762-2.6464-7.2499-5.3702-12.25-7.4347-23.25-9.5998-30.366-16.419-30.386-29.118-0.027-17.042,16.211-28.131,37.33-25.492,6.4997,0.81208,16.987,6.9848,18.864,11.102,1.0582,2.3224,0.8299,2.8984-2.4472,6.1755l-3.6142,3.6142-3.7464-3.2894c-5.0998-4.4777-9.2695-6.0398-16.11-6.0354-9.4567,0.006-15.44,5.3496-15.626,13.955-0.1543,7.1364,1.2593,8.184,27.192,20.152,15.124,6.9799,21.266,15.75,19.795,28.268-2.2438,19.091-19.27,30.802-40.198,27.649zm-965.44-0.79235c0-1.0632,2.1483-3.2352,3.2-3.2352,1.5522,0,0.77494,1.943-1.2,3-1.1,0.5887-2,0.69453-2,0.23518zm-871.43-1.8066c-1.4066-1.4066-1.5714-11.562-1.5714-96.8,0-72.733,0.28347-95.512,1.2-96.429,1.8883-1.8883,51.026-1.6316,62.419,0.32607,41.01,7.047,70.616,34.445,79.561,73.628,2.9422,12.887,2.9408,32.647-0.003,45.388-4.0734,17.63-11.363,31.296-23.574,44.196-9.5242,10.062-17.494,15.938-28.76,21.206-16.662,7.7907-31.132,9.9893-66.022,10.031-18.398,0.0219-21.916-0.21201-23.25-1.5456zm53.455-17.451c27.493-3.3161,48.94-17.16,60.416-39,12.942-24.628,12.272-60.18-1.5772-83.72-5.4215-9.2154-17.994-21.122-27.365-25.915-15.963-8.1655-26.328-10.323-49.643-10.334-13.346-0.006-15.732,0.22467-16.25,1.5742-0.33385,0.86998-0.60699,36.33-0.60699,78.8,0,58.725,0.28739,77.506,1.2,78.418,1.5103,1.5103,21.891,1.6176,33.826,0.17795zm269.09,17.66c-0.81937-0.98728-1.0593-18.109-0.87245-62.25l0.2578-60.888h9,9l0.29381,7.25c0.16159,3.9875,0.62863,7.25,1.0379,7.25,0.40923,0,3.652-2.8261,7.2062-6.2802,8.6212-8.3785,14.76-10.806,28.962-11.455,8.9906-0.41046,11.434-0.164,17,1.7145,8.2172,2.7734,13.882,7.0507,18.433,13.917,7.0075,10.574,6.9718,10.266,7.3338,63.016,0.26095,38.018,0.0686,47.575-0.97072,48.235-1.6084,1.0203-13.879,1.0898-15.442,0.0876-0.81971-0.52565-1.2775-12.97-1.6088-43.735-0.39083-36.292-0.72595-43.936-2.1483-49-2.3397-8.3304-5.4173-12.54-11.647-15.93-4.7147-2.566-6.3271-2.9018-13.892-2.8927-7.2105,0.009-9.356,0.41641-13.622,2.589-9.523,4.8499-16.03,14.599-18.954,28.399-1.1114,5.2452-1.4522,15.357-1.4655,43.478-0.0154,32.481-0.19703,36.712-1.5992,37.25-3.1464,1.2074-15.136,0.65227-16.304-0.75487zm427.94-0.0703c-1.6269-1.9603-1.6981-208.5-0.0729-211.54,0.93956-1.7556,2.0649-2.0288,8.3017-2.0156,3.9682,0.008,7.8128,0.39444,8.5438,0.85781,1.0737,0.6807,1.328,9.6289,1.3241,46.596-0.006,52.49-1.2537,46.235,10.711,53.677,3.5005,2.1773,6.1655,4.1577,5.9222,4.4009-0.48803,0.48803-11.164-4.7848-13.333-6.5855-0.7511-0.62335-1.7966-0.867-2.3234-0.54143-0.59356,0.36683-0.93208,22.302-0.8902,57.682,0.0568,47.969-0.15668,57.232-1.336,57.979-2.3894,1.5127-15.497,1.1137-16.847-0.51285zm753.19,0.76984c-0.9716-0.39206-1.25-9.6834-1.25-41.721,0-30.724-0.3055-41.522-1.2-42.417-0.66-0.66-3.1565-1.2-5.5477-1.2h-4.3477l0.2977-6.25,0.2977-6.25,5-0.5,5-0.5,0.5-16.5,0.5-16.5h7,7l0.5,16.5,0.5,16.5,7.9694,0.29601c4.8218,0.1791,8.2717,0.77155,8.7347,1.5,0.4209,0.6622,0.7653,3.004,0.7653,5.204s-0.3444,4.5418-0.7653,5.204c-0.463,0.72845-3.9129,1.3209-8.7347,1.5l-7.9694,0.29605-0.2612,41.411c-0.1801,28.541-0.6066,41.827-1.3725,42.75-1.0815,1.3032-9.8925,1.7757-12.616,0.67666zm156.99-0.16805c-0.9905-0.62882-1.2042-11.15-1-49.235l0.2597-48.435h7,7l0.3048,4.75c0.1676,2.6125,0.6311,4.75,1.0299,4.75,0.3989,0,2.2281-1.5933,4.0649-3.5407,6.0358-6.3992,10.27-7.9593,21.6-7.9593,9.2025,0,10.425,0.23518,15.324,2.949,2.928,1.6219,6.7206,4.7719,8.428,7s3.4085,4.4127,3.7801,4.8547c0.3717,0.44204,3.5826-2.1031,7.1353-5.6558,7.4558-7.4558,12.871-9.6479,23.833-9.6479,13.786,0,21.7,4.5856,27.205,15.762l3.2951,6.6903,0.3053,38.431c0.2445,30.782,0.045,38.596-1,39.259-2.0805,1.3195-11.438,1.0059-12.624-0.42312-0.6939-0.83614-1.1783-13.784-1.3936-37.25-0.3668-39.986-0.4158-40.301-7.1982-46.256-4.3284-3.8003-10.843-4.9882-18.528-3.3783-6.5826,1.3789-10.918,5.1982-14.245,12.547-2.253,4.978-2.325,6.049-2.6282,39.09-0.2021,22.022-0.6848,34.421-1.3724,35.25-1.4004,1.6874-11.233,1.6853-12.634-0.003-0.6925-0.83446-1.1753-13.641-1.3854-36.75-0.3063-33.679-0.4296-35.7-2.4443-40.033-2.8114-6.0475-7.2458-9.6474-12.935-10.5-10.134-1.5197-17.769,1.5439-22.36,8.9715-4.159,6.7294-5.0216,14.899-5.0402,47.736-0.015,27.01-0.205,30.715-1.5992,31.25-2.2763,0.87349-10.693,0.71912-12.178-0.22334zm246.03-1.2646c-18.197-9.0072-18.117-33.776,0.1378-43.109,3.1217-1.5961,5.3742-1.9244,11.187-1.6309,6.1406,0.31009,7.9481,0.83829,11.563,3.3792,6.6633,4.6832,10.132,10.339,10.639,17.345,0.5018,6.937-0.781,11.407-4.9094,17.106-5.9854,8.2626-19.361,11.492-28.618,6.9104zm16.414-3.9646c4.4421-1.6719,10.24-7.9469,11.432-12.373,4.0278-14.958-10.653-27.966-24.862-22.03-7.1142,2.9725-11.254,9.2125-11.254,16.962,0,12.661,12.993,21.841,24.685,17.44zm-15.435-5.6027c-0.9017-0.36384-1.25-3.8196-1.25-12.402v-11.898l2.5836-0.64844c3.9071-0.98061,12.45,0.33106,14.554,2.2345,2.1167,1.9156,2.4425,6.4749,0.666,9.3196-0.9964,1.5954-0.7242,2.7853,1.6244,7.1005,2.2893,4.2062,2.5622,5.3481,1.447,6.0545-2.9561,1.8725-4.3222,1.0531-8.1907-4.9131-3.2181-4.9633-5.0413-5.0005-5.5155-0.1126-0.4955,5.1077-2.3092,6.721-5.9183,5.2647zm10.553-16.96c0.1791-1.2556-0.3683-2.3803-1.3403-2.7532-2.3246-0.89205-3.4626,0.0954-3.4626,3.0045,0,2.0315,0.4293,2.4496,2.25,2.191,1.3988-0.19866,2.3646-1.1226,2.5529-2.4423zm-923.21,17.71c-0.3082-0.49871,0.3403-0.67122,1.441-0.38337,2.335,0.61061,2.6302,1.2901,0.5604,1.2901-0.7925,0-1.6931-0.40803-2.0014-0.90674zm-215.06-2.0932c0.33992-0.55,1.379-0.99311,2.309-0.98469,1.4573,0.0132,1.4837,0.14929,0.19098,0.98469-1.9584,1.2656-3.2822,1.2656-2.5,0zm56.873-44.918c-4.3735-1.986-5.9823-3.5878-4.5146-4.4949,1.2607-0.77916,9.1618,2.0968,12.141,4.4194l2.5,1.9489-3,0.00027c-1.65,0.00015-4.857-0.84298-7.1266-1.8736zm154.63-3.9843c0-1.1094,6.0977-3.3334,6.9106-2.5206,0.8523,0.85227-2.9791,3.4228-5.1017,3.4228-0.9949,0-1.8089-0.40598-1.8089-0.90217zm8-18.491c0-0.21616,0.6984-0.661,1.5519-0.98855,0.89-0.34149,1.2914-0.17385,0.941,0.39301-0.5872,0.95021-2.4929,1.4054-2.4929,0.59554zm-152.62-6.0341c-2.6859-2.4714-4.3035-4.5114-3.5947-4.5332,1.642-0.0506,9.9044,7.6005,9.0887,8.4162-0.33582,0.33581-2.8081-1.4115-5.494-3.883zm144.12-1.5729c0.9955-1.1,2.035-2,2.31-2s-0.3145,0.9-1.31,2-2.035,2-2.31,2,0.3145-0.9,1.31-2zm-11.5-18.304c0-0.71711,1.575-2.8304,3.5-4.6962,4.234-4.1037,4.934-1.8577,0.9111,2.9233-2.7409,3.2574-4.4111,3.9287-4.4111,1.7729zm-92.31-20.35c-1.0108-1.0108-0.85208-6.3613,0.18876-6.3613,1.2583,0,2.1647,4.0917,1.2633,5.7025-0.41658,0.74438-1.07,1.0408-1.452,0.65881zm-0.96314-9.9631c-1.08-1.08-0.88844-5.1831,0.27559-5.9025,0.55389-0.34231,1.2866,0.10597,1.6282,0.9962,0.73278,1.9096-0.842,5.9681-1.9038,4.9063zm71.269-1.148c0-0.47734,0.65262-1.7414,1.4503-2.809,1.3992-1.8727,1.4302-1.8613,0.8793,0.32445-0.56887,2.2572-2.3296,4.1351-2.3296,2.4846zm-65.81-8.4295c-1.3186-3.7357-2.7063-15.67-1.7058-14.67,1.1571,1.1571,3.5936,12.451,3.3065,15.326l-0.30198,3.023-1.2987-3.6794zm8.9533,0.37781c-0.69797-1.2659-1.0961-3.2909-0.88477-4.5,0.35564-2.0346,0.47507-1.9808,1.6031,0.72281,1.6383,3.9265,1.055,6.9935-0.71837,3.7772zm24.271-11.448c0.36539-1.7875,0.93139-5.1521,1.2578-7.477,0.89651-6.3859,2.4229-4.009,1.8468,2.8759-0.53919,6.444-1.0236,7.8511-2.7029,7.8511-0.67225,0-0.8206-1.2004-0.40164-3.25zm-111.11,1.1464c-4.7433-1.3722-7.3129-5.6214-7.2872-12.051,0.0205-5.1267,0.19246-5.4668,4.1988-8.3034,9.6915-6.8618,21.107,0.12114,19.35,11.837-0.61164,4.0788-1.1818,4.8952-4.9685,7.1143-4.5478,2.6652-6.215,2.8723-11.293,1.4032zm184.81-5.8852c1.233-2.1938,2.4381-3.7925,2.678-3.5526,0.4832,0.48321-3.6699,7.5414-4.4374,7.5414-0.2654,0,0.5264-1.795,1.7594-3.9888zm-33.099,0.79783c0.008-0.71996,0.45153-1.984,0.98469-2.809,0.78809-1.2195,0.97224-1.0902,0.98469,0.69098,0.008,1.205-0.43469,2.4691-0.98469,2.809-0.55,0.33992-0.99311,0.029-0.98469-0.69098zm-17.985-0.94855c-0.088-4.7425,5.5552-29.608,6.504-28.659,0.9519,0.9519-3.8771,25.554-5.6528,28.799-0.70478,1.2879-0.82513,1.2682-0.85124-0.13953z"/>
   <path id="path2832" d="m726.43,416.24c0-0.49804,2.6512-6.9105,5.8916-14.25s8.4154-19.076,11.5-26.081,5.6084-13.582,5.6084-14.615c0-1.7137-3.7048-9.6068-28.232-60.148-9.6409-19.866-16.768-34.985-16.768-35.571,0-1.0897,12.838-0.32229,13.728,0.82057,0.535,0.6875,5.2806,10.475,10.546,21.75,23.75,50.857,26.534,56.516,27.951,56.796,1.0752,0.21311,3.556-4.5625,8.8311-17,4.0348-9.513,11.651-27.421,16.925-39.796l9.589-22.5,5.8609-0.30425c3.2235-0.16734,6.1924,0.0577,6.5975,0.5,0.4051,0.44234-1.3994,5.5292-4.0101,11.304-2.6107,5.775-8.8139,19.725-13.785,31-4.971,11.275-13.404,30.4-18.741,42.5-5.3366,12.1-13.064,29.65-17.172,39-4.1079,9.35-8.5356,19.362-9.8393,22.25l-2.3703,5.25h-6.0553c-3.3304,0-6.0553-0.40748-6.0553-0.90551zm-414-52.664c-8.6045-1.5462-19.332-5.4877-24.522-9.0102-1.9616-1.3312-3.8337-2.4203-4.1603-2.4203-0.93655,0-9.7082-8.2764-10.817-10.207-0.55-0.95711-2.8412-4.3624-5.0916-7.5673-2.6796-3.8161-4.2971-7.3591-4.687-10.266-0.39177-2.9208-1.3866-5.0909-2.9084-6.3445-1.2722-1.0479-1.863-2.065-1.313-2.2602,0.6187-0.21961,0.86441-4.9339,0.64442-12.364-0.35059-11.84,1.6318-25.117,3.9655-26.559,0.48956-0.30256,0.8901-1.5031,0.8901-2.6679,0-2.4496,5.6767-11.247,11.463-17.764,8.9819-10.117,18.774-15.531,34.037-18.818,8.7552-1.8858,13.801-2.0234,25.827-0.70439,3.6412,0.39939,6.3151,0.23422,7.1279-0.4403,0.98187-0.81487,1.4273-0.59524,1.8173,0.89608,0.30056,1.1494,1.7108,2.2429,3.3721,2.6149,2.7058,0.60583,5.3904,1.7878,12.764,5.6199,6.3318,3.2904,22.591,22.002,22.591,25.998,0,0.56375,0.6572,2.2194,1.4604,3.6793,2.2602,4.1081,3.8262,13.713,3.9379,24.154,0.056,5.225,0.4833,10.091,0.9497,10.813,0.5156,0.79844,0.3028,1.9742-0.5431,3-1.9182,2.3264-4.0663,8.955-3.3025,10.191,0.3451,0.55851-0.3017,2.1968-1.4374,3.6407-1.1358,1.4439-2.065,3.1671-2.065,3.8293,0,1.5893-4.3334,7.4863-10.4,14.152-9.2246,10.136-24.593,17.538-39.1,18.831-3.85,0.34322-8.35,0.78085-10,0.97252-1.65,0.19166-6.375-0.25802-10.5-0.99929zm58.497-52.426c0.98559-1.5947,1.3824-19.961,0.44382-20.542-0.69247-0.42797-4.7838,1.0487-9.1908,3.3172-1.6434,0.84594-0.6222-2.5863,1.2823-4.3098,1.1178-1.0116,2.9808-3.3739,4.1401-5.2496,2.0037-3.2421,2.0276-3.5786,0.4839-6.8158-1.8935-3.9707-2.9668-4.2278-5.0766-1.2157-2.2873,3.2656-3.1878,1.3086-1.2589-2.7362,0.92357-1.9368,1.6792-3.7694,1.6792-4.0726,0-0.30315-2.8125-3.2208-6.25-6.4836-9.3126-8.8394-18.694-12.897-29.817-12.897-3.7484,0-7.1069,0.47185-7.4633,1.0486-0.44373,0.71797-1.0888,0.68276-2.046-0.11167-1.8089-1.5012-4.9051-0.68467-14.289,3.7686-9.8791,4.688-18.021,12.871-22.656,22.773-4.7797,10.209-5.0618,11.894-2.5763,15.385,2.5795,3.6225,2.6076,4.0835,0.21076,3.4568-3.1253-0.81727-3.5698,1.6784-0.79343,4.4547,2.0342,2.0342,2.8584,2.3233,3.9769,1.3951,0.88751-0.73657,3.0668-0.94395,5.8749-0.55906,3.4215,0.46897,4.8525,0.22344,6.1273-1.0514,1.336-1.336,2.3423-1.4757,5.1149-0.71016,3.9456,1.0894,4.5866,0.73791,4.5866-2.5152,0-1.2833,0.45-2.3333,1-2.3333s1,1.1467,1,2.5483c0,1.9257,0.79055,2.8807,3.236,3.9089,2.0576,0.86513,3.8401,1.0373,4.895,0.47274,1.1346-0.60719,2.0603-0.40434,2.9284,0.64167,0.81481,0.98178,2.5535,1.4219,4.855,1.229,3.0426-0.25504,3.602-0.67917,3.694-2.8006,0.26503-6.1104,0.45601-7,1.5029-7,0.72362,0,0.88734,1.1938,0.46932,3.422-0.35309,1.8821-0.29016,3.6395,0.13985,3.9052,0.43,0.26576,2.978,0.23566,5.6622-0.0669,3.6298-0.40914,5.0047-1.0254,5.3655-2.4052,0.26682-1.0203,0.89229-1.8551,1.3899-1.8551,0.49764,0,1.4174-1.125,2.0439-2.5s1.7418-2.5,2.4786-2.5c1.6184,0,1.7329,1.2066,0.25482,2.6847-0.59657,0.59657-0.93407,2.1491-0.75,3.45,0.30037,2.123,0.77789,2.337,4.6606,2.0887,2.3792-0.15218,5.4308-1.0006,6.7812-1.8855,2.635-1.7265,4.5338-1.0788,2.5762,0.87881-2.1088,2.1088-1.3562,4.7039,1.5667,5.4022,1.5125,0.36131,3.2555,1.0526,3.8732,1.5363,0.61779,0.48365,1.8225,0.61106,2.677,0.28312,1.1992-0.46017,1.4236-0.0984,0.98335,1.5851-0.75553,2.8892,2.7411,5.3636,4.2133,2.9816zm-56.856-13.215c-0.33734-1.2593-0.56336-3.8647-0.50225-5.7897,0.0848-2.6724,0.29933-2.2004,0.90707,1.9959,0.83643,5.7753,0.63405,7.6719-0.40482,3.7937zm19.998-10.29c0.31659-0.825,0.75246-1.5,0.96862-1.5,0.21615,0,0.39301,0.675,0.39301,1.5s-0.43588,1.5-0.96862,1.5c-0.53273,0-0.70959-0.675-0.39301-1.5zm20.362-1.7551c0-0.825,0.675-2.0602,1.5-2.7449,1.22-1.0125,1.5-0.96484,1.5,0.25511,0,0.825-0.675,2.0602-1.5,2.7449-1.22,1.0125-1.5,0.96484-1.5-0.25511zm-16.474-7.9949c0.90844-4.3113,2.4741-5.9135,2.4741-2.5318,0,3.3166-0.93225,5.7818-2.1864,5.7818-0.57095,0-0.68972-1.3419-0.28766-3.25zm2.553-11.167c-0.0434-1.0542,0.19293-1.6448,0.52522-1.3125,0.33229,0.33229,0.36781,1.1948,0.0789,1.9167-0.31922,0.79773-0.55618,0.56078-0.60416-0.60417zm-728.67,95.933c-26.775-5.8257-45.411-31.687-45.411-63.016,0-36.489,25.31-63.5,59.5-63.5,15.576,0,29.139,5.4146,39.242,15.666,3.4329,3.4836,6.6785,6.3338,7.2125,6.3338,0.53707,0,1.0993-4.1328,1.2583-9.25l0.28753-9.25,8.25-0.29044,8.25-0.29044v61.04,61.04h-8.5-8.5v-10c0-8.1448-0.27351-10-1.4743-10-0.81088,0-2.1458,1.2985-2.9665,2.8855-3.9044,7.5503-19.003,16.817-30.993,19.023-7.7487,1.4254-18.545,1.2634-26.155-0.39234zm32.022-14.495c26.143-8.7058,38.61-45.663,24.919-73.87-6.0736-12.513-20.464-22.671-34.198-24.141-30.262-3.2393-52.078,17.343-52.14,49.191-0.0191,9.9499,1.4425,16.763,5.2985,24.7,6.7893,13.974,19.302,23.522,34.687,26.469,4.5636,0.87399,15.283-0.30065,21.433-2.3486zm250.84,14.468c-7.512-1.6322-18.079-7.0393-24.468-12.52-13.84-11.873-21.904-33.679-20.428-55.238,0.79717-11.639,2.0669-16.581,6.8688-26.731,5.0527-10.68,14.849-20.838,24.804-25.718,22.829-11.193,49.996-7.3543,66.841,9.445,3.6808,3.6708,6.9696,6.156,7.75,5.8565,1.1177-0.42889,1.3558-9.9218,1.3558-54.052v-53.531h8.5,8.5v105.5,105.5h-8.5-8.5v-9.941c0-5.7098-0.43624-10.211-1.0249-10.574-0.5637-0.3484-2.2512,0.85333-3.75,2.6705-11.887,14.412-26.002,20.975-44.659,20.765-3.8865-0.0437-9.8672-0.6881-13.291-1.4319zm35.848-16.153c11.836-5.5611,18.966-13.719,23.967-27.419,9.6503-26.442-0.29709-53.474-23.81-64.701-7.6049-3.6313-8.0397-3.7143-19.28-3.6786-10.358,0.0329-12.185,0.32227-18.391,2.9127-16.882,7.0465-26.905,24.016-26.905,45.551,0,14.9,3.9643,25.966,12.839,35.836,10.277,11.431,19.406,15.319,34.957,14.888,8.7777-0.24303,10.81-0.65725,16.623-3.3888zm118.9,16.53c-9.495-1.58-21.57-8.2-29.633-16.26-7.761-7.75-11.775-14.63-15.545-26.64-3.3594-10.7-3.3652-29.18-0.0124-39.96,3.2868-10.573,8.5324-19.511,15.595-26.574,11.211-11.211,23.052-16.335,39.671-17.165,24.611-1.2296,44.687,8.9042,55.263,27.896,4.3824,7.8692,8.6393,23.623,8.6393,31.971v5.8718h-52.433c-60.326,0-54.672-1.1708-52.175,10.805,4.8836,23.422,22.665,38.195,45.971,38.195,15.611,0,28.531-6.3235,37.681-18.442,2.3697-3.1387,4.9817-5.5583,6.0002-5.5583,3.2502,0,11.956,2.324,11.956,3.1916,0,1.1428-4.5925,8.4206-8.2866,13.132-6.5073,8.2993-20.797,16.528-33.301,19.177-7.5965,1.6093-20.862,1.7708-29.39,0.35768zm56.656-73.464c0.91268-2.3784-1.2981-10.811-4.7069-17.953-7.9357-16.628-25.005-24.976-45.472-22.24-17.895,2.3926-32.529,16.217-36.659,34.63-1.0012,4.4638-0.96355,5.4784,0.23151,6.2347,0.79062,0.50035,20.289,0.91014,43.709,0.91862,37.903,0.0137,42.345-0.15092,42.897-1.5901zm533.82,73.592c-12.281-1.8763-24.107-8.9512-31.509-18.849-5.3283-7.126-5.8747-9.5651-2.8637-12.784,4.4587-4.7673,5.3005-4.7155,8.7029,0.53533,8.6358,13.327,23.672,21.068,38.597,19.87,20.048-1.6093,33.628-20.296,28.234-38.852-3.2899-11.317-9.2495-16.304-33.763-28.25-20.588-10.034-26.185-14.429-31.105-24.428-2.9546-6.0046-3.29-7.5675-3.2641-15.21,0.024-7.1148,0.4745-9.4791,2.734-14.354,7.1626-15.452,19.02-22.679,37.169-22.652,13.657,0.0201,23.905,3.8233,33.247,12.338,2.9268,2.6677,5.3215,5.6169,5.3215,6.5538,0,0.93692-1.5778,3.2327-3.5062,5.1018l-3.5061,3.3983-4.2439-4.0977c-2.3341-2.2537-6.9249-5.5905-10.202-7.415-5.2631-2.9304-7.0192-3.3637-15.057-3.7153-7.7827-0.34039-9.8564-0.0721-14.336,1.8547-17.184,7.3924-19.209,30.31-3.7113,42.01,2.8617,2.1606,10.571,6.4283,17.132,9.4838,6.5611,3.0554,13.054,6.0863,14.429,6.7352,5.2741,2.489,12.67,7.6006,16.716,11.553,8.6881,8.4873,12.688,22.126,10.34,35.261-4.5682,25.562-27.266,40.235-55.556,35.913zm192.39-1.4564c-7.824-2.8798-17.277-10.897-20.066-17.019-0.9417-2.0668-0.7043-2.7164,1.7959-4.9147,2.889-2.5402,5.381-3.3446,5.381-1.7371,0,0.47257,1.7526,2.8502,3.8946,5.2837,10.127,11.505,26.17,14.008,35.768,5.5806,8.769-7.6993,8.5244-20.512-0.5181-27.135-1.8458-1.352-7.7748-4.3227-13.175-6.6016-13.484-5.6897-19.853-9.7192-23.43-14.823-2.6989-3.851-3.0389-5.1377-3.0389-11.5,0-8.9809,2.8101-15.247,8.8235-19.674,12.401-9.1301,34.239-7.4296,43.33,3.3742l2.4877,2.9564-3.0791,3.079c-2.2294,2.2294-3.4417,2.806-4.3935,2.0896-9.8657-7.4258-15.799-9.3392-22.971-7.4078-6.0629,1.6326-9.3137,4.3481-11.238,9.3879-2.3292,6.099-1.3568,10.535,3.1835,14.521,3.7252,3.2708,6.267,4.5833,20.229,10.446,15.593,6.548,21.284,12.734,21.952,23.864,0.7957,13.252-4.5927,22.929-15.919,28.589-5.713,2.8548-7.0095,3.104-15.814,3.0393-5.3133-0.039-11.2-0.6631-13.201-1.3993zm146.61,0.0676c-14.467-4.5872-26.49-16.686-31.058-31.254-2.5224-8.043-2.9579-21.739-0.9492-29.844,6.734-27.172,29.78-41.634,58.027-36.412,6.8275,1.2621,15.896,5.5818,20.85,9.9319,7.5813,6.6565,13.836,20.362,15.166,33.23l0.6973,6.75h-40.545c-33.631,0-40.786,0.24138-41.961,1.4155-3.8512,3.8512,2.6117,20.955,10.754,28.461,7.2449,6.678,14.383,9.5247,24.018,9.5788,4.4,0.0247,9.6587-0.30752,11.686-0.73833,5.0559-1.0744,14.587-7.7686,18.81-13.212,2.6046-3.3571,4.1807-4.5052,6.1849-4.5052,3.3529,0,7.8197,1.6429,7.8197,2.8762,0,0.50911-2.0454,3.6466-4.5453,6.9723-5.4785,7.288-14.221,13.381-23.16,16.142-7.6189,2.3532-25.228,2.6895-31.795,0.60712zm49.1-56.998c0.2954-0.76985-0.1234-3.624-0.9307-6.3425-4.4991-15.15-12.698-22.811-27.096-25.318-18.286-3.1843-34.617,6.8314-40.243,24.681-2.8128,8.923-4.9982,8.3792,33.67,8.3792,28.271,0,34.154-0.23799,34.6-1.3997zm202.9,55.553c-7.3294-3.475-11.6-6.9854-15.637-12.853l-3.075-4.4694,2.7932-2.9155c1.5363-1.6035,3.3229-2.9155,3.9702-2.9155s2.4075,1.7758,3.9116,3.9462c3.6463,5.2615,11.83,10.727,18.26,12.193,17.604,4.0154,31.431-11.905,23.39-26.931-1.7446-3.2598-6.3846-6.0821-20.195-12.283-15.658-7.0311-19.104-9.5645-22.528-16.563-2.218-4.5334-2.5691-6.3257-2.1101-10.773,0.6914-6.6988,3.531-12.337,8.3398-16.559,6.0597-5.3205,9.7043-6.451,20.882-6.477,11.329-0.0263,14.62,1.1038,21.75,7.4686l4.2505,3.7944-2.9371,3.0919c-1.6154,1.7005-3.3439,3.0919-3.841,3.0919-0.4972,0-2.7207-1.5551-4.9412-3.4557-11.397-9.7555-29.266-4.6482-31.333,8.9557-1.2045,7.9276,3.501,11.718,27.673,22.292,14.328,6.2678,19.366,12.723,19.282,24.708-0.088,12.537-6.055,21.636-17.763,27.087-4.2791,1.9924-6.7301,2.3946-14.64,2.402-8.3782,0.008-10.208-0.32693-15.5-2.8358zm-1013,0.93921-5-0.5929,0-60.5,0-60.5,4.4804-0.31875c2.4642-0.17532,5.067-0.80565,5.7841-1.4007,1.666-1.3827,6.1896,0.85698,6.3391,3.1385,0.057,0.86956,0.23559,9.006,0.39697,18.081s0.30701,17.175,0.32364,18c0.0166,0.825-0.14069,9.3546-0.34958,18.955-0.25783,11.849-0.0233,17.884,0.73043,18.792,0.81617,0.98343,0.80362,1.6444-0.0474,2.4954-1.418,1.418-1.5463,12.399-0.15492,13.259,0.67028,0.41425,0.67028,1.2409,0,2.4933-0.55147,1.0305-1.0027,7.9782-1.0027,15.439v13.566l-3.25-0.1571c-1.7875-0.0864-5.5-0.42391-8.25-0.75zm201.75,0.1837-3.25-0.40332,0-10.428c0-9.3452-0.2077-10.558-2-11.677-2.533-1.5819-2.5286-2.3964,0.017-3.062,1.9138-0.50047,2.007-1.2482,1.8278-14.664-0.1038-7.7752-0.5625-14.368-1.0193-14.65-0.4568-0.28231-0.4135-1.2925,0.096-2.2448,0.5097-0.95236,0.9328-14.763,0.9403-30.689,0.01-15.927,0.042-30.336,0.076-32.02,0.06-2.9549,0.2114-3.0561,4.3124-2.8855,2.3375,0.0972,6.1625,0.23774,8.5,0.31228l4.2498,0.13552v8c0,4.7108,0.4146,8,1.0083,8,0.5546,0,3.8171-2.8383,7.25-6.3073,9.1934-9.29,17.524-12.622,31.676-12.668,21.702-0.0714,35.086,11.186,39.075,32.862,0.5563,3.0239,0.991,24.349,0.991,48.619v43.233l-3.75,0.61983c-6.238,1.0311-12.277,0.74313-12.754-0.60815-0.2426-0.6875-0.572-21.275-0.7321-45.75-0.3294-50.371-0.225-49.655-8.5194-58.469-5.1378-5.4598-9.7554-6.9128-21.163-6.6596-7.012,0.1557-9.2375,0.63286-13.323,2.8567-5.0799,2.7648-11.216,9.301-14.199,15.124-4.6852,9.1476-4.8519,10.776-5.2348,51.148-0.2008,21.175-0.5896,39.512-0.8641,40.75-0.4382,1.9762-1.0746,2.2305-5.2299,2.09-2.602-0.088-6.1934-0.34153-7.9809-0.56336zm889.75-2.0266c-3.1472-1.6559-6.4748-4.48-8.3642-7.0984-2.9101-4.033-3.1377-4.9449-3.1377-12.573,0-7.3044,0.3086-8.691,2.7585-12.393,1.5172-2.2926,4.6344-5.4098,6.927-6.927,3.7021-2.4499,5.0886-2.7585,12.393-2.7585,7.628,0,8.54,0.22758,12.573,3.1377,2.6184,1.8894,5.4425,5.217,7.0984,8.3642,10.363,19.696-10.552,40.611-30.248,30.248zm17.767-1.7977c15.816-6.6085,16.264-28.393,0.7315-35.562-4.7418-2.1885-11.312-2.4145-15.782-0.54291-4.534,1.8981-10.471,8.8196-11.284,13.156-1.165,6.2099,0.067,12.311,3.2971,16.322,6.0627,7.529,14.838,10.054,23.038,6.6276zm-16.768-18.452,0-11,7.3,0c4.3444,0,7.7858,0.48584,8.5,1.2,1.6702,1.6702,1.498,5.9295-0.3462,8.5625-1.4336,2.0467-1.3608,2.4805,1,5.9546,3.0461,4.4827,3.2209,6.2828,0.6102,6.2828-1.2165,0-2.7693-1.4826-4.178-3.9891-2.6524-4.7192-5.6335-6.0766-7.5598-3.4423-0.7294,0.99752-1.3262,3.0777-1.3262,4.6226,0,2.1422-0.4747,2.8089-2,2.8089-1.8788,0-2-0.66667-2-11zm11.988-2.9771c0.8404-1.5703,0.6419-2.3933-0.9648-4-2.5656-2.5656-4.6578-2.5736-6.0229-0.0229-0.7605,1.421-0.7605,2.579,0,4,1.393,2.6028,5.5996,2.6166,6.9877,0.0229zm-1919-71.555,0-96.681,30.25,0.4594c28.756,0.43671,30.744,0.59024,40.25,3.1079,18.365,4.864,33.246,13.444,45.62,26.304,40.197,41.773,33.531,113.68-13.556,146.23-8.9894,6.2144-18.087,10.409-30.065,13.862-8.6674,2.4985-10.173,2.6092-40.75,2.9957l-31.75,0.40131v-96.681zm65,78.514c25.736-6.7245,43.746-22.109,52.853-45.147,13.547-34.269,3.8868-76.528-22.059-96.492-7.496-5.768-19.311-11.685-28.794-14.42-6.1665-1.7786-11.013-2.2514-27.257-2.6592-14.859-0.37303-20.127-0.18875-21.25,0.74335-1.3013,1.08-1.4933,11.358-1.4933,79.917,0,61.582,0.27161,78.96,1.25,79.978,2.1605,2.247,36.145,0.85217,46.75-1.9188zm257.24-42.731,0.25775-60.75,8.25-0.29044,8.25-0.29044,0,8.0404c0,9.6594,1.0047,10.181,6.5565,3.4062,8.1451-9.94,20.685-14.897,35.756-14.134,20.255,1.0253,31.071,9.7891,36.151,29.291,1.2708,4.879,1.5361,13.632,1.5361,50.687v44.79h-8-8v-37.776c0-20.777-0.47494-41.564-1.0554-46.193-2.4407-19.465-10.399-27.279-27.945-27.439-7.0909-0.0646-9.3263,0.32794-13.484,2.3681-6.3037,3.0931-12.247,9.179-15.777,16.155-5.1115,10.103-5.7029,15.904-5.7219,56.135l-0.0174,36.75h-8.5078-8.5077l0.25774-60.75zm428.67,60.333c-0.32779-0.32778-0.31342-127.66,0.0223-197.83l0.061-12.75h8,8l0.0341,9.75c0.0266,7.5824,0.002,180.59-0.0275,197.5l-0.007,3.75h-7.8333c-4.3083,0-8.0208-0.1875-8.25-0.41666zm752.08-40.883c0-30.789-0.3054-41.605-1.2-42.5-0.66-0.66-3.135-1.2-5.5-1.2h-4.3v-5.5-5.5h4.9809c6.1213,0,5.9494,0.52022,6.2763-19l0.2428-14.5h6,6l0.5,16.5,0.5,16.5,8.25,0.29044,8.25,0.29044v5.4596,5.4596h-6.9182c-11.167,0-10.082-4.6411-10.082,43.107v41.893h-6.5-6.5v-41.3zm157.24-6.45,0.2597-47.75,6,0,6,0,0.3131,4.5c0.4489,6.4506,1.6725,7.0798,5.2731,2.7116,7.0242-8.5216,19.922-11.886,32.051-8.3602,5.8691,1.7062,13.304,7.3665,15.799,12.028,1.9975,3.7324,4.0515,3.1805,8.1371-2.1864,2.0686-2.7174,5.8574-5.956,9-7.693,5.0709-2.8029,6.1172-2.9989,15.927-2.9827,8.8045,0.0145,11.154,0.36488,14.553,2.1698,5.8594,3.1119,10.124,7.8996,12.696,14.251,2.1761,5.3759,2.2612,6.8233,2.5465,43.36l0.2952,37.799-6.2952-0.29889-6.2952-0.29889-0.5-36c-0.4712-33.929-0.6211-36.259-2.6048-40.5-2.5267-5.4018-4.9901-7.7362-10.079-9.5512-12.448-4.4396-24.829,0.73216-29.494,12.321-2.2097,5.4886-2.3284,7.1647-2.8145,39.73l-0.5075,34h-6-6l-0.5-35.574-0.5-35.574-3-5.8489c-3.8315-7.47-8.9396-10.503-17.689-10.503-7.4672,0-11.375,1.6573-16.004,6.7875-6.6805,7.4035-7.1661,10.48-7.5703,47.962l-0.3585,33.25h-6.4485-6.4485l0.2597-47.75zm-805.7,16.822c-0.66538-1.0766,3.2882-2.5726,4.2519-1.6089,0.35512,0.35512-0.0163,1.0643-0.82536,1.576-1.8742,1.1853-2.7094,1.1933-3.4265,0.0329zm134.96-20.072c0.3399-0.55,1.604-0.99311,2.809-0.98469,1.7813,0.0125,1.9105,0.1966,0.691,0.98469-1.9701,1.2732-4.2869,1.2732-3.5,0zm-48.4-83.25c-0.0548-2.0625,0.35032-3.75,0.90032-3.75,1.1448,0,1.1448,1.4254,0,5-0.71454,2.2312-0.81136,2.0967-0.90032-1.25zm-127.03-20.86c-4.9658-1.9801-7.0005-4.8713-7.0005-9.9473,0-4.1845,0.41693-5.0882,3.6621-7.9375,3.2698-2.871,4.1501-3.1604,8.2176-2.7019,10.92,1.2309,13.96,13.789,4.6578,19.241-4.5825,2.6855-5.76,2.8517-9.5369,1.3456z"/>
  </g>
 </g>
</svg>