<?xml version="1.0" encoding="UTF-8" standalone="no"?>
<svg id="svg2" xmlns:rdf="http://www.w3.org/1999/02/22-rdf-syntax-ns#" xmlns="http://www.w3.org/2000/svg" viewBox="0 0 328 115.35" version="1.1" xmlns:cc="http://creativecommons.org/ns#" xmlns:dc="http://purl.org/dc/elements/1.1/">
 <defs id="defs4"></defs>
 <metadata id="metadata7">
  <rdf:RDF>
   <cc:Work rdf:about="">
    <dc:format>image/svg+xml</dc:format>
    <dc:type rdf:resource="http://purl.org/dc/dcmitype/StillImage"/>
    <dc:title/>
   </cc:Work>
  </rdf:RDF>
 </metadata>
 <g id="layer1" transform="translate(-205.74724,-57.321758)">
  <g id="g2830" transform="matrix(0.27335467,0,0,0.27335467,257.28511,4.4128243)" fill="#feff7c">
   <path id="path2834" d="m487.98,614.57c-0.4436-1.2276-3.5534-78.815-3.5534-88.655,0-1.9776-0.22619-3.3694-0.50264-3.0929-0.27645,0.27645-1.8109,5.189-3.4098,10.917-2.2669,8.1204-3.2642,14.925-4.5283,30.895-1.4784,18.678-2.6468,24.826-3.9792,20.936-0.26703-0.77947-1.1452-13.268-1.9516-27.753-0.80636-14.485-1.7168-26.586-2.0231-26.892-1.2773-1.2773-3.6053,2.2249-3.6053,5.4238,0,2.7463-0.3573,3.3831-1.75,3.119-1.1148-0.21141-1.8564-1.4177-2.043-3.3233-1.0966-11.196-4.7699,0.59575-6.4334,20.653-1.8867,22.748-3.7781,20.028-5.3167-7.6446l-0.72282-13-1.6952,4c-1.252,2.9542-1.9813,9.4571-2.7896,24.873-0.60971,11.628-1.5571,21.335-2.139,21.917-1.6323,1.6323-1.8357,0.0867-3.5109-26.686-0.85679-13.693-1.8166-25.155-2.1329-25.471-1.2127-1.2127-2.3137,2.4938-2.9814,10.037-0.6716,7.5869-1.9034,10.389-3.4599,7.8709-0.41321-0.66858-1.3312-5.916-2.0399-11.661-1.4878-12.059-2.8254-12.915-6.0605-3.8798-1.0316,2.8812-1.1306,2.9231-2.4994,1.0589-0.78392-1.0676-1.4253-3.2051-1.4253-4.75,0-7.5212-4.4937,0.95018-5.5029,10.374-1.4471,13.513-3.4923,11.85-6.9921-5.6828-1.8579-9.3076-3.5694-25.213-6.0258-56-8.6776-108.76-12.621-156.19-13.176-158.5-0.55914-2.323-0.68488-2.221-1.7761,1.4412-1.2953,4.3472-3.0717,5.6591-3.8775,2.8638-0.28622-0.99278-1.0517-6.8131-1.7011-12.934-1.6102-15.178-3.0532-17.363-4.93-7.4674-1.6692,8.8017-3.5271,9.2795-4.6011,1.1833-0.6945-5.2354-1.8931-7.9443-3.0176-6.8198-0.39006,0.39005-1.3509,6.452-2.1352,13.471-1.4184,12.694-2.1723,15.762-3.8734,15.762-0.70916,0-2.5739-14.6-3.3208-26-0.11209-1.7108-0.26477-1.7714-1.0559-0.41871-0.50867,0.86972-1.6548,15.495-2.547,32.5-0.89216,17.005-1.827,31.556-2.0775,32.336-1.53,4.7614-2.6441-3.9786-4.0149-31.496-2.1151-42.46-3.3412-43.7-5.3856-5.446-0.93653,17.524-2.0462,24.063-3.3837,19.941-0.25292-0.77947-1.1359-11.767-1.9621-24.417-1.4897-22.808-2.482-29.188-4.126-26.529-0.44646,0.72237-1.0831,3.8314-1.4147,6.9089-0.45671,4.2383-1.0274,5.6768-2.353,5.9309-1.4535,0.27858-1.75-0.41416-1.75-4.0887,0-2.4333-0.53148-5.9487-1.1811-7.8121l-1.1811-3.388-0.86384,2.9888c-0.47512,1.6438-1.5438,17.164-2.3747,34.489-0.83099,17.325-1.7255,32.138-1.9879,32.917-1.4424,4.2856-2.5155-3.5199-4.3882-31.917-2.0198-30.629-4.0565-44.501-6.0144-40.964-1.4984,2.7069-2.9573,27.184-4.0808,68.464-1.0001,36.749-1.7494,45.97-3.3656,41.417-0.27673-0.77947-1.4075-21.217-2.5129-45.417-2.239-49.018-2.8101-57.495-4.0042-59.427-0.45196-0.73129-2.4201-1.473-4.3736-1.6483-3.2284-0.2897-3.643-0.0276-4.5532,2.8781-0.55073,1.7582-1.5225,8.3718-2.1595,14.697-0.63698,6.325-1.319,11.668-1.5155,11.874-0.19657,0.20544-0.98356,0.13325-1.7489-0.16042-0.86241-0.33094-1.8538-3.5147-2.6074-8.3735-1.3056-8.4178-2.0703-11.69-2.6065-11.154-0.18506,0.18507-1.0736,4.6065-1.9746,9.8254-0.90098,5.2189-2.0418,9.8997-2.535,10.402-1.4166,1.4418-2.6869-3.1552-3.4702-12.558-0.77099-9.2556-1.9965-13.008-2.875-8.8028-0.28125,1.3463-1.2304,11.444-2.1093,22.438-1.4544,18.195-2.6321,24.337-3.9168,20.427-0.2561-0.77947-0.99215-11.317-1.6357-23.417-1.8747-35.25-3.1509-32.221-5.0555,12-0.63961,14.85-1.539,27.411-1.9987,27.913-1.7929,1.9583-2.6691-4.8768-3.8988-30.413-1.7706-36.768-3.0208-38.413-4.9969-6.575-0.61192,9.8587-1.3466,18.304-1.6326,18.766-1.3322,2.1556-2.2313-1.0727-3.3212-11.925-1.3757-13.699-2.4953-17.726-3.4102-12.266-0.32255,1.925-1.2975,12.274-2.1665,22.998-1.4375,17.739-2.6205,23.823-3.8731,19.919-0.2501-0.77947-1.1096-15.514-1.91-32.744-1.7367-37.384-3.4523-43.085-5.1683-17.173-1.4546,21.964-6.6219,82.336-7.1156,83.135-1.6304,2.638-2.2156-2.2767-2.8413-23.862-0.37902-13.075-1.098-34.697-1.5976-48.05-1.1773-31.459-2.9755-35.964-4.5703-11.452-0.8771,13.481-2.3141,14.334-5.8556,3.4785-3.8126-11.687-4.8105-6.5862-8.5584,43.748-2.7738,37.252-3.9519,46.443-5.3733,41.919-0.24492-0.77947-0.96341-21.217-1.5967-45.417-0.63325-24.2-1.5648-48.05-2.0702-53-0.50533-4.95-0.92659-10.012-0.93612-11.25-0.01-1.2375-0.40011-2.25-0.86796-2.25-2.0218,0-4.1759,16.261-5.7624,43.5-1.5254,26.191-2.4364,32.778-4.2795,30.944-0.33413-0.33246-1.3413-15.374-2.2381-33.426-0.89682-18.052-1.9656-33.364-2.375-34.026-1.3156-2.1287-2.3566,1.0045-3.0768,9.2613-0.63469,7.2759-1.5697,9.9287-2.7986,7.9402-0.28556-0.46205-0.95463-4.3474-1.4868-8.634-1.1273-9.0802-2.6368-11.615-3.5163-5.9044-0.32577,2.1152-1.3005,14.421-2.166,27.346-1.4228,21.247-2.5106,28.009-3.8473,23.917-0.25465-0.77947-0.99782-11.992-1.6515-24.917-0.65367-12.925-1.5433-24.157-1.977-24.96-1.2136-2.2469-1.8139,4.5805-3.0299,34.46-0.60434,14.85-1.3056,27.642-1.5582,28.428-0.39802,1.2367-0.63655,1.2367-1.7845,0-0.94746-1.0208-1.661-8.2664-2.5042-25.428-1.5287-31.113-2.2275-39.785-3.1268-38.802-0.40334,0.44105-1.2732,7.3164-1.9329,15.279-0.65977,7.9621-1.4389,14.864-1.7314,15.337-1.344,2.1747-2.3936-1.9394-3.7887-14.851-1.7349-16.056-2.2473-18.748-3.4298-18.017-0.4696,0.29022-1.1598,2.9771-1.5339,5.9709-0.62963,5.0394-2.7155,8.7501-3.8683,6.8818-0.271-0.43921-0.98433-3.4593-1.5852-6.7114-1.9908-10.775-2.6531-9.577-4.6844,8.476-2.2305,19.824-4.0229,21.262-6.3829,5.1229-1.7656-12.074-2.5576-12.87-4.0777-4.0979-2.7547,15.898-4.5334,15.468-6.5156-1.5744-0.74748-6.4266-1.6346-12.553-1.9713-13.614-0.92669-2.9197-2.2762-1.3639-2.9992,3.4578-1.2181,8.1227-3.8723,8.8044-5,1.2843-0.71167-4.7458-1.9919-7.4526-3.0327-6.4118-0.36982,0.36981-1.34,6.6568-2.1558,13.971-2.1818,19.559-4.5717,20.302-5.7805,1.7986-0.70783-10.835-1.7574-15.052-2.8329-11.382-0.30338,1.0352-1.2995,16.057-2.2136,33.382-1.5048,28.522-2.4256,36.091-3.8827,31.917-0.27211-0.77947-1.1875-16.02-2.0342-33.869-2.0168-42.513-3.5629-44.407-5.1416-6.2994-0.4445,10.729-1.1112,16.844-1.9626,18-1.9112,2.5951-2.0937,1.4664-3.7581-23.249-0.81486-12.1-1.8125-22.825-2.217-23.834-1.086-2.7079-2.2368-0.31392-3.0402,6.3252-0.80928,6.687-1.1911,7.4409-3.006,5.9347-0.81548-0.67678-1.411-2.991-1.411-5.4835,0-2.3718-0.52024-5.5792-1.1561-7.1276l-1.1561-2.8151-0.79558,4c-0.43757,2.2-1.518,18.175-2.4011,35.5-1.4334,28.123-2.4431,36.443-3.8736,31.917-0.24639-0.77947-1.3775-15.819-2.5136-33.421-1.334-20.669-2.6278-33.897-3.6528-37.349-0.873-2.9397-1.7428-5.188-1.9328-4.9963-1.3971,1.4095-2.7766,23.183-4.074,64.302-1.3386,42.427-2.2184,53.578-3.8237,48.464-0.24468-0.77947-1.1822-18.517-2.0834-39.417-1.9924-46.208-3.2361-65.625-4.2622-66.543-0.42634-0.38111-2.2632-0.97129-4.0819-1.3115-3.0245-0.56579-3.4179-0.34236-4.6092,2.6178-0.71636,1.78-1.8528,8.6364-2.5255,15.236-1.7855,17.519-3.5304,17.578-6.0954,0.2054-0.71419-4.837-1.6108-8.9876-1.9925-9.2235-0.38167-0.23589-1.2565,3.7217-1.944,8.7946-2.1966,16.207-4.3596,16.641-6.0389,1.2109-0.59785-5.4931-1.3623-11.112-1.6987-12.487-0.51666-2.1116-0.72251-1.8008-1.325,2-0.39229,2.475-1.2975,12.272-2.0116,21.771-0.87866,11.688-1.7235,17.624-2.6136,18.363-1.9269,1.5992-2.0492,0.76051-3.2986-22.624-0.61683-11.545-1.5035-21.373-1.9704-21.84-1.1443-1.1443-1.8481,7.7948-3.1357,39.83-0.59689,14.85-1.291,27.638-1.5425,28.417-1.4155,4.3874-2.4091-3.56-3.865-30.917-0.89278-16.775-1.8991-31.625-2.2362-33-0.92337-3.7657-1.946,3.8927-2.8226,21.138-1.149,22.605-3.4864,25.254-5.4072,6.1276-2.1448-21.357-2.7552-19.953-5.1885,11.939-1.1979,15.701-1.946,19.199-3.6966,17.287-0.49927-0.5454-1.4361-12.692-2.0818-26.992-1.3343-29.549-2.0094-36.984-3.2457-35.748-0.47494,0.47494-1.5408,9.8375-2.3687,20.806-3.3751,44.717-6.169,76.131-6.8721,77.269-0.40997,0.66334-1.1006,0.98657-1.5347,0.71828-0.43409-0.26828-1.1015-13.213-1.4832-28.766-1.0159-41.403-2.4232-69.012-3.5763-70.165-0.55717-0.55717-1.0262-0.81054-1.0422-0.56304-1.9798,30.543-3.0733,33.521-7.4189,20.2-1.791-5.49-2.8784-6.438-4.015-3.5-0.37238,0.9625-2.086,20.103-3.8079,42.535-2.7039,35.223-3.3421,40.744-4.6799,40.487-1.3466-0.25839-1.7133-5.9161-2.8059-43.285-0.69125-23.643-1.8474-47.712-2.5693-53.487l-1.3124-10.5-1.7,5.4963c-1.173,3.7925-2.354,15.417-3.8098,37.5-1.1604,17.602-2.485,32.414-2.9436,32.917-1.8005,1.9712-2.6272-4.9714-3.8001-31.913-1.2955-29.756-1.8864-36.5-3.1986-36.5-0.82973,0-1.1889,1.7165-2.6156,12.5-0.43659,3.3-1.241,6-1.7876,6-0.54661,0-1.3383-2.7-1.7593-6-1.4259-11.177-1.8303-12.817-2.8982-11.749-1.0019,1.0019-3.7834,32.533-3.8264,43.376-0.0148,3.74-0.52147,6.0418-1.5105,6.8626-1.191,0.98848-1.5753,0.96301-1.9245-0.12756-0.24-0.74944-0.95966-11.488-1.5992-23.863-1.845-35.699-3.0655-31.467-5.0467,17.5-0.60082,14.85-1.2982,27.638-1.5497,28.417-1.4399,4.4628-2.4816-3.567-3.8828-29.929-1.7489-32.904-2.3803-40.45-3.3071-39.523-0.34831,0.34831-1.1882,7.2032-1.8664,15.233-1.1348,13.437-2.4867,18.912-3.7576,15.219-0.26827-0.77947-1.2239-8.1672-2.1235-16.417-0.89967-8.25-2.02-15.403-2.4897-15.895-0.86987-0.9114-1.2357,0.22008-2.714,8.3946-0.51861,2.8677-1.335,4.5-2.2506,4.5-0.91558,0-1.732-1.6323-2.2506-4.5-1.4848-8.21-1.842-9.3079-2.7318-8.3946-0.47942,0.49205-1.6124,7.4196-2.5176,15.395-0.90528,7.975-2.0464,14.911-2.5358,15.413-1.9845,2.0358-2.9082-3.1308-5.6476-31.591-0.55569-5.7731,0.0588-6.5933,3.3833-4.5155,1.8795,1.1747,3.2548-2.4699,4.354-11.539,0.55115-4.5471,1.2293-8.9051,1.5069-9.6846,1.0114-2.8393,2.4904,0.63622,4.0338,9.4785,2.1879,12.535,2.737,12.708,4.4412,1.3997,1.3052-8.6607,2.6852-12.656,3.9246-11.363,0.47553,0.49617,1.3479,4.9236,1.9387,9.8387,0.59074,4.9151,1.5301,9.3926,2.0875,9.95,0.60291,0.6029,1.0481,0.6286,1.099,0.0634,3.0459-33.839,3.4627-36.933,5.0176-37.232,1.3878-0.26691,1.6967,1.6786,2.3005,14.487,0.76776,16.287,1.4672,22.295,2.5954,22.295,1.1676,0,1.8438-7.5985,3.0702-34.5,1.0326-22.651,1.9364-29.483,3.3623-25.417,0.27335,0.77947,1.2105,14.017,2.0826,29.417,2.0151,35.584,3.5792,38.671,5.0663,10,1.0898-21.012,3.5761-22.142,5.5011-2.5,1.1823,12.064,2.8384,18.123,2.9929,10.95,0.0409-1.8975,0.82835-12,1.75-22.45,1.365-15.477,1.9538-19,3.1757-19,1.258,0,1.6784,3.7187,2.6058,23.046,1.2312,25.658,2.0609,33.188,3.4986,31.75,1.2174-1.2174,2.1451-10.069,5.5046-52.526,1.5115-19.101,3.099-35.298,3.5279-35.992,0.50899-0.82356,1.0938-0.91733,1.684-0.27002,0.49736,0.5454,1.4117,18.317,2.0319,39.492,0.62017,21.175,1.6433,42.869,2.2736,48.21l1.146,9.7099,2.765-2.9599c2.7769-2.9727,3.3921-3.2354,7.9174-3.3809,1.9686-0.0633,2.6069-0.77236,3.2222-3.579,0.42202-1.925,1.7182-23.975,2.8804-49s2.3145-46.138,2.5606-46.917c0.32234-1.0209,0.75157-1.1131,1.5351-0.32957,0.70569,0.70569,1.5511,16.033,2.4074,43.646,1.2679,40.888,2.9726,64.248,4.4829,61.433,2.2667-4.2257,4.0263-17.371,5.4657-40.832,0.89424-14.575,1.8352-27.138,2.0911-27.917,1.5334-4.6712,2.6827,3.4897,3.9483,28.036,1.4606,28.328,2.1264,34.882,3.5436,34.882,0.75815,0,2.2705-4.6271,3.0818-9.4289,0.60535-3.5829,2.3214-1.9299,3.0126,2.9019,0.71756,5.0164,2.109,7.4756,3.2161,5.6843,0.97498-1.5775,2.3654-14.333,3.1389-28.796,0.70105-13.108,1.5138-16.784,3.2841-14.853,0.49996,0.5454,1.3536,9.6791,1.897,20.297,1.0164,19.86,2.497,26.227,3.606,15.508,0.33085-3.1975,1.1009-17.289,1.7112-31.314,0.61029-14.025,1.3157-26.138,1.5676-26.917,1.3927-4.3096,2.3913,3.3494,3.8353,29.417,0.88354,15.95,1.8659,30.282,2.183,31.849,0.99493,4.9164,2.2992,1.4878,2.996-7.8759,0.71954-9.6688,1.9246-14.361,3.3092-12.886,0.47117,0.50206,1.3865,5.5804,2.0341,11.285,0.64756,5.7047,1.629,11.555,2.1809,13,0.97189,2.545,1.0483,2.5667,2.4288,0.68663,0.78392-1.0676,1.4253-3.0131,1.4253-4.3233,0-3.5832,3.1915-2.4354,4.2154,1.516,0.46297,1.7867,1.4551,3.2485,2.2048,3.2485,1.6377,0,2.2608-2.2574,3.1742-11.5,1.2545-12.694,3.7141-14.613,6.4058-4.9992,0.68723,2.4546,1.5816,4.2576,1.9875,4.0068,0.40588-0.25084,1.3058-2.4841,1.9998-4.9628,1.3821-4.9365,3.6782-7.7429,4.424-5.4074,0.23935,0.74944,0.71444,4.7376,1.0558,8.8626,2.4077,29.099,4.3648,11.057,6.1043-56.272,0.62576-24.22,1.1866-29.546,2.8313-26.885,0.48228,0.78034,3.7426,38.085,6.5686,75.157,1.2192,15.994,1.9297,21,2.9805,21,1.2489,0,1.8642-6.8914,3.0803-34.5,0.62988-14.3,1.345-26.638,1.5893-27.417,1.2626-4.0298,2.5356,2.3379,3.8932,19.474,1.9594,24.732,2.4812,28.549,3.5466,25.943,0.44974-1.1,1.3494-7.2946,1.9993-13.766,1.1075-11.028,1.9858-14.086,3.3921-11.811,0.32498,0.52583,1.064,8.5207,1.6424,17.766,0.57832,9.2456,1.4175,17.71,1.8649,18.81,0.76321,1.8765,0.84954,1.8457,1.3983-0.5,0.3217-1.375,1.2371-14.367,2.0342-28.871,0.82404-14.994,1.9007-26.822,2.4956-27.417,1.6764-1.6764,1.8764,0.12427,3.0872,27.788,0.62589,14.3,1.3995,27.716,1.7191,29.812,1.1987,7.8634,2.3867,1.4753,3.4197-18.388,0.58417-11.233,1.2622-21.062,1.5068-21.841,1.2501-3.9842,2.5252,2.2522,3.8786,18.97,2.3536,29.073,3.2545,31.165,5.4074,12.56,1.802-15.571,3.0404-15.479,5.5978,0.41582,0.98074,6.0957,2.1069,10.72,2.5026,10.277,0.3957-0.44335,1.296-4.9675,2.0008-10.054,0.70472-5.0862,1.8859-9.7494,2.6248-10.363,1.7733-1.4717,2.0585-0.5416,3.2535,10.61,0.53043,4.95,1.4713,10.328,2.0909,11.951l1.1264,2.9514,2.445-2.9514c2.0467-2.4707,2.6038-2.7071,3.4197-1.4514,2.8964,4.4573,2.939,4.4927,4.057,3.3747,0.60971-0.60971,1.559-4.206,2.1096-7.9916,1.5992-10.996,2.299-13.883,3.3651-13.883,0.89619,0,1.8407,3.7863,3.9542,15.852,0.37113,2.1187,0.98326,3.5542,1.3603,3.19,0.37704-0.36422,1.3759-4.5727,2.2196-9.3522,1.1069-6.2702,1.9423-8.69,3-8.69,1.0923,0,1.7649,2.2934,2.6394,9,0.64541,4.95,1.2079,9.4275,1.25,9.95,0.0422,0.5235,0.5695,0.45703,1.1746-0.14808,0.60394-0.60394,1.7562-9.1314,2.5605-18.95,1.6284-19.878,1.87-21.223,3.5149-19.578,0.62897,0.62897,1.4796,7.7261,1.9678,16.417,1.0396,18.509,1.6105,22.458,3.0404,21.028,0.60255-0.60255,1.6454-13.203,2.4723-29.872,1.2775-25.753,2.2965-33.731,3.7377-29.263,0.25142,0.77947,1.119,14.158,1.9279,29.729,0.80891,15.571,1.743,28.584,2.0756,28.917,1.3585,1.3585,1.7843-1.2768,2.8079-17.378,1.5386-24.202,3.7254-25.199,5.8861-2.6837,0.70522,7.3488,1.5829,13.018,1.9504,12.597,0.36749-0.42039,1.4545-10.889,2.4156-23.264,1.6615-21.394,2.4072-25.65,4.0335-23.019,0.39286,0.63567,1.3266,12.712,2.0749,26.837,1.3847,26.137,2.3316,33.481,3.8216,29.643,0.41884-1.079,2.3303-21.312,4.2478-44.962,1.9174-23.65,3.6992-43.638,3.9595-44.417,0.35455-1.0617,0.75955-1.1309,1.6144-0.27604,0.77279,0.77279,1.5578,14.304,2.4316,41.917,0.70976,22.427,1.7474,43.701,2.3059,47.276,0.55851,3.575,1.0268,7.175,1.0405,8,0.0168,1.0024,0.76983,0.61898,2.2701-1.1558,2.8566-3.3792,6.3053-5.1185,8.6644-4.3698,1.1779,0.37386,2.07-0.004,2.4703-1.0474,1.0844-2.8259,2.4416-23.619,4.1401-63.427,0.90347-21.175,1.8436-39.138,2.0892-39.917,1.5487-4.9151,2.3659,5.0085,3.3282,40.417,1.0476,38.547,2.4217,61.626,4.0069,67.3,0.70406,2.5199,0.86889,2.3332,2.4715-2.8,1.1746-3.7622,2.3443-14.821,3.7022-35,1.0918-16.225,2.1994-30.138,2.4614-30.917,1.4338-4.2659,2.3937,2.97,3.372,25.417,1.5007,34.436,3.6537,48.014,5.6419,35.581,0.33462-2.0926,0.96049-4.3744,1.3908-5.0707,1.1989-1.9398,3.006-0.22164,3.006,2.8581,0,1.5124,0.63042,3.612,1.4009,4.6657,1.3121,1.7944,1.4671,1.664,2.4443-2.0589,0.57386-2.1861,1.5552-12.3,2.1808-22.475,1.2487-20.311,1.4895-21.884,3.1018-20.272,0.58423,0.58423,1.4665,8.197,1.9607,16.917,2.0663,36.465,3.5621,34.775,5.5472-6.2661,1.3358-27.618,2.3136-35.763,3.7565-31.296,0.25178,0.77947,1.166,14.844,2.0316,31.254,1.4905,28.257,2.5935,36.726,3.9915,30.649,0.31452-1.3672,0.91223-6.5306,1.3282-11.474,0.58456-6.9462,1.111-9.0561,2.317-9.2868,1.2825-0.24541,1.7618,1.6256,2.6896,10.499,0.62094,5.9387,1.4366,11.599,1.8126,12.579,0.99419,2.5908,2.77,1.5527,4.0684-2.3782,1.6164-4.8937,2.475-4.484,5.3969,2.5751l1.2418,3,1.2828-3c0.70552-1.65,1.597-6.7008,1.9812-11.224,0.99253-11.688,3.8137-13.225,6.4151-3.4959,1.3665,5.1108,2.3456,4.8113,4.0386-1.2354,1.3818-4.9352,3.679-7.7441,4.4224-5.4074,0.23843,0.74944,0.64051,5.2449,0.89352,9.99,0.49707,9.3222,1.9527,14.086,2.9787,9.7482,0.97928-4.1403,1.6838-18.326,2.7998-56.376,0.96753-32.988,1.7744-42.067,3.3254-37.417,0.26,0.77947,1.4081,13.117,2.5512,27.417,1.1432,14.3,2.7431,34.325,3.5553,44.5,1.6067,20.128,2.2192,24.283,3.4658,23.513,1.0781-0.66629,1.8036-9.302,3.0677-36.513,0.57488-12.375,1.2642-23.138,1.5318-23.917,1.3208-3.847,2.4344,2.2267,3.927,21.417,1.6405,21.093,2.2348,26.092,3.0098,25.318,0.23014-0.23014,1.125-6.465,1.9886-13.855,1.4519-12.424,2.5037-16.411,3.7733-14.299,0.27688,0.46042,1.0508,8.9371,1.7197,18.837,2.0241,29.954,3.2344,27.289,5.126-11.288,1.0794-22.012,1.4432-25.249,2.8083-24.988,1.3374,0.2565,1.7444,4.0529,2.7648,25.788,0.65805,14.018,1.4846,27.049,1.8367,28.958,1.2388,6.7151,2.3449,0.67358,3.4856-19.037,1.025-17.711,1.8198-22.622,3.2794-20.26,0.28817,0.46627,1.2582,9.618,2.1555,20.337,0.89736,10.719,1.8616,20.152,2.1427,20.961,1.0055,2.8956,2.2375-1.1344,2.9456-9.6352,0.39749-4.7718,1.2392-8.7403,1.985-9.3593,1.7122-1.421,2.095-0.63335,3.419,7.0366,2.5695,14.885,2.6648,14.919,4.9461,1.7605,1.1898-6.8628,1.998-9.2746,3.1079-9.2746,1.1574,0,1.7602,2.2842,2.6394,10,0.62666,5.5,1.4696,10.807,1.8732,11.792,1.1131,2.7185,2.842,1.4978,4.0681-2.8724,1.3439-4.79,2.5486-4.5133,4.0892,0.93948,0.64345,2.2774,5.2951,54.541,10.337,116.14,5.0419,61.6,9.4226,112.68,9.7348,113.5,0.71933,1.9004,1.0484,0.59182,2.604-10.356,0.86368-6.0783,1.5608-8.2009,2.7689-8.431,1.2069-0.22988,1.7853,0.77765,2.2905,3.9897,2.0063,12.755,3.7965,14.265,5.153,4.3451,0.37966-2.7763,1.0918-6.1092,1.5826-7.4065,0.73646-1.9467,1.1514-2.1436,2.3757-1.1276,0.81589,0.67713,1.4942,2.6385,1.5073,4.3587,0.0424,5.559,2.1626,12.794,3.3831,11.544,0.22381-0.22917,1.1398-7.8351,2.0355-16.902,1.5142-15.328,2.4757-19.574,3.9078-17.257,0.31677,0.51256,0.87628,6.5143,1.2433,13.337,0.40976,7.6164,1.2625,13.756,2.2089,15.905,1.3914,3.1591,1.5806,3.2786,1.942,1.2273,0.22028-1.25,0.93038-11.6,1.578-23,0.97904-17.234,1.4302-20.727,2.6775-20.727,1.2354,0,1.719,3.2923,2.7418,18.663,1.1106,16.691,2.4357,24.993,3.7757,23.653,0.25385-0.25385,0.93652-6.2788,1.517-13.389,0.58052-7.1099,1.275-13.565,1.5433-14.344,1.095-3.1817,2.4878,1.042,3.9171,11.879,0.82448,6.2512,1.7035,11.57,1.9534,11.82,0.75324,0.75324,1.3441-3.4545,3.0588-21.782,1.5113-16.153,2.6855-21.544,3.9031-17.917,0.26169,0.77947,0.94938,9.6514,1.5282,19.715,0.70236,12.212,1.6303,20.028,2.7899,23.5l1.7375,5.2019,0.74957-5c0.41227-2.75,2.1295-20.075,3.8161-38.5s3.2842-34.138,3.5503-34.917c1.4805-4.3373,2.3396,3.4856,3.3654,30.646,0.62795,16.626,1.5463,31.476,2.0408,33,0.49447,1.5244,1.3914,7.0466,1.9932,12.272,0.60177,5.225,1.3362,10.614,1.6321,11.975l0.53799,2.4755,1.6744-2.1084c2.0229-2.5473,5.3379-4.3425,8.0188-4.3425,2.3429,0,2.2005,1.4615,5.2056-53.403,1.1117-20.297,2.2614-37.292,2.5547-37.766,1.6415-2.656,2.221,2.733,2.8922,26.898,0.76322,27.478,1.152,32.746,4.0052,54.272,1.7557,13.245,2.2395,15.592,3.0487,14.782,0.27712-0.27712,1.5656-14.106,2.8633-30.73,2.1185-27.14,3.4798-35.609,4.9779-30.97,0.25173,0.77947,0.948,10.192,1.5473,20.917,1.3829,24.749,5.1284,40.873,6.2721,27,0.39324-4.77,2.0699-4.406,3.3062,0.71764,0.98593,4.0862,2.9435,7.1546,3.9331,6.1649,0.26625-0.26625,1.2035-9.4612,2.0829-20.433,1.4673-18.309,2.5801-24.123,3.898-20.366,0.27345,0.77947,0.94415,8.0487,1.4904,16.154,0.55387,8.2176,1.5579,15.738,2.2696,17,1.1567,2.0512,1.3367,1.6072,1.9198-4.7366,0.3539-3.85,0.97581-14.258,1.382-23.129,0.72599-15.854,1.4781-19.883,3.3348-17.863,0.50134,0.5454,1.4322,9.4681,2.0686,19.828,1.0777,17.545,2.6072,27.663,4.1815,27.663,0.36499,0,0.97997-4.044,1.3666-8.9867,1.059-13.537,3.5219-12.809,5.0278,1.4867,0.74003,7.025,2.7342,12.5,4.5528,12.5,0.53588,0,0.97432-1.039,0.97432-2.3089s0.64138-3.1824,1.4253-4.25c1.3688-1.8643,1.4678-1.8223,2.4994,1.0589,3.2227,9.001,4.5123,8.1302,6.1491-4.1521,0.78439-5.8857,1.9223-10.862,2.5286-11.059,0.60636-0.19659,2.1285,2.0204,3.3825,4.9267l2.28,5.2842,2.067-4.7849c3.0948-7.1641,5.0908-6.0827,5.46,2.958,0.19631,4.8073,0.77792,7.5551,1.7742,8.3819,0.81517,0.67653,1.6785,1.0337,1.9184,0.79375,0.23997-0.23996,1.0404-17.405,1.7787-38.145,0.91529-25.711,1.7129-38.08,2.5068-38.873,0.88577-0.88577,1.2819-0.82526,1.6557,0.25289,0.27025,0.77947,1.8883,16.492,3.5957,34.917,1.7953,19.374,3.7799,35.608,4.7065,38.5,0.88118,2.75,1.7488,4.55,1.928,4,0.17921-0.55,0.932-11.612,1.6729-24.583,1.2918-22.616,1.8482-26.544,3.6064-25.457,0.43837,0.27093,1.6146,9.511,2.6138,20.533,0.99919,11.022,2.1367,19.696,2.5277,19.274,0.39105-0.42193,1.2465-5.4837,1.901-11.248,1.2911-11.371,1.4786-12.019,3.4806-12.019,1.0091,0,1.5152,3.0324,2.0482,12.273,0.38934,6.7502,1.2672,13.613,1.9508,15.25,1.2226,2.9283,1.2532,2.8789,1.8746-3.0231,0.34744-3.3,1.1255-14.55,1.729-25,0.60352-10.45,1.3015-19.638,1.551-20.417,1.3198-4.123,2.3726,2.5079,3.4004,21.417,0.77685,14.291,1.676,22.597,2.8146,26l1.6731,5,0.8099-14.5c1.3359-23.918,3.84-25.443,5.7475-3.5,1.137,13.079,2.3017,18.474,3.6887,17.087,0.32123-0.32123,1.0723-4.0723,1.669-8.3356,1.4967-10.693,3.4418-10.54,5.5285,0.43535,0.85606,4.5028,1.8281,8.4494,2.1601,8.7703,0.33198,0.32084,1.3458-3.1171,2.2529-7.6399,0.90714-4.5228,2.0813-8.6552,2.6092-9.1831,1.2884-1.2884,2.5795,2.3447,3.5022,9.8553,0.4047,3.2943,1.6881,7.7943,2.852,10,1.9883,3.7681,2.1383,3.8594,2.4828,1.5104,0.63841-4.3533,2.0796-4.7245,4.808-1.2382,1.3938,1.781,2.8795,3.2382,3.3015,3.2382,0.42197,0,1.3-4.3352,1.9511-9.6337,0.65115-5.2985,1.4384-10.045,1.7493-10.549,1.2542-2.0293,3.1263,1.5138,4.3152,8.1667,0.68892,3.855,1.6288,7.2416,2.0886,7.5258,0.45984,0.2842,1.3313-2.0768,1.9365-5.2468,2.5526-13.369,3.9875-15.178,5.3663-6.7635,1.2023,7.3375,2.656,12.5,3.5198,12.5,0.41734,0,1.4705-7.381,2.3403-16.402,0.86986-9.0212,1.8914-16.904,2.2702-17.516,1.6146-2.6124,2.3504,0.69261,3.0394,13.652,0.46792,8.8009,1.2597,14.791,2.1952,16.609,0.80481,1.5636,1.6005,2.6886,1.7682,2.5,0.16768-0.18861,0.8409-10.918,1.496-23.843,0.65514-12.925,1.3995-24.138,1.6542-24.917,1.3868-4.2448,2.7241,2.7028,3.8622,20.065,0.80402,12.265,1.8144,20.634,2.7593,22.852,1.4791,3.4727,1.4966,3.4142,2.2492-7.5,1.5059-21.838,3.272-24.824,5.3225-9,0.71268,5.5,1.5659,11.125,1.896,12.5,0.58122,2.4207,0.6232,2.3976,1.3233-0.72731,0.39766-1.775,1.2932-9.875,1.9902-18,2.1548-25.121,4.4416-25.974,5.4526-2.0344,0.59192,14.017,1.8252,22.982,4.3006,31.262,0.32886,1.1,2.301-15.744,4.3826-37.432s4.0232-40.054,4.3148-40.813c1.6122-4.2012,2.3897,2.3593,3.0204,25.484,0.3864,14.169,1.1053,28.461,1.5976,31.761,0.49227,3.3,1.6679,11.962,2.6125,19.25,0.94458,7.2875,2.0766,13.25,2.5156,13.25,0.43901,0,0.7982-0.45661,0.7982-1.0147,0-1.486,6.1323-4.9772,8.75-4.9816,2.0049-0.003,2.2594-0.52108,2.3358-4.7537,0.0472-2.6125,1.0597-21.85,2.25-42.75,1.831-32.149,2.3951-38,3.6642-38,1.2761,0,1.6732,4.6268,2.6603,31,0.63816,17.05,1.5856,32.35,2.1055,34,0.51984,1.65,1.5349,8.3028,2.2558,14.784,0.72081,6.4812,1.656,11.431,2.0781,11,0.42214-0.43118,1.7842-14.188,3.0269-30.57,1.9463-25.659,2.4751-29.745,3.8164-29.489,1.2946,0.24723,1.7525,3.4991,2.7158,19.286,1.0031,16.439,2.9742,29.455,4.7256,31.206,0.4922,0.49218,1.1734-1.8093,1.8405-6.2176,0.5135-3.3937,2.1696-2.214,3.035,2.1619,0.7265,3.6736,3.1526,7.3182,4.1476,6.2306,0.1975-0.21587,1.0521-9.2672,1.8993-20.114,0.8471-10.847,1.8307-20.192,2.1858-20.766,1.6083-2.6022,2.3497,1.0181,3.0172,14.733,0.6135,12.606,2.1601,21.255,3.8008,21.255,0.2269,0,0.9969-11.493,1.711-25.54s1.6453-25.754,2.0694-26.016c1.6242-1.0038,2.1576,2.3199,3.5105,21.877,1.3809,19.961,3.5345,32.124,4.7241,26.679,0.3004-1.375,0.7972-5.3508,1.1039-8.8351,1.007-11.439,2.8794-10.712,4.5732,1.7754,0.6297,4.6422,1.9649,10.039,2.9673,11.993l1.8224,3.5523,1.1424-4.2425c0.6283-2.3334,1.538-4.2425,2.0215-4.2425s1.7036,1.6875,2.7114,3.75,2.2788,3.75,2.8244,3.75,1.5016-4.1407,2.1244-9.2015c1.7417-14.153,2.5974-15.013,6.4708-6.5071l2.1441,4.7086,2.0092-4.75c1.1051-2.6125,2.4142-4.75,2.9091-4.75,1.4535,0,2.8487,4.7668,2.8726,9.8151,0.015,3.1038,0.6822,5.5286,1.9778,7.1849l1.9555,2.5,0.012-5c0.026-11.148,2.236-73.1,2.6554-74.428,0.3907-1.2367,0.6275-1.2367,1.7711,0,0.8886,0.96083,2.3446,12.392,4.4537,34.964,2.6422,28.278,5.2141,45.318,6.6126,43.812,0.1781-0.19174,0.8991-11.504,1.6023-25.139,1.1153-21.625,1.4803-24.752,2.8582-24.49,1.2793,0.24378,1.8997,3.4359,3.2632,16.791,0.926,9.0692,1.7272,17.615,1.7804,18.99,0.1996,5.1543,1.7992-0.52724,3.0298-10.761,1.974-16.415,4.3538-14.569,5.4943,4.2614,0.6343,10.474,1.8353,16.51,3.0444,15.301,0.2037-0.20374,1.099-11.605,1.9896-25.336,1.4628-22.555,2.5253-29.514,3.8755-25.382,0.2547,0.77947,0.9764,10.918,1.6038,22.531,1.0169,18.821,2.7654,30.256,4.2451,27.761,0.2852-0.48106,0.8433-7.5146,1.2403-15.63,0.6657-13.611,1.6346-17.784,3.448-14.85,0.3911,0.63289,1.2821,7.3223,1.98,14.865,1.1231,12.14,2.4273,18.231,3.6429,17.016,0.2176-0.2176,0.8691-3.7341,1.4478-7.8145,1.7038-12.013,3.705-11.42,6.0356,1.7888,0.7036,3.9875,1.5851,7.25,1.9589,7.25s1.2553-3.2625,1.9589-7.25c2.3349-13.233,4.3449-13.81,6.021-1.7288,1.5093,10.879,3.9732,15.987,5.4159,11.229,0.7485-2.4687,20.628-141.85,26.066-182.75,5.5647-41.858,5.5274-41.625,6.5509-40.992,0.4597,0.28407,1.0701-0.27651,1.3566-1.2458,0.7904-2.6742-0.1073,24.686-1.2382,37.738-0.548,6.325-6.409,52.15-13.024,101.83-11.952,89.766-12.047,90.361-15.016,94.844-1.6435,2.4812-3.4812,7.0565-4.0839,10.167-2.5682,13.258-4.5384,12.963-6.1946-0.92606-0.6177-5.1798-1.2138-9.5408-1.3247-9.6913-0.6849-0.92942-3.7922,1.4441-4.5706,3.4912-1.0512,2.765-3.2409,2.5902-3.7643-0.30054-1.2232-6.7569-4.8559-0.62515-6.5023,10.975-0.6328,4.4591-1.5803,8.1075-2.1055,8.1075-1.282,0-2.3204-4.0089-2.4607-9.5-0.1858-7.27-1.5452-7.7891-3.3662-1.2855-0.9461,3.379-2.0691,13.645-2.6998,24.681-0.5939,10.392-1.3418,19.319-1.662,19.837-1.5656,2.5333-2.2521-2.7798-3.433-26.569-1.2629-25.44-1.309-25.785-3.005-22.506-1.2124,2.3445-1.9328,7.1115-2.4326,16.097-0.6627,11.915-1.6752,15.675-3.4481,12.806-0.4063-0.65737-1.313-9.265-2.015-19.128-0.7024-9.8631-1.4635-17.933-1.6917-17.933-1.4575,0-4.2115,3.9831-4.4943,6.5-0.4696,4.1795-1.9359,3.7415-3.3475-1l-1.1908-4-0.6779,3c-0.3728,1.65-1.1713,4.35-1.7745,6-0.6031,1.65-1.6481,11.685-2.3221,22.301-0.7127,11.225-1.6927,19.768-2.3421,20.417-0.8222,0.82215-1.2407,0.74288-1.5871-0.3006-0.2588-0.77947-1.4394-14.242-2.6236-29.917-1.1843-15.675-2.4857-29.095-2.8921-29.822-0.4064-0.72683-1.3306,3.9982-2.0537,10.5s-1.7597,13.172-2.3036,14.822c-0.5438,1.65-1.5288,16.853-2.1888,33.783-0.7832,20.088-1.594,31.177-2.3339,31.917-0.8451,0.84507-1.2485,0.7729-1.5841-0.28341-0.2476-0.77947-1.431-20.092-2.6297-42.917s-2.2721-41.599-2.3853-41.719c-0.1132-0.12069-1.7343-0.34569-3.6023-0.5-3.048-0.25177-3.6304,0.13776-5.6768,3.7966-1.2542,2.2425-2.7149,7.1453-3.2459,10.895-1.1343,8.0096-2.5217,10.114-4.0381,6.1254-0.5705-1.5004-1.0372-3.1265-1.0372-3.6136,0-2.7988-2.2953-10.92-2.9688-10.503-0.44,0.27196-1.3614,3.5376-2.0474,7.2569-2.0249,10.978-4.4084,12.061-5.4957,2.4966-0.3586-3.1538-0.8937-6.595-1.1891-7.6471-1.1515-4.1006-2.7678,1.9031-4.2839,15.913-1.4091,13.02-2.3689,15.827-4.2151,12.327-0.3851-0.72997-1.0601-7.8522-1.5-15.827l-0.8-14.5-1.6634,5c-1.0918,3.2817-2.0654,11.866-2.8329,24.98-0.6432,10.989-1.4079,20.365-1.6994,20.837-1.4338,2.3199-2.2184-2.3752-3.228-19.317-0.6064-10.175-1.3604-20.914-1.6756-23.864-0.9571-8.9587-2.7918-4.4186-3.9007,9.6527-0.8205,10.411-1.2917,12.745-2.625,12.999-1.3668,0.26093-1.8295-1.5247-2.9123-11.239-0.708-6.3521-1.5939-11.549-1.9687-11.549-0.3747,0-1.4988,8.568-2.4978,19.04s-2.1718,19.26-2.6061,19.528c-1.8149,1.1216-2.6947-3.9825-3.3731-19.568-0.395-9.075-1.0223-19.2-1.3941-22.5l-0.6759-6-1.7185,4.9134c-1.0984,3.1406-2.8213,16.49-4.7752,37-1.6812,17.648-3.2638,32.7-3.5168,33.449-0.34275,1.015-0.79962,1.0809-1.7909,0.25822-1.0004-0.8303-1.4957-6.8772-1.9953-24.363-0.36552-12.792-0.95712-29.723-1.3146-37.626-0.64032-14.152-0.67737-14.332-2.4706-12-1.2065,1.5688-1.828,4.0969-1.8428,7.4948-0.0134,3.0924-0.56493,5.5779-1.3896,6.2623-1.6425,1.3632-2.6618,0.28557-4.6254-4.8899-3.6355-9.5824-4.5484-5.7006-8.0932,34.412-1.6568,18.749-3.23,34.726-3.4961,35.506-0.3502,1.0262-0.78557,1.1153-1.5779,0.32298-1.0046-1.0046-3.6914-59.111-3.8003-82.19-0.0222-4.6939-0.41599-8.0277-0.88599-7.5-0.46535,0.5225-2.0522,5.5315-3.5263,11.131-1.9737,7.4972-3.0864,15.538-4.2207,30.5-1.6565,21.849-1.9399,23.686-3.4251,22.201-0.73543-0.73543-3.9748-46.134-3.9806-55.787-0.001-1.8416-0.0677-1.8448-2.0012-0.095-1.1,0.99549-2,2.8101-2,4.0325s-0.66968,2.7784-1.4882,3.4576c-1.6308,1.3535-1.7558,1.1674-3.0066-4.476-0.54508-2.4594-0.82364-2.6966-1.5797-1.3456-1.9432,3.4723-3.8177,13.79-4.4677,24.59-0.64222,10.672-1.699,14.087-3.4714,11.219-0.43447-0.70298-1.1153-8.2195-1.5129-16.703-0.39761-8.4839-1.0386-15.054-1.4244-14.6-1.9417,2.2846-3.1389,10.673-4.1139,28.825-0.97755,18.199-1.9886,24.321-3.3718,20.417-0.49134-1.3868-3.5634-44.941-3.5634-50.52,0-2.507-0.16862-2.6574-1.4942-1.3318-0.91747,0.91748-1.7433,4.4418-2.1397,9.1314-1.1836,14.002-3.6453,13.217-5.4164-1.728-0.68673-5.7946-1.5712-10.735-1.9655-10.979-0.99784-0.61669-3.7043,2.6112-4.131,4.9269-0.65256,3.5416-2.7137,2.8149-3.8358-1.3524-0.60198-2.2356-1.2906-4.0647-1.5303-4.0647-1.3033,0-3.38,6.4697-4.2925,13.373-1.7228,13.033-3.7309,12.341-6.1584-2.1231-0.66927-3.9875-1.5436-7.25-1.943-7.25-0.39941,0-1.3174,3.0375-2.04,6.75-2.4783,12.733-4.4058,12.043-6.0915-2.1807l-1.2367-10.435-2.258,1.4795c-1.2419,0.81372-2.4879,2.3585-2.7688,3.4329-0.76906,2.9409-2.6694,2.3469-3.3481-1.0466-0.33-1.65-0.92152-3-1.3145-3-1.4762,0-3.5473,5.7802-5.0164,14-0.83554,4.675-1.9615,8.5-2.5022,8.5-1.182,0-2.38-6.2109-2.4593-12.75-0.0317-2.6125-0.40531-4.75-0.83024-4.75-1.5999,0-3.5436,12.083-4.6167,28.7-0.69659,10.787-1.5646,17.654-2.328,18.417-1.8522,1.8522-2.0237,0.59477-3.2886-24.113-0.63341-12.372-1.3353-22.679-1.5598-22.904-1.453-1.453-3.3114,8.2976-3.9378,20.66-0.65878,13.002-1.4205,16.789-2.8966,14.401-0.296-0.47894-1.2431-9.5773-2.1046-20.218-0.86153-10.641-1.7646-19.546-2.0068-19.788-0.89411-0.8941-3.5196,2.1846-4.2427,4.9751-1.0553,4.0724-2.6878,4.003-3.0673-0.13045-0.49608-5.4041-1.8529-5.658-2.6277-0.4918-0.38422,2.5622-1.2845,6.3191-2.0006,8.3488-0.72523,2.0555-1.6302,11.344-2.0429,20.967-0.65216,15.207-0.9367,17.24-2.3742,16.965-1.3974-0.26714-1.9468-4.2103-3.8036-27.301-1.1937-14.844-2.2062-28.001-2.25-29.239-0.0438-1.2375-0.44617-2.25-0.89411-2.25-0.44795,0-1.5559,5.9625-2.4621,13.25-0.90619,7.2875-2.063,15.5-2.5707,18.25-0.50767,2.75-1.2509,17.043-1.6516,31.761-0.40071,14.719-1.1255,27.007-1.6106,27.306-2.0308,1.2551-2.8314-6.0737-4.8041-43.98-1.1424-21.952-2.1917-40.011-2.3318-40.133-0.14011-0.12169-1.6941-0.5295-3.4534-0.90624-3.0521-0.65361-3.3131-0.45911-5.6974,4.2461-1.3743,2.7121-2.8077,7.3553-3.1854,10.318-0.75185,5.8988-2.0652,9.2235-3.3339,8.4395-0.44821-0.27701-1.3513-3.3271-2.0068-6.778-2.304-12.128-2.8134-12.274-5.0779-1.4462-2.0616,9.857-4.163,9.8268-5.4201-0.0781-0.50608-3.9875-1.2454-7.25-1.643-7.25-1.4808,0-2.2875,3.8848-3.8417,18.5-0.87943,8.2699-2.0438,15-2.5951,15-1.1118,0-2.0874-6.9862-3.0671-21.965-0.64289-9.8288-0.67347-9.9244-2.2392-7-1.146,2.1405-1.9169,8.4302-2.7723,22.619-1.149,19.059-1.7788,22.935-3.4418,21.183-0.43709-0.46042-1.3486-10.737-2.0256-22.837-0.67696-12.1-1.57-22.379-1.9845-22.842-1.3545-1.5134-2.8198,5.6232-3.5111,17.101-1.0263,17.039-3.4119,15.922-5.524-2.5868-0.64819-5.6804-1.5128-9.9554-1.9214-9.5-0.40861,0.45537-1.5257,9.378-2.4825,19.828-0.95679,10.45-1.9683,19.377-2.2479,19.837-1.5584,2.5667-2.4422-3.3636-3.6814-24.703-0.7584-13.06-1.6273-23.994-1.9309-24.298-1.5572-1.5572-3.9048,13.451-6.6736,42.663-1.6942,17.875-3.3013,33.138-3.5714,33.917-0.34191,0.98698-0.80872,1.0994-1.5377,0.3705-0.64023-0.64023-1.567-15.495-2.3865-38.253-0.73687-20.464-1.5902-37.457-1.8963-37.763-0.30612-0.30611-1.2228-0.004-2.037,0.67208-0.96588,0.80162-1.5825,3.5171-1.7742,7.8128-0.16461,3.6899-0.78208,6.7453-1.4047,6.9508-0.61102,0.20167-2.075-1.8743-3.2533-4.6133-2.6102-6.0676-3.8482-6.9806-5.0782-3.7453-0.51629,1.358-2.362,18.373-4.1016,37.81-2.905,32.46-3.9928,39.66-5.4025,35.758z"/>
   <path id="path2832" d="m776.12,602.65c-0.28783-0.825-1.0415-19.5-1.6748-41.5-0.63329-22-1.3601-40.638-1.6152-41.417-1.923-5.876-8.0889,18.187-9.4598,36.917-0.5837,7.975-1.2718,15.531-1.5291,16.791-1.0881,5.328-2.1515,0.35149-2.7791-13.007-1.6382-34.866-2.1471-38.448-4.6207-32.534-0.51759,1.2375-1.6492,3.1478-2.5147,4.2451-1.351,1.7128-1.7074,1.7836-2.5189,0.5-0.51986-0.82232-0.9521-2.5451-0.96052-3.8285-0.0258-3.9348-2.3276-1.8633-3.7787,3.4006-2.8918,10.49-3.1901,12.101-3.228,17.433-0.0407,5.7107-1.2018,9.1143-2.4309,7.1256-0.36979-0.59834-0.89971-5.0339-1.1776-9.8568-0.64214-11.145-1.2726-15.269-2.3341-15.269-0.46387,0-1.1457,1.6875-1.5151,3.75-0.36944,2.0625-1.1148,5.1-1.6565,6.75-0.54162,1.65-1.3019,9.525-1.6896,17.5-0.41464,8.5301-1.1166,14.5-1.7048,14.5-0.59462,0-1.5694-9.0197-2.4046-22.25-0.77253-12.238-1.7521-22.25-2.1768-22.25-1.3789,0-3.8642,6.1086-4.5313,11.138-1.1934,8.9965-2.7763,7.2301-3.9442-4.4016-0.37353-3.7202-1.1126-7.0318-1.6424-7.3592-0.5298-0.32744-2.1888,0.57882-3.6867,2.0139-3.4448,3.3004-3.8101,3.2694-4.614-0.39076-0.3624-1.65-1.064-3-1.5591-3-1.7396,0-4.8834,7.8582-5.6593,14.146-0.43127,3.4948-1.2336,6.3542-1.7828,6.3542-0.54931,0-1.612-3.5107-2.3616-7.8016-1.6263-9.3101-3.7453-10.182-5.7401-2.3626-2.21,8.6632-3.8163,7.3539-4.878-3.976-0.50163-5.3531-1.0754-7.3598-2.1044-7.3598-0.77807,0-1.4147,0.39825-1.4147,0.88499s-1.1308,1.6259-2.5128,2.5314c-2.4311,1.5929-2.5441,1.5642-3.4752-0.88499-0.52935-1.3923-1.3834-2.5314-1.898-2.5314-1.3975,0-5.0727,8.1474-5.9236,13.132-0.93304,5.4655-2.6066,5.6746-2.9469,0.36826-0.40502-6.3154-1.2633-10.5-2.1536-10.5-1.4572,0-4.358,14.219-5.0447,24.728-0.36759,5.6255-1.0026,10.562-1.4112,10.971-1.3535,1.3535-2.6032-2.1266-2.6188-7.2923-0.0316-10.504-1.3496-29.407-2.0504-29.407-1.4532,0-4.2464,9.656-4.6284,16-0.96645,16.051-2.8628,14.109-4.397-4.5034-0.63454-7.6981-1.3543-14.208-1.5994-14.466-0.24515-0.25823-1.624,1.036-3.0641,2.8761-2.4527,3.1339-2.7024,3.2306-3.9472,1.5284-0.73084-0.99949-1.3288-2.8562-1.3288-4.1261,0-3.7078-1.851-2.6568-2.538,1.4411-0.34574,2.0625-1.3378,6.45-2.2045,9.75-0.86674,3.3-1.8959,11.094-2.287,17.32-0.39112,6.2262-1.1946,11.804-1.7854,12.395-1.5277,1.5277-1.8333-0.57277-3.6174-24.865-1.5462-21.052-2.0348-24.35-3.6072-24.35-1.2223,0-1.7003,2.3494-2.9502,14.5-0.62232,6.05-1.5921,12.35-2.155,14-0.56296,1.65-1.3837,12.15-1.8238,23.334-0.46794,11.891-1.2405,20.775-1.8604,21.395-1.5966,1.5966-1.9261-1.213-3.1344-26.729-1.7574-37.11-1.9136-38.468-4.4137-38.39-1.1675,0.0364-3.0844-0.23753-4.2596-0.60877-1.8486-0.58394-2.4841,0.0836-4.7116,4.9491-1.4161,3.0932-2.8521,7.2949-3.1911,9.337-0.33895,2.0421-0.83042,4.3753-1.0922,5.1849-0.75059,2.3217-2.1197-0.52883-2.8683-5.972-0.34763-2.5276-1.018-5.2202-1.4898-5.9835-1.3959-2.2586-3.7528,0.48537-4.5446,5.2911-1.0586,6.4246-2.1043,7.7728-3.3952,4.3773-0.58868-1.5483-1.0703-4.099-1.0703-5.6682,0-3.3128-0.88583-6.0167-1.9711-6.0167-1.5208,0-3.9175,8.7024-4.5443,16.5-0.35368,4.4-0.86479,8.794-1.1358,9.7645-1.2156,4.3531-2.1951-0.35028-2.8654-13.759-0.68507-13.704-1.7625-17.937-2.9923-11.755-0.30091,1.5125-1.1901,5-1.9761,7.75-0.78593,2.75-1.7071,10.4-2.047,17-0.58723,11.402-1.6487,15.913-2.7885,11.851-0.28559-1.0179-0.79395-7.9257-1.1297-15.351-0.67557-14.941-1.3734-21-2.4184-21-1.4727,0-3.3641,6.8572-4.0697,14.755-1.1368,12.724-3.3308,12.537-4.542-0.38809-0.63456-6.7717-1.7412-9.4783-3.256-7.9635-0.33178,0.33178-1.3224,8.1393-2.2014,17.35-0.87898,9.2108-2.0401,16.747-2.5802,16.747-0.78353,0-2.8509-26.049-3.3928-42.75-0.15568-4.7976-1.7289-2.987-3.9099,4.5-1.4053,4.824-3.0435,16.954-4.8957,36.25-1.6137,16.811-3.204,29-3.7837,29-0.82799,0-2.9399-42.928-3.4069-69.25-0.10955-6.1749-1.631-6.945-2.5834-1.3076-0.36634,2.1683-1.3059,4.4734-2.0879,5.1224-0.89623,0.7438-1.4218,3.1063-1.4218,6.3909,0,2.866-0.32189,5.5328-0.7153,5.9262-0.39342,0.39341-1.718-1.5566-2.9434-4.3333-2.4902-5.6426-4.5509-6.4055-6.2089-2.2986-0.61065,1.5125-2.2198,15.082-3.5758,30.154-2.2863,25.412-3.6925,33.111-4.93,26.99-0.26627-1.317-1.0089-19.27-1.6503-39.895-0.64137-20.625-1.3559-37.695-1.5879-37.933-2.3148-2.3784-7.9564,20.483-9.361,37.933-1.1221,13.941-2.3634,19.008-3.4041,13.895-0.26808-1.317-0.96914-11.808-1.5579-23.314-0.98427-19.234-1.6259-24.073-2.7689-20.881-0.68901,1.9239-4.3634,6.3002-5.2896,6.3002-0.46639,0-1.1445-1.35-1.5069-3-0.92339-4.2042-2.2376-3.7342-3.4956,1.25-0.58998,2.3375-1.4966,5.2601-2.0147,6.4947-0.51811,1.2346-1.2058,5.9596-1.5282,10.5-1.2409,17.476-2.5839,16.775-3.9615-2.0672-0.55-7.5227-1.4206-13.678-1.9346-13.678-1.8105,0-3.8052,10.153-4.7154,24-0.50615,7.7-1.1597,14.675-1.4523,15.5-1.1441,3.2256-2.1429-1.6265-2.7788-13.5-1.0504-19.611-1.8523-28.5-2.5711-28.5-1.1659,0-4.047,6.9377-4.063,9.7839-0.008,1.4938-0.45842,3.3911-1,4.2161-1.5608,2.3776-2.7126-0.31143-3.5024-8.1768-0.37731-3.7571-1.0492-7.0555-1.493-7.3298-0.44383-0.2743-2.0386,0.96498-3.5439,2.754s-3.0044,3.2527-3.3313,3.2527c-0.32691,0-0.8238-1.3129-1.1042-2.9175s-1.0395-3.0937-1.6869-3.309c-1.6677-0.55473-5.0391,7.6069-5.8616,14.19-0.38226,3.0595-1.0924,5.8084-1.5781,6.1086-0.48572,0.30019-0.89455,0.40675-0.90851,0.23679-0.014-0.16996-1.1259-5.709-2.4709-12.309-1.7517-8.5956-3.5874-26.185-6.4703-62-2.2136-27.5-6.0518-74.39-8.5291-104.2-2.4774-29.81-4.5043-55.122-4.5043-56.25,0-4.1981-1.8375-1.8629-2.5178,3.1998-0.76719,5.7094-1.8764,8.5392-2.7764,7.083-0.31403-0.50811-1.1125-5.7366-1.7744-11.619-0.75313-6.693-1.7297-11.132-2.6098-11.862-1.8359-1.5237-3.3274-0.0586-4.1789,4.105-0.84858,4.1491-2.5632,4.3627-2.9504,0.36756-0.1693-1.7465-1.0055-3.7546-1.8582-4.4622-2.4918-2.068-4.1245,1.3121-4.8938,10.132-0.37293,4.2752-1.0745,8.3881-1.5591,9.1397-1.4455,2.242-2.84-0.92249-2.9234-6.6335-0.10077-6.9078-1.2474-12.763-2.5867-13.21-1.6882-0.56274-2.1556,3.1911-3.3876,27.21-0.62067,12.1-1.3457,23.078-1.6113,24.395-1.2022,5.9633-2.2694-1.0811-3.3168-21.895-1.2774-25.384-1.8389-30.239-3.4357-29.707-1.5745,0.52482-2.3036,5.9814-3.1365,23.473-0.67233,14.119-1.6014,18.863-2.8398,14.498-0.27536-0.97049-0.80267-7.8395-1.1718-15.265-0.71341-14.351-1.9094-22.838-3.4328-24.361-0.57535-0.57535-1.5964,0.46267-2.6704,2.7149-0.95636,2.0055-2.0372,3.6464-2.4019,3.6464-0.36471,0-1.4058-1.8906-2.3134-4.2014-1.0399-2.6473-2-3.8494-2.5956-3.25-1.6559,1.6665-2.9055,13.38-3.5684,33.451-0.35422,10.725-0.87885,20.333-1.1658,21.351-1.3169,4.6706-2.321-1.6359-3.7973-23.851-0.87721-13.2-1.7789-24.675-2.0038-25.5-2.5818-9.4721-3.7927-13-4.4622-13-1.6986,0-3.3329,19.997-4.5359,55.5-0.68953,20.35-1.3145,37.202-1.3888,37.45-0.0743,0.2475-0.5622,0.0225-1.0842-0.5-0.52198-0.5225-1.6369-15.8-2.4775-33.95-1.6029-34.607-2.3583-45.776-3.2539-48.11-0.29704-0.77407-1.7251-1.342-3.1794-1.2644-1.4521,0.0775-3.3555-0.16462-4.2299-0.53799-2.8055-1.198-4.1606,2.1534-5.4649,13.515-1.819,15.845-3.2721,16.058-5.4592,0.80003-0.70187-4.8967-1.6609-8.9032-2.1311-8.9032-0.47024,0-0.88296,0.1125-0.91715,0.25-0.0342,0.1375-0.83379,4.75-1.7769,10.25s-2.1526,10-2.6878,10c-0.53521,0-1.5198-4.6866-2.1879-10.415-1.108-9.4992-2.3425-13.361-3.8038-11.9-0.30354,0.30353-1.1966,7.8866-1.9847,16.851-1.3668,15.549-2.7613,21.237-3.8874,15.858-0.27569-1.317-0.79088-8.6588-1.1449-16.315-0.65652-14.2-1.7318-19.712-3.5003-17.944-1.0436,1.0436-2.9161,24.959-2.9648,37.864-0.0315,8.3464-1.014,11.904-2.5855,9.3609-0.45979-0.74395-1.3756-10.967-2.0351-22.717-1.1068-19.719-2.0379-25.123-3.8295-22.224-0.37197,0.60186-1.1266,8.4036-1.6769,17.337-1.5802,25.653-2.5343,26.927-4.8726,6.5069-0.825-7.2049-1.984-13.261-2.5756-13.457-0.70729-0.23498-1.5856,5.9792-2.5652,18.15-0.81931,10.179-1.8223,18.84-2.2288,19.246-1.7219,1.7219-2.4009-2.9605-3.0516-21.045-0.69244-19.242-2.0971-31.658-3.5817-31.658-1.2199,0-2.8088,8.4952-3.46,18.5-1.3011,19.989-4.6676,62.151-5.1417,64.395-0.36022,1.7044-0.81525,2.0855-1.5786,1.3221-0.66658-0.66658-1.3813-11.225-1.8883-27.895-1.3196-43.385-2.3432-58.322-3.9968-58.322-1.0744,0-2.658,8.7073-3.4539,18.991-0.36143,4.6699-0.915,8.9079-1.2302,9.4178-0.31515,0.50992-1.617-1.4385-2.893-4.3298-2.4635-5.5821-4.0798-6.1255-5.9638-2.0048-0.61009,1.3344-2.0944,16.376-3.2984,33.426-2.3816,33.727-2.6908,36.302-4.18,34.812-0.5536-0.5536-1.3943-15.024-1.9403-33.395-0.90731-30.53-2.4028-55.228-3.5828-59.168-0.94096-3.1421-2.2166-1.8534-3.9595,4-1.0884,3.6553-2.3521,14.857-3.469,30.75-0.96628,13.75-1.8028,25.202-1.8589,25.45-0.0561,0.2475-0.60474-0.0528-1.2192-0.66723-0.68306-0.68306-1.6408-10.767-2.4644-25.95-1.3978-25.767-1.9072-29.665-3.7957-29.048-0.99821,0.32617-1.8348,3.0322-3.2481,10.506-0.53814,2.8458-2.3746,1.9172-2.3746-1.2007,0-3.4892-2.0893-8.7271-3.3177-8.3176-1.7278,0.57593-2.4335,5.0529-3.6615,23.227-1.0833,16.034-2.2913,21.875-3.3903,16.395-0.2641-1.317-0.88394-9.9421-1.3774-19.167-0.84045-15.711-1.9091-20.712-3.7793-17.686-0.41356,0.66915-1.2519,11.696-1.863,24.504-0.61111,12.808-1.473,23.649-1.9153,24.092-1.7413,1.7413-2.3554-2.4838-3.4921-24.025-1.1574-21.934-1.6172-25.613-3.2019-25.613-1.1694,0-1.7897,3.4529-2.5149,14-1.1677,16.983-2.7161,17.157-4.4349,0.5-1.3709-13.285-1.754-14.704-3.8608-14.298-1.0727,0.20659-1.8988,1.8414-2.3928,4.7352-1.3543,7.9334-2.7846,7.5345-4.2559-1.1869-0.46124-2.734-1.1276-3.75-2.4595-3.75-2.0203,0-2.5042,2.0003-3.6649,15.149-1.1903,13.484-3.3018,13.186-5.3766-0.75978-0.7982-5.3652-1.674-8.3453-2.383-8.109-0.61653,0.20551-1.8043,4.3062-2.6395,9.1126s-1.9685,8.8012-2.5185,8.8773c-0.55145,0.0763-1.5268-4.6517-2.1745-10.541-0.64597-5.8734-1.4719-11.616-1.8354-12.761-0.99414-3.1322-3.738-1.9593-4.7552,2.0328-1.2507,4.9084-2.5039,5.8248-3.2725,2.3931-1.2934-5.7749-1.6278-6.3946-3.4503-6.3946-2.093,0-2.5965,1.7728-3.5504,12.5-0.34236,3.85-0.84369,7.794-1.1141,8.7645-0.93765,3.3655-2.1938,0.68039-2.8187-6.025-1.0862-11.656-1.6406-14.239-3.0555-14.239-1.825,0-2.3132,4.1597-3.7557,32-0.73516,14.188-1.6139,23.5-2.2176,23.5-0.60921,0-1.441-9.6507-2.1284-24.695-1.1579-25.341-1.8306-31.805-3.3099-31.805-1.6023,0-2.1538,3.4345-3.1166,19.409-0.53075,8.806-1.4105,16.456-1.955,17.001-1.2318,1.2318-0.96712,3.0258-2.4945-16.91-0.71638-9.35-1.6191-17.788-2.006-18.75-1.0689-2.659-3.3754-2.0913-4.0634,1-1.1811,5.3072-1.5769,6.2749-2.3668,5.7867-0.43816-0.27079-1.0767-2.2439-1.4191-4.3846-0.61128-3.8227-2.9701-7.0454-3.9713-5.4255-1.0208,1.6518-2.5667,20.237-3.2481,39.05-0.6386,17.632-1.627,23.931-2.8269,18.014-0.25555-1.26-1.1641-13.353-2.0191-26.874-1.5244-24.109-3.4833-35.719-6.1778-36.618-1.953-0.65101-3.4062,17.458-4.5498,56.701-1.0193,34.976-1.8426,44.64-3.2286,37.895-0.27061-1.317-1.2421-19.495-2.1589-40.395s-1.9658-39.8-2.331-42c-0.59606-3.5901-0.96972-4.0108-3.6464-4.1059-1.6403-0.0582-3.7723-0.44481-4.7378-0.85908-2.5369-1.0885-4.3829,4.0376-5.2499,14.579-1.1676,14.195-2.6599,14.243-5.1174,0.1632-2.2322-12.788-2.8272-12.685-5.0002,0.86758-2.2351,13.94-3.6217,14.042-4.8387,0.35519-0.89116-10.022-1.5093-12.5-3.1178-12.5-0.78129,0-1.4192,0.5625-1.4176,1.25,0.007,3.011-2.1679,28.479-2.617,30.645-1.1535,5.5618-2.6999-0.47145-3.4809-13.581-0.9216-15.47-1.5996-20.314-2.8434-20.314-1.7748,0-2.2856,4.2232-3.4071,28.167-1.0589,22.607-1.7931,28.489-3.0862,24.726-0.26333-0.76622-1.1186-12.325-1.9007-25.687-0.78205-13.362-1.7097-24.582-2.0614-24.933-1.7292-1.7292-2.5836,2.6883-3.6222,18.727-0.62327,9.625-1.3549,18.175-1.6259,19-1.0167,3.0958-2.0925-1.4675-3.3679-14.286-0.83922-8.4349-1.6496-12.662-2.3812-12.42-0.68305,0.2259-1.7376,7.826-2.7454,19.786-1.9042,22.599-1.6033,20.58-2.8774,19.306-0.55757-0.55757-1.45-9.5351-1.9832-19.95s-1.2479-21.976-1.5881-25.69c-0.98092-10.709-3.8549-10.28-4.8454,0.72196-0.29868,3.3176-1.7027,21.332-3.1201,40.032s-2.7982,35.078-3.0686,36.395c-1.4367,6.9991-2.3962-2.8888-3.3865-34.898-0.60401-19.523-1.5248-39.084-2.0463-43.47-0.52143-4.3856-0.94806-8.3231-0.94806-8.75,0-0.42692-0.39375-0.77623-0.875-0.77623-1.282,0-2.218,5.1758-3.0318,16.764-0.87212,12.418-2.1764,14.512-4.5633,7.326-1.8011-5.4225-3.7312-6.4506-5.5899-2.9775-0.62175,1.1618-2.2389,17.024-3.5937,35.25s-2.6868,34.215-2.9601,35.532c-1.4264,6.8754-2.3116-3.0332-3.3959-38.013-1.2033-38.82-2.6584-57.381-4.4982-57.381-2.6238,0-4.5272,11.085-6.0575,35.278-0.8601,13.597-1.7846,25.8-2.0545,27.117-1.2377,6.0402-2.3081-1.1676-3.3259-22.395-1.3566-28.293-2.0909-34.5-4.0813-34.5-1.0042,0-2.8261,5.9486-3.2158,10.5-0.41094,4.7986-2.2,3.4662-2.8854-2.1488-0.6556-5.3713-1.4161-7.3512-2.8236-7.3512-1.6154,0-2.2454,3.6615-3.486,20.262-0.68898,9.2191-1.5717,17.081-1.9617,17.471-1.583,1.583-2.337-2.5823-2.9963-16.552-0.71622-15.175-1.2604-19.181-2.6054-19.181-1.6841,0-2.1893,4.3315-3.1495,27-0.54747,12.925-1.2124,24.578-1.4776,25.895-1.1845,5.8823-2.3425-0.84396-3.339-19.395-1.5398-28.663-1.9568-32.5-3.5326-32.5-1.6865,0-2.2547,2.8979-3.0923,15.772-0.64545,9.9204-1.8468,13.766-2.8175,9.0194-0.25768-1.26-1.0104-7.3923-1.6728-13.627-0.86827-8.1735-1.6109-11.492-2.6617-11.896-1.7875-0.68592-3.2146,1.3885-3.2556,4.7322-0.0168,1.375-0.47373,3.175-1.0153,4-0.87528,1.3333-1.0941,1.3333-1.9694,0-0.54157-0.825-0.99157-2.6515-1-4.0589-0.008-1.4074-0.60149-3.3605-1.3179-4.3403-2.2-3.0087-3.4289-0.002-4.6583,11.399-1.4103,13.078-1.921,15.531-2.9969,14.395-1.1629-1.2282-5.0499-22.17-5.0089-26.987l0.0333-3.9078,1.9644,2.3579c1.0966,1.3163,2.6005,2.1138,3.4045,1.8053,1.6932-0.64973,3.5447-6.6912,3.5744-11.663,0.0219-3.6633,1.3618-6.8268,2.269-5.3568,0.29078,0.47122,1.0237,3.5359,1.6287,6.8105,1.8662,10.101,4.319,10.101,6.1852,0,0.605-3.2745,1.3379-6.3392,1.6287-6.8105,0.93387-1.5134,2.2446,1.7352,2.3631,5.8568,0.16301,5.6703,1.2498,8.9407,3.0888,9.2948,1.859,0.35801,2.4472-2.251,3.3354-14.795,0.33105-4.675,0.82696-9.5776,1.102-10.895,0.94775-4.5382,2.4165-0.58634,2.959,7.9618,0.66017,10.402,2.3913,20.933,3.441,20.933,1.4442,0,2.9214-12.345,3.5899-30,0.62556-16.522,1.5281-22.738,2.7591-19,0.27173,0.825,0.98762,10.5,1.5909,21.5,1.1668,21.275,1.6607,24.796,3.3974,24.217,1.5313-0.51043,2.3374-5.3667,3.1487-18.969,0.66812-11.201,1.8669-15.497,2.9412-10.539,0.27303,1.26,1.006,7.4659,1.6288,13.791,0.62282,6.325,1.3371,11.712,1.5873,11.971,1.2809,1.3263,2.0867-3.5978,3.2283-19.728,0.69067-9.7588,1.4944-18.576,1.7862-19.594,1.3155-4.59,2.3308,1.3037,3.3353,19.36,1.1566,20.791,1.8871,26.121,3.6613,26.712,1.9834,0.66113,3.2489-8.5478,5.871-42.722,1.4137-18.425,2.7964-34.578,3.0726-35.895,1.3981-6.6661,2.3287,2.3674,3.2856,31.895,1.0422,32.161,2.6141,52.675,4.1669,54.382,0.44121,0.48487,1.4621-0.69769,2.2686-2.6279,1.7491-4.1862,2.9208-5.0134,8.1002-5.7186,3.3278-0.4531,4.0552-0.99461,4.7486-3.5351,0.45039-1.65,1.5301-18.975,2.3993-38.5,0.86922-19.525,1.7948-36.578,2.0568-37.895,1.349-6.7814,2.25,2.6448,3.2399,33.895,0.9638,30.427,2.2277,48.391,3.7231,52.917,0.83001,2.5123,2.479-0.33665,4.3706-7.551,1.1165-4.2581,2.2487-14.463,2.9808-26.866,1.2842-21.757,1.6673-24.855,2.9738-24.048,0.47515,0.29366,1.1676,8.0746,1.5388,17.291,0.37118,9.2163,1.1062,20.464,1.6333,24.994,1.479,12.711,2.5491,14.103,5.3926,7.0126l1.7044-4.25,1.9281,3.75c1.0604,2.0625,2.3462,3.75,2.8572,3.75,1.592,0,2.9833-7.0533,3.6491-18.5,0.3519-6.05,0.99836-11.675,1.4366-12.5,1.3808-2.5994,2.9374,3.441,2.9374,11.398,0,7.6986,1.771,18.602,3.0214,18.602,1.4859,0,2.0789-4.8768,3.1007-25.5,0.57222-11.55,1.2538-22.078,1.5145-23.395,1.1444-5.7803,2.2392,0.81548,3.3023,19.895,1.2102,21.72,1.7758,26.706,3.1243,27.539,1.5151,0.93636,2.8114-3.0759,3.5199-10.894,1.0775-11.891,2.5683-11.19,3.9449,1.8548,0.34825,3.3,1.3373,7.0965,2.1979,8.4366l1.5647,2.4366,2.4166-2.9366,2.4166-2.9366,1.56,2.25c3.5085,5.0602,5.8292,2.0897,6.8601-8.7808,0.92992-9.8057,1.8842-11.581,3.7469-6.9692,0.77757,1.925,1.6911,4.2875,2.03,5.25,1.0626,3.0175,2.4585,1.93,4.1816-3.2578,0.91482-2.7543,2.0229-4.7855,2.4624-4.5139,0.43949,0.27162,1.0972,3.5376,1.4617,7.2578,0.90034,9.1903,2.5444,17.264,3.5154,17.264,1.7234,0,2.8814-15.184,4.0335-52.887,0.52386-17.144,1.3178-29.807,1.9058-30.395,1.367-1.367,1.7712,1.0003,3.0364,17.781,3.3727,44.733,4.2346,54.46,5.2061,58.75,2.0622,9.1074,3.568,5.3703,4.9359-12.25,0.49102-6.325,0.90342-14.958,0.91645-19.185,0.0233-7.5523,1.4107-13.761,2.7711-12.401,0.3803,0.3803,1.3802,9.1052,2.222,19.389,0.88228,10.778,1.9541,18.697,2.5306,18.697,0.55,0,1.675-6.3,2.5-14s1.95-14,2.5-14c0.58157,0,1.4704,6.9636,2.1243,16.642,1.1059,16.369,1.6657,19.415,3.3748,18.358,1.0986-0.67896,1.8035-7.0694,2.9674-26.9,0.51322-8.7449,1.3808-16.347,1.928-16.895,1.4897-1.4897,1.9238,1.8341,2.6504,20.294,0.72639,18.454,1.438,24.161,3.0814,24.709,1.6941,0.56472,2.3611-3.0235,3.0465-16.39,0.60185-11.737,1.4064-15.572,2.9438-14.035,0.39896,0.39896,1.1544,6.2359,1.6788,12.971,0.52435,6.7351,1.3641,13.331,1.8662,14.658,1.5465,4.088,3.213,0.80908,4.3228-8.5054,0.55859-4.6881,1.4656-8.5318,2.0156-8.5416,0.55-0.01,1.5866,3.5039,2.3036,7.8082,0.71695,4.3043,1.6902,8.2143,2.1629,8.6888,1.6915,1.6985,2.8082-0.43443,3.4718-6.631,0.79288-7.4038,2.0141-10.066,3.5464-7.7319,0.54158,0.825,0.99158,3.2132,1,5.3072,0.0187,4.654,1.9147,12.513,3.2123,13.315,0.52307,0.32327,2.0917-0.47188,3.4859-1.767l2.5349-2.3548,1.5131,2.25c3.3821,5.0293,5.7806,1.7538,7.0355-9.6082,0.40348-3.653,1.1734-6.6418,1.7109-6.6418,0.53749,0,1.4785,3.056,2.0912,6.7912,1.7394,10.605,4.7764,11.801,5.9576,2.3467,0.69259-5.5433,1.9042-8.5409,3.0067-7.4385,0.3528,0.35279,1.0131,3.6381,1.4673,7.3006,0.90526,7.2995,1.233,8.0083,3.3306,7.2034,1.7168-0.65881,2.3581-4.1179,3.1894-17.203,0.3494-5.5,0.85773-10.794,1.1296-11.765,1.1455-4.0887,2.1344-0.0115,2.7875,11.493,0.71531,12.599,1.9845,19.771,3.4987,19.771,1.4872,0,2.9058-11.862,3.6196-30.267,0.37899-9.7716,1.0841-18.011,1.5668-18.309,0.48276-0.29836,0.92916-0.40342,0.992-0.23346,0.0628,0.16996,0.68208,9.759,1.3761,21.309,1.25,20.804,2.0027,26.5,3.5014,26.5,1.2854,0,1.9758-3.8882,3.0079-16.942,0.95884-12.127,2.3305-16.94,3.4061-11.953,0.28406,1.317,0.99097,7.0891,1.5709,12.827,1.0197,10.088,1.4562,11.968,2.53,10.894,0.27867-0.27866,1.2047-9.2412,2.0579-19.917,1.7194-21.514,2.1064-24.231,3.3425-23.467,0.46663,0.2884,1.1599,8.5193,1.5406,18.291,0.71336,18.311,2.0267,30.124,3.5158,31.624,2.148,2.1633,3.3955-6.1855,6.4087-42.89,4.4158-53.79,4.9828-53.961,6.5294-1.9675,1.0357,34.821,2.5163,53.5,4.2406,53.5,0.45709,0,1.474-1.5388,2.2598-3.4195,1.6457-3.9387,4.7806-5.9699,8.2038-5.3155,4.8011,0.91779,4.9318,0.0373,7.2394-48.765,1.0196-21.563,2.0388-35,2.6549-35,0.62792,0,1.4173,13.581,2.1216,36.5,1.1419,37.161,2.723,55.385,4.7467,54.711,2.741-0.91368,4.8254-12.587,6.4655-36.211,0.98742-14.223,2.0736-24,2.6662-24,0.60413,0,1.4767,9.3029,2.2043,23.5,1.2357,24.113,2.0068,30.07,3.9768,30.727,0.62131,0.2071,1.6571-1.2218,2.3018-3.1752,1.4314-4.3372,2.4925-4.4669,4.5171-0.55179,0.85325,1.65,1.9364,3,2.407,3,1.4594,0,2.9325-8.0167,3.583-19.5,0.34275-6.05,0.84763-12.078,1.122-13.395,1.0101-4.8498,2.258-0.35273,2.8844,10.395,0.70948,12.173,2.2096,21.5,3.458,21.5,1.4742,0,2.0601-5.2419,3.1855-28.5,1.0329-21.346,2.0346-28.265,3.242-22.395,0.27089,1.317,0.97093,11.845,1.5556,23.395,1.1415,22.549,1.5621,25.5,3.6338,25.5,1.3076,0,1.7074-1.5256,2.9425-11.227,0.33097-2.5997,1.0126-4.9806,1.5147-5.2909,1.0122-0.6256,1.5597,1.4502,2.4472,9.2798,0.32807,2.8942,0.85341,5.9317,1.1674,6.75,0.88898,2.3167,3.8776,1.752,5.357-1.0122,1.6158-3.0192,2.5918-3.1691,3.2884-0.50505,0.63086,2.4124,3.4418,3.6748,4.9111,2.2055,0.5858-0.5858,1.568-5.4149,2.1828-10.731,0.61473-5.3164,1.5309-9.7344,2.0359-9.8177,0.50503-0.0833,1.63,2.066,2.5,4.7763,1.7677,5.5069,3.582,6.8495,4.5639,3.3773,2.5413-8.9857,4.4931-9.6258,4.5614-1.496,0.0563,6.693,2.187,16.935,3.6229,17.413,1.6967,0.56556,2.154-5.1541,3.3757-42.222,1.2069-36.617,1.4414-39.416,3.1586-37.699,1.0606,1.0606,2.0147,10.382,5.2916,51.699,1.5744,19.851,2.8065,27.5,4.4296,27.5,1.475,0,2.0689-4.9667,3.1683-26.5,0.58972-11.55,1.2856-22.078,1.5463-23.395,1.1324-5.7194,2.4197,0.74596,3.9663,19.92,0.90834,11.261,1.8193,20.662,2.0243,20.891,0.95939,1.0724,1.5392-1.5384,2.8772-12.954,1.4228-12.14,2.9054-16.702,3.8535-11.857,0.25774,1.317,0.89534,8.3848,1.4169,15.706,0.89784,12.604,2.0313,16.929,3.7203,14.197,0.39642-0.64143,1.2982-10.468,2.0038-21.837,0.70569-11.369,1.3321-20.873,1.3921-21.121,0.06-0.2475,0.61308,0.0541,1.2292,0.67014,0.66428,0.66428,1.4988,8.3433,2.0507,18.869,0.97179,18.535,1.8169,24.911,3.302,24.911,1.5485,0,2.4898-5.6547,3.0796-18.5,1.0259-22.346,2.6298-22.712,4.3782-1,1.3105,16.275,1.6487,18,3.5284,18,1.5619,0,2.1471-2.1379,3.0832-11.264,0.69525-6.7782,1.8794-9.3054,2.8115-6.0006,0.27374,0.97049,1.0218,5.027,1.6624,9.0145,0.76829,4.7828,1.6173,7.25,2.4948,7.25,1.3086,0,1.8089-1.5623,3.0422-9.5,1.5725-10.121,3.1021-9.4406,4.3791,1.9465,0.56127,5.0048,1.4685,8.3712,2.5388,9.4206,1.544,1.5138,1.839,1.4176,4.0454-1.3185l2.38-2.9514,0.91464,2.4514c0.50305,1.3483,5.0999,53.301,10.215,115.45,5.1154,62.15,9.748,113.58,10.295,114.29,1.5696,2.0404,2.5517,0.15633,3.2873-6.3058,0.88546-7.7794,2.2201-11.56,3.3494-9.4865,0.44939,0.825,1.1279,3.3866,1.5078,5.6924,0.79182,4.8057,3.1487,7.5497,4.5446,5.2911,0.47177-0.76333,1.1627-3.6594,1.5354-6.4357,0.80734-6.0139,2.0442-8.9025,2.8038-6.5478,0.26613,0.825,0.74937,3.3979,1.0739,5.7175,0.75493,5.3965,2.5288,9.2825,4.2373,9.2825,0.73671,0,1.3395-0.85232,1.3395-1.894,0-3.368,2.0408-22.562,2.5517-23.999,1.0205-2.8699,1.9682,0.32181,2.5901,8.7232,0.62467,8.438,3.4586,19.17,5.062,19.17,0.43789,0,0.81731-2.3625,0.84316-5.25,0.10724-11.979,1.7415-30.938,2.7541-31.951,1.446-1.446,1.9271,1.0909,2.6376,13.909,0.31118,5.6144,0.98363,11.239,1.4943,12.5,0.5107,1.2606,1.1932,3.5296,1.5168,5.0421,1.2249,5.7263,2.3775,2.3445,3.0674-9,1.1078-18.217,2.7767-18.916,4.8584-2.0345,0.68244,5.5343,1.6157,9.2821,2.3744,9.5348,0.69317,0.23089,1.2588-0.40032,1.2698-1.417,0.0496-4.5994,3.0004-30.557,3.5804-31.495,1.3492-2.1831,2.3712,1.8346,2.4576,9.662,0.0879,7.9616,0.89102,14.376,2.7545,22,0.53774,2.2,1.2704,5.6875,1.6281,7.75,1.1346,6.542,2.2646,4.0781,2.981-6.5,1.3279-19.607,5.142-56.647,5.9122-57.417,1.7713-1.7713,2.6421,2.8813,2.7451,14.667,0.12778,14.619,1.0384,25.224,3.8212,44.5,1.1116,7.7,2.0389,14.562,2.0607,15.25,0.0796,2.5172,1.916,1.1543,3.0421-2.2577,1.2936-3.9196,4.0325-5.8241,8.205-5.7055,1.9608,0.0557,2.8096-0.42186,2.8502-1.6037,0.5529-16.117,3.7184-63.293,4.285-63.859,1.7822-1.7822,2.6319,2.9707,2.7131,15.176,0.0928,13.952,0.62916,19.917,3.8218,42.5,1.1274,7.975,2.0662,14.838,2.0861,15.25,0.0199,0.4125,0.47765,0.75,1.0172,0.75,1.5692,0,2.0477-3.3368,3.9197-27.332,0.97275-12.469,2.0925-22.994,2.4884-23.39,1.5532-1.5532,2.5837,2.6082,2.6553,10.722,0.0412,4.675,0.47272,10.525,0.95892,13,3.339,16.997,4.3116,21,5.1024,21,0.49193,0,0.89441-1.1546,0.89441-2.5657,0-1.4112,0.49177-3.4846,1.0928-4.6077,1.0426-1.948,1.2108-1.876,3.6597,1.5657,1.4118,1.9842,2.883,3.6077,3.2693,3.6077,0.71322,0,1.4304-6.65,2.6188-24.284,1.0046-14.906,2.8408-14.017,3.6832,1.7837,0.39941,7.4912,3.3069,19.5,4.7212,19.5,0.34842,0,1.0856-8.4794,1.6383-18.843,0.55264-10.364,1.3562-19.412,1.7857-20.107,1.4145-2.2887,2.4963,1.0617,2.567,7.95,0.11548,11.26,3.1303,29,4.9283,29,1.1091,0,2.0028-3.7285,2.0373-8.5,0.0296-4.0886,1.3227-7.4022,2.2826-5.8492,0.29381,0.47541,0.82744,2.661,1.1858,4.8568,0.76691,4.6987,4.4988,13.492,5.7259,13.492,0.46973,0,1.1259-1.3594,1.4582-3.0208,0.83649-4.1824,1.6804-4.3706,4.2168-0.93992,3.6684,4.9617,4.6925,3.8908,5.9358-6.207,0.62082-5.0423,1.5327-9.5716,2.0263-10.065,0.53005-0.53005,1.5496,0.73211,2.4901,3.0827,2.3569,5.8905,3.4609,5.9366,5.827,0.24316,1.1556-2.7806,2.4945-4.8124,2.9754-4.5152,0.48093,0.29723,0.87441,3.3838,0.87441,6.859,0,4.1417,0.47378,6.7117,1.3752,7.4599,0.75637,0.62773,1.6617,2.9328,2.0118,5.1224,0.80587,5.0396,2.6187,5.2011,2.5953,0.23112-0.0631-13.418,2.4417-72.914,3.1005-73.645,1.2015-1.3329,1.5552,1.2869,4.4406,32.895,1.768,19.367,3.3157,31.242,4.6594,35.75,2.1586,7.2416,3.8172,8.7644,3.8172,3.5046,0-6.1404,2.132-41.256,2.5893-42.648,1.0726-3.264,1.9459,0.99962,3.4729,16.955,2.0706,21.636,3.1412,23.527,5.014,8.8535,1.521-11.917,1.8753-13.364,2.9964-12.243,0.52902,0.52902,1.2192,4.7566,1.5338,9.3946,0.5741,8.4646,2.8681,17.933,4.3449,17.933,0.83102,0,1.6288-8.172,2.5869-26.5,1.1019-21.077,2.5141-20.618,4.0809,1.3263,1.1026,15.443,2.9216,24.916,4.881,25.418,0.60007,0.15372,1.3089-4.9429,1.7724-12.744,0.4248-7.15,1.0176-13.675,1.3172-14.5,1.0453-2.8776,2.1264,1.1386,2.8265,10.5,0.63764,8.5269,2.9906,17.5,4.589,17.5,0.78304,0,1.9558-5.8657,1.9993-10,0.0145-1.375,0.46942-3.175,1.011-4,1.4037-2.1383,2.6713,0.0862,3.5056,6.1519,0.56041,4.0747,2.8005,7.9835,3.863,6.7406,0.18453-0.21587,0.96116-3.715,1.7258-7.7758,0.76467-4.0608,1.8403-7.2828,2.3903-7.1599,0.55,0.12292,1.4932,2.9954,2.096,6.3833,1.1833,6.6507,3.9005,13.66,5.2955,13.66,0.47553,0,1.4868-0.93701,2.2472-2.0822l1.3826-2.0822,2.6472,2.0822c1.4559,1.1452,3.0862,2.0822,3.6229,2.0822,0.53668,0,1.2807-3.0375,1.6534-6.75,1.2017-11.97,2.7211-13.586,4.5394-4.8268,1.0146,4.8872,3.3057,8.6205,4.5355,7.3906,0.25919-0.25919,1.0358-3.2606,1.7258-6.6698,0.69002-3.4092,1.7046-6.2988,2.2546-6.4212,0.55-0.12246,1.2375,1.8412,1.5278,4.3638,0.55059,4.7843,3.4441,10.358,4.9077,9.4534,0.46619-0.28812,1.1651-4.959,1.553-10.38,1.0594-14.802,3.5044-16.821,4.6354-3.8277,0.63258,7.267,2.9938,15.168,4.5331,15.168,0.46363,0,1.3466-8.325,1.9622-18.5,0.61558-10.175,1.1781-18.702,1.25-18.95,0.0719-0.2475,0.59505,0.0143,1.1625,0.58179,0.56748,0.56748,1.4416,6.395,1.9424,12.95,0.91245,11.942,2.6533,19.844,4.5258,20.544,0.60424,0.22588,1.3958-4.7711,2-12.626,0.57417-7.4643,1.4258-12.961,2-12.908,0.55,0.0505,1.5703,4.7755,2.2673,10.5,0.69703,5.7245,1.4704,10.971,1.7186,11.658,1.3219,3.6615,2.3135-0.23471,3.4357-13.5,1.427-16.869,1.8168-18.912,3.3212-17.407,0.5743,0.5743,1.3781,6.6543,1.7863,13.511,0.40815,6.8568,1.0817,13.016,1.4968,13.688,0.41507,0.67159,1.254,3.7494,1.8644,6.8396,1.2929,6.5462,2.9921,7.3598,3.38,1.6185,0.65847-9.7456,5.3494-59.235,5.8193-61.395,1.3712-6.301,2.5993,1.4104,3.4244,21.502,0.49446,12.041,1.3306,23.468,1.8582,25.393,0.52754,1.925,1.4832,8.225,2.1237,14s1.3838,11.288,1.6517,12.25c0.70714,2.5401,2.2153,2.1444,2.9476-0.77333,0.82971-3.3058,4.0512-5.4767,8.1273-5.4767,1.9672,0,3.2686-0.49974,3.2553-1.25-0.0708-3.9801,3.2554-64.659,3.6533-66.645,1.2647-6.3135,2.4234,1.3818,3.3022,21.931,0.52838,12.355,1.3966,24.039,1.9294,25.964,0.53279,1.925,1.4928,8.225,2.1332,14,1.3069,11.784,1.776,14,2.9631,14,1.3881,0,1.8808-3.6776,3.5506-26.5,0.88532-12.1,1.8327-23.078,2.1053-24.395,1.0819-5.2255,2.4628,0.0197,3.0205,11.472,0.3192,6.5574,1.1784,14.173,1.9091,16.923s1.8391,7.5875,2.463,10.75c1.3331,6.7575,2.7515,7.4601,3.185,1.5777,0.1691-2.2948,0.7575-4.3164,1.3075-4.4926,0.55-0.17618,2.0705,1.2514,3.3789,3.1723s2.6934,3.4926,3.0779,3.4926c0.3844,0,1.1807-6.494,1.7695-14.431,0.5889-7.9372,1.3976-14.96,1.7972-15.607,1.4027-2.2696,2.4456,1.4004,2.4612,8.6608,0.015,7.1692,3.102,17.06,4.9647,15.908,0.4593-0.28382,1.1609-8.3403,1.5593-17.903,0.3984-9.563,1.0657-17.939,1.4829-18.614,1.4462-2.3401,2.2612,0.99963,3.0505,12.501,0.7794,11.357,3.5588,25.485,5.0135,25.485,0.4319,0,1.0701-3.0375,1.4183-6.75s0.7215-7.65,0.8296-8.75c0.3978-4.0485,2.2085-1.8364,2.8769,3.5146,0.7663,6.1347,4.1825,14.985,5.7841,14.985,0.5695,0,1.0355-0.42071,1.0355-0.9349,0-0.5142,0.4441-2.1029,0.9868-3.5305l0.9869-2.5956,2.8504,3.1901c1.5677,1.7546,3.3201,2.8998,3.8943,2.5449,0.5741-0.35485,1.3693-4.1392,1.7671-8.4096,0.3977-4.2704,1.1984-8.6574,1.7794-9.7488,0.9615-1.8061,1.218-1.6039,2.8547,2.25,2.1875,5.1505,4.0607,5.39,5.7442,0.73441,2.1085-5.8309,4.1362-3.9279,4.1362,3.8818,0,2.32,0.4983,4.7165,1.1074,5.3256,0.609,0.60904,1.3965,2.5213,1.75,4.2496,0.3534,1.7282,1.0926,3.2324,1.6426,3.3426,0.6331,0.1269,1.47-13.001,2.2812-35.781,1.159-32.552,2.1564-42.329,3.6122-35.413,0.2772,1.317,1.6572,14.839,3.0666,30.049,2.4476,26.414,4.6651,38.721,7.1244,39.541,0.6876,0.2292,1.4424-6.9536,2.1886-20.829,0.6265-11.648,1.5839-21.623,2.1277-22.167,1.3134-1.3134,1.7352,0.96676,3.1082,16.801,0.62,7.15,1.3519,13.788,1.6265,14.75,1.0773,3.7755,2.1314,1.3524,3.2626-7.5,0.6501-5.0875,1.4022-10.281,1.6713-11.541,0.9861-4.6166,2.2077-0.99553,2.8763,8.5257,0.6646,9.465,2.9244,18.265,4.6903,18.265,0.4752,0,0.8641-1.2254,0.8641-2.7232,0-5.4319,2.1315-35.815,2.6132-37.249,1.0738-3.1969,2.3568,1.5339,2.4333,8.972,0.1328,12.915,3.1662,32,5.086,32,0.4771,0,0.8935-0.3375,0.9252-0.75,0.032-0.4125,0.4244-5.8451,0.8725-12.072,0.4481-6.2274,1.2774-11.785,1.8429-12.351,1.3612-1.3611,1.8994,0.70517,2.7429,10.529,0.6751,7.8628,2.7182,14.644,4.4121,14.644,0.4957,0,1.2116-3.3119,1.5909-7.3598,1.1427-12.194,2.2779-12.47,4.7268-1.1498,1.898,8.7735,4.0597,8.6037,5.6769-0.446,1.8711-10.47,3.0394-10.291,4.5239,0.69192,0.696,5.1491,3.481,11.264,5.1302,11.264,0.6635,0,1.4568-1.0125,1.7629-2.25,0.8623-3.4866,20.997-144.72,26.657-186.98,2.7791-20.751,5.4632-38.751,5.9648-40,1.2718-3.1663,1.317,17.913,0.055,25.729-0.5327,3.3-6.8445,50.325-14.026,104.5-13.018,98.199-13.067,98.513-15.99,102.62-1.6126,2.2636-3.4091,6.3136-3.9924,9s-1.298,5.5467-1.5882,6.3563c-1.0015,2.794-2.2121-0.97511-2.9345-9.1361-0.7444-8.4086-1.3597-9.0632-5.4855-5.8359-3.2449,2.5382-3.6599,2.4912-4.4106-0.5-0.3451-1.375-1.0614-2.5-1.5916-2.5-1.5896,0-5.9966,9.6867-6.0131,13.217-0.016,3.4565-1.3829,6.5957-2.238,5.14-0.2767-0.47122-0.8214-4.3443-1.2103-8.6068s-1.054-7.75-1.478-7.75c-1.5773,0-4.367,13.901-5.2178,26-0.4834,6.875-1.1059,13.127-1.3833,13.893-1.268,3.5022-2.0305-1.454-2.9573-19.222-0.6254-11.989-1.3746-19.023-2-18.776-1.7863,0.7045-4.498,9.4775-4.5145,14.606-0.01,2.75-0.4592,5.675-1.0008,6.5-1.824,2.7785-2.7316-0.78316-3.4724-13.626-0.3923-6.8056-1.0071-12.374-1.366-12.374s-1.9286,1.3519-3.4881,3.0042c-3.2754,3.4704-4.658,3.1301-4.658-1.1465,0-5.1772-2.4139-2.6658-3.5796,3.7244-0.5938,3.2549-1.5976,7.493-2.2306,9.418s-1.4301,9.239-1.7713,16.253c-0.5822,11.971-1.757,16.759-2.8312,11.538-0.2592-1.26-1.2116-12.406-2.1164-24.769-1.5476-21.148-2.6338-27.393-4.4141-25.379-0.4169,0.47155-1.5083,7.0897-2.4255,14.707-0.9171,7.6172-2.0492,14.592-2.5158,15.5-0.4666,0.90775-1.1582,11.55-1.5369,23.65-0.6297,20.116-1.673,27.657-2.9601,21.395-0.4213-2.0498-3.6696-61.198-3.6318-66.133,0.01-1.1629-0.7319-1.7134-2.2367-1.6621-1.2375,0.0422-3.2574-0.23899-4.4887-0.62487-1.9895-0.6235-2.5739,0.007-5.2492,5.6621-1.6558,3.5-3.0109,8.0246-3.0113,10.055-0.0008,3.6904-1.6301,6.1006-2.4488,3.6224-0.2386-0.72236-0.9424-3.9009-1.5638-7.0634-1.7357-8.8322-4.2342-7.2938-6.4962,4-0.358,1.7875-1.0348,3.25-1.5041,3.25-1.0967,0-1.669-2.1361-2.4779-9.25-0.3597-3.1625-1.0104-5.75-1.4461-5.75-1.5585,0-3.9952,8.6394-4.6537,16.5-0.717,8.5579-1.814,12.228-2.8399,9.5-0.3103-0.825-0.903-6.6387-1.3172-12.919-0.7781-11.798-2.4153-15.509-3.6941-8.3742-0.3739,2.0864-1.12,5.1435-1.658,6.7935s-1.2983,9.3-1.6896,17c-0.4163,8.1924-1.1262,14-1.7114,14-0.8103,0-3.0248-25.088-3.4204-38.75-0.2434-8.4057-4.6912,3.8406-5.6271,15.493-0.6238,7.767-1.9714,10.831-2.8796,6.5476-0.2672-1.26-0.9185-5.8165-1.4473-10.126-0.9608-7.829-1.545-9.5793-2.7841-8.3403-0.3621,0.36217-1.4009,7.8509-2.3083,16.642-1.5713,15.223-2.3997,19.033-3.463,15.926-0.466-1.3614-2.5702-34.049-2.5702-39.927,0-5.0463-1.7069-3.29-3.9364,4.0503-1.4583,4.801-2.9212,15.458-4.633,33.75-2.7266,29.136-3.1304,31.967-4.368,30.628-0.70448-0.76241-3.1092-54.455-3.0743-68.645,0.0147-5.9726-1.4045-6.1256-2.8691-0.30936-0.61499,2.4424-1.5684,4.7189-2.1187,5.059-0.5503,0.34011-1.0006,2.8153-1.0006,5.5003,0,6.4792-1.5773,7.152-3.9253,1.6742-2.4122-5.6274-3.591-6.3419-5.5445-3.3606-1.1427,1.744-2.2421,10.343-4.127,32.282-2.4626,28.662-3.5098,35.859-4.715,32.405z"/>
  </g>
 </g>
</svg>